<?xml version="1.0" encoding="UTF-8" standalone="no"?>
<!DOCTYPE svg PUBLIC "-//W3C//DTD SVG 1.1//EN"
 "http://www.w3.org/Graphics/SVG/1.1/DTD/svg11.dtd">
<!-- Generated by graphviz version 2.38.0 (20140413.2041)
 -->
<!-- Title: ViennaRNA/alifold.h Pages: 1 -->
<svg width="946pt" height="386pt"
 viewBox="0.00 0.00 945.50 386.00" xmlns="http://www.w3.org/2000/svg" xmlns:xlink="http://www.w3.org/1999/xlink">
<g id="graph0" class="graph" transform="scale(1 1) rotate(0) translate(4 382)">
<title>ViennaRNA/alifold.h</title>
<!-- Node1 -->
<g id="node1" class="node"><title>Node1</title>
<polygon fill="#bfbfbf" stroke="black" points="449.5,-358.5 449.5,-377.5 554.5,-377.5 554.5,-358.5 449.5,-358.5"/>
<text text-anchor="middle" x="502" y="-365.5" font-family="Helvetica,sans-Serif" font-size="10.00">ViennaRNA/alifold.h</text>
</g>
<!-- Node2 -->
<g id="node2" class="node"><title>Node2</title>
<g id="a_node2"><a xlink:href="data__structures_8h.html" target="_top" xlink:title="ViennaRNA/data_structures.h">
<polygon fill="none" stroke="black" points="332.5,-179.5 332.5,-198.5 479.5,-198.5 479.5,-179.5 332.5,-179.5"/>
<text text-anchor="middle" x="406" y="-186.5" font-family="Helvetica,sans-Serif" font-size="10.00">ViennaRNA/data_structures.h</text>
</a>
</g>
</g>
<!-- Node1&#45;&gt;Node2 -->
<g id="edge1" class="edge"><title>Node1&#45;&gt;Node2</title>
<path fill="none" stroke="midnightblue" d="M520.082,-358.39C533.562,-350.872 550.972,-338.565 559,-322 570.051,-299.196 562.334,-254.298 545,-235 530.154,-218.472 509.196,-207.987 488.046,-201.343"/>
<polygon fill="midnightblue" stroke="midnightblue" points="488.914,-197.951 478.336,-198.553 486.981,-204.679 488.914,-197.951"/>
</g>
<!-- Node6 -->
<g id="node6" class="node"><title>Node6</title>
<g id="a_node6"><a xlink:href="params_8h.html" target="_top" xlink:title="ViennaRNA/params.h">
<polygon fill="none" stroke="black" points="47,-123.5 47,-142.5 159,-142.5 159,-123.5 47,-123.5"/>
<text text-anchor="middle" x="103" y="-130.5" font-family="Helvetica,sans-Serif" font-size="10.00">ViennaRNA/params.h</text>
</a>
</g>
</g>
<!-- Node1&#45;&gt;Node6 -->
<g id="edge23" class="edge"><title>Node1&#45;&gt;Node6</title>
<path fill="none" stroke="midnightblue" d="M449.257,-364.495C372.855,-360.002 236.034,-348.446 195,-322 134.676,-283.121 112.672,-192.332 105.766,-152.872"/>
<polygon fill="midnightblue" stroke="midnightblue" points="109.187,-152.101 104.14,-142.786 102.277,-153.216 109.187,-152.101"/>
</g>
<!-- Node14 -->
<g id="node14" class="node"><title>Node14</title>
<g id="a_node14"><a xlink:href="ribo_8h.html" target="_top" xlink:title="Parse RiboSum Scoring Matrices for Covariance Scoring of Alignments. ">
<polygon fill="none" stroke="black" points="613.5,-302.5 613.5,-321.5 708.5,-321.5 708.5,-302.5 613.5,-302.5"/>
<text text-anchor="middle" x="661" y="-309.5" font-family="Helvetica,sans-Serif" font-size="10.00">ViennaRNA/ribo.h</text>
</a>
</g>
</g>
<!-- Node1&#45;&gt;Node14 -->
<g id="edge24" class="edge"><title>Node1&#45;&gt;Node14</title>
<path fill="none" stroke="midnightblue" d="M527.194,-358.444C553.943,-349.359 596.403,-334.939 626.305,-324.783"/>
<polygon fill="midnightblue" stroke="midnightblue" points="627.581,-328.046 635.924,-321.516 625.329,-321.418 627.581,-328.046"/>
</g>
<!-- Node15 -->
<g id="node15" class="node"><title>Node15</title>
<g id="a_node15"><a xlink:href="mfe_8h.html" target="_top" xlink:title="MFE calculations for single RNA sequences. ">
<polygon fill="none" stroke="black" points="454,-302.5 454,-321.5 550,-321.5 550,-302.5 454,-302.5"/>
<text text-anchor="middle" x="502" y="-309.5" font-family="Helvetica,sans-Serif" font-size="10.00">ViennaRNA/mfe.h</text>
</a>
</g>
</g>
<!-- Node1&#45;&gt;Node15 -->
<g id="edge25" class="edge"><title>Node1&#45;&gt;Node15</title>
<path fill="none" stroke="midnightblue" d="M502,-358.083C502,-351.006 502,-340.861 502,-331.986"/>
<polygon fill="midnightblue" stroke="midnightblue" points="505.5,-331.751 502,-321.751 498.5,-331.751 505.5,-331.751"/>
</g>
<!-- Node17 -->
<g id="node17" class="node"><title>Node17</title>
<g id="a_node17"><a xlink:href="part__func_8h.html" target="_top" xlink:title="Partition function of single RNA sequences. ">
<polygon fill="none" stroke="black" points="204,-302.5 204,-321.5 324,-321.5 324,-302.5 204,-302.5"/>
<text text-anchor="middle" x="264" y="-309.5" font-family="Helvetica,sans-Serif" font-size="10.00">ViennaRNA/part_func.h</text>
</a>
</g>
</g>
<!-- Node1&#45;&gt;Node17 -->
<g id="edge28" class="edge"><title>Node1&#45;&gt;Node17</title>
<path fill="none" stroke="midnightblue" d="M464.288,-358.444C422.857,-349.043 356.243,-333.929 311.333,-323.739"/>
<polygon fill="midnightblue" stroke="midnightblue" points="312.062,-320.316 301.535,-321.516 310.513,-327.142 312.062,-320.316"/>
</g>
<!-- Node19 -->
<g id="node19" class="node"><title>Node19</title>
<g id="a_node19"><a xlink:href="boltzmann__sampling_8h.html" target="_top" xlink:title="Boltzmann Sampling of secondary structures from the ensemble. ">
<polygon fill="none" stroke="black" points="339,-235.5 339,-265.5 455,-265.5 455,-235.5 339,-235.5"/>
<text text-anchor="start" x="347" y="-253.5" font-family="Helvetica,sans-Serif" font-size="10.00">ViennaRNA/boltzmann</text>
<text text-anchor="middle" x="397" y="-242.5" font-family="Helvetica,sans-Serif" font-size="10.00">_sampling.h</text>
</a>
</g>
</g>
<!-- Node1&#45;&gt;Node19 -->
<g id="edge36" class="edge"><title>Node1&#45;&gt;Node19</title>
<path fill="none" stroke="midnightblue" d="M488.84,-358.352C476.642,-349.952 458.409,-336.389 445,-322 431.502,-307.515 419.01,-288.929 410.155,-274.477"/>
<polygon fill="midnightblue" stroke="midnightblue" points="413.021,-272.45 404.887,-265.661 407.012,-276.041 413.021,-272.45"/>
</g>
<!-- Node20 -->
<g id="node20" class="node"><title>Node20</title>
<g id="a_node20"><a xlink:href="aln__util_8h.html" target="_top" xlink:title="Various utility&#45; and helper&#45;functions for sequence alignments and comparative structure prediction...">
<polygon fill="none" stroke="black" points="727,-302.5 727,-321.5 837,-321.5 837,-302.5 727,-302.5"/>
<text text-anchor="middle" x="782" y="-309.5" font-family="Helvetica,sans-Serif" font-size="10.00">ViennaRNA/aln_util.h</text>
</a>
</g>
</g>
<!-- Node1&#45;&gt;Node20 -->
<g id="edge35" class="edge"><title>Node1&#45;&gt;Node20</title>
<path fill="none" stroke="midnightblue" d="M546.367,-358.444C595.622,-348.944 675.128,-333.611 727.971,-323.42"/>
<polygon fill="midnightblue" stroke="midnightblue" points="728.684,-326.847 737.841,-321.516 727.359,-319.974 728.684,-326.847"/>
</g>
<!-- Node3 -->
<g id="node3" class="node"><title>Node3</title>
<g id="a_node3"><a xlink:href="energy__const_8h.html" target="_top" xlink:title="ViennaRNA/energy_const.h">
<polygon fill="none" stroke="black" points="124,-62 124,-81 262,-81 262,-62 124,-62"/>
<text text-anchor="middle" x="193" y="-69" font-family="Helvetica,sans-Serif" font-size="10.00">ViennaRNA/energy_const.h</text>
</a>
</g>
</g>
<!-- Node2&#45;&gt;Node3 -->
<g id="edge2" class="edge"><title>Node2&#45;&gt;Node3</title>
<path fill="none" stroke="midnightblue" d="M401.839,-179.464C394.634,-165.569 378.518,-138.096 357,-123 337.962,-109.643 281.147,-93.7953 239.714,-83.4626"/>
<polygon fill="midnightblue" stroke="midnightblue" points="240.356,-80.0161 229.809,-81.0237 238.682,-86.8131 240.356,-80.0161"/>
</g>
<!-- Node5 -->
<g id="node5" class="node"><title>Node5</title>
<g id="a_node5"><a xlink:href="model_8h.html" target="_top" xlink:title="The model details data structure and its corresponding modifiers. ">
<polygon fill="none" stroke="black" points="0,-62 0,-81 106,-81 106,-62 0,-62"/>
<text text-anchor="middle" x="53" y="-69" font-family="Helvetica,sans-Serif" font-size="10.00">ViennaRNA/model.h</text>
</a>
</g>
</g>
<!-- Node2&#45;&gt;Node5 -->
<g id="edge4" class="edge"><title>Node2&#45;&gt;Node5</title>
<path fill="none" stroke="midnightblue" d="M350.122,-179.492C309.376,-172.318 253.257,-160.405 206,-143 188.091,-136.404 185.192,-131.286 168,-123 139.469,-109.248 106.292,-94.8446 82.9272,-84.9555"/>
<polygon fill="midnightblue" stroke="midnightblue" points="84.1309,-81.6648 73.5564,-81.0089 81.4138,-88.116 84.1309,-81.6648"/>
</g>
<!-- Node2&#45;&gt;Node6 -->
<g id="edge5" class="edge"><title>Node2&#45;&gt;Node6</title>
<path fill="none" stroke="midnightblue" d="M352.9,-179.444C297.4,-169.925 210.996,-154.547 155.663,-144.356"/>
<polygon fill="midnightblue" stroke="midnightblue" points="156.176,-140.892 145.707,-142.516 154.904,-147.776 156.176,-140.892"/>
</g>
<!-- Node7 -->
<g id="node7" class="node"><title>Node7</title>
<g id="a_node7"><a xlink:href="dp__matrices_8h.html" target="_top" xlink:title="ViennaRNA/dp_matrices.h">
<polygon fill="none" stroke="black" points="215.5,-123.5 215.5,-142.5 348.5,-142.5 348.5,-123.5 215.5,-123.5"/>
<text text-anchor="middle" x="282" y="-130.5" font-family="Helvetica,sans-Serif" font-size="10.00">ViennaRNA/dp_matrices.h</text>
</a>
</g>
</g>
<!-- Node2&#45;&gt;Node7 -->
<g id="edge9" class="edge"><title>Node2&#45;&gt;Node7</title>
<path fill="none" stroke="midnightblue" d="M381.263,-179.444C359.205,-170.675 327.401,-156.935 305.677,-146.858"/>
<polygon fill="midnightblue" stroke="midnightblue" points="307.014,-143.619 296.476,-142.516 304.026,-149.949 307.014,-143.619"/>
</g>
<!-- Node8 -->
<g id="node8" class="node"><title>Node8</title>
<g id="a_node8"><a xlink:href="constraints_8h.html" target="_top" xlink:title="Functions and data structures for constraining secondary structure predictions and evaluation...">
<polygon fill="none" stroke="black" points="481,-123.5 481,-142.5 609,-142.5 609,-123.5 481,-123.5"/>
<text text-anchor="middle" x="545" y="-130.5" font-family="Helvetica,sans-Serif" font-size="10.00">ViennaRNA/constraints.h</text>
</a>
</g>
</g>
<!-- Node2&#45;&gt;Node8 -->
<g id="edge11" class="edge"><title>Node2&#45;&gt;Node8</title>
<path fill="none" stroke="midnightblue" d="M422.936,-179.444C444.142,-170.438 480.606,-156.189 508.255,-146.049"/>
<polygon fill="midnightblue" stroke="midnightblue" points="509.79,-149.215 517.998,-142.516 507.404,-142.635 509.79,-149.215"/>
</g>
<!-- Node4 -->
<g id="node4" class="node"><title>Node4</title>
<polygon fill="none" stroke="#bfbfbf" points="169,-0.5 169,-19.5 217,-19.5 217,-0.5 169,-0.5"/>
<text text-anchor="middle" x="193" y="-7.5" font-family="Helvetica,sans-Serif" font-size="10.00">limits.h</text>
</g>
<!-- Node3&#45;&gt;Node4 -->
<g id="edge3" class="edge"><title>Node3&#45;&gt;Node4</title>
<path fill="none" stroke="midnightblue" d="M193,-61.9751C193,-53.5803 193,-40.4806 193,-29.6631"/>
<polygon fill="midnightblue" stroke="midnightblue" points="196.5,-29.5091 193,-19.5091 189.5,-29.5091 196.5,-29.5091"/>
</g>
<!-- Node6&#45;&gt;Node2 -->
<g id="edge7" class="edge"><title>Node6&#45;&gt;Node2</title>
<path fill="none" stroke="midnightblue" d="M155.867,-142.516C211.279,-152.019 297.684,-167.395 353.104,-177.601"/>
<polygon fill="midnightblue" stroke="midnightblue" points="352.608,-181.068 363.078,-179.444 353.88,-174.185 352.608,-181.068"/>
</g>
<!-- Node6&#45;&gt;Node3 -->
<g id="edge6" class="edge"><title>Node6&#45;&gt;Node3</title>
<path fill="none" stroke="midnightblue" d="M115.895,-123.475C130.464,-113.843 154.402,-98.0175 171.745,-86.5517"/>
<polygon fill="midnightblue" stroke="midnightblue" points="173.717,-89.4437 180.129,-81.0091 169.857,-83.6044 173.717,-89.4437"/>
</g>
<!-- Node6&#45;&gt;Node5 -->
<g id="edge8" class="edge"><title>Node6&#45;&gt;Node5</title>
<path fill="none" stroke="midnightblue" d="M95.8362,-123.475C88.2619,-114.462 76.1299,-100.025 66.7074,-88.8118"/>
<polygon fill="midnightblue" stroke="midnightblue" points="69.2635,-86.4132 60.1505,-81.0091 63.9044,-90.9166 69.2635,-86.4132"/>
</g>
<!-- Node7&#45;&gt;Node2 -->
<g id="edge10" class="edge"><title>Node7&#45;&gt;Node2</title>
<path fill="none" stroke="midnightblue" d="M306.636,-142.516C328.665,-151.27 360.469,-165.007 382.224,-175.096"/>
<polygon fill="midnightblue" stroke="midnightblue" points="380.903,-178.343 391.441,-179.444 383.889,-172.012 380.903,-178.343"/>
</g>
<!-- Node8&#45;&gt;Node2 -->
<g id="edge12" class="edge"><title>Node8&#45;&gt;Node2</title>
<path fill="none" stroke="midnightblue" d="M528.158,-142.516C506.998,-151.506 470.543,-165.754 442.868,-175.906"/>
<polygon fill="midnightblue" stroke="midnightblue" points="441.321,-172.744 433.114,-179.444 443.708,-179.324 441.321,-172.744"/>
</g>
<!-- Node9 -->
<g id="node9" class="node"><title>Node9</title>
<g id="a_node9"><a xlink:href="constraints__hard_8h.html" target="_top" xlink:title="Functions and data structures for handling of secondary structure hard constraints. ">
<polygon fill="none" stroke="black" points="280.5,-56.5 280.5,-86.5 399.5,-86.5 399.5,-56.5 280.5,-56.5"/>
<text text-anchor="start" x="288.5" y="-74.5" font-family="Helvetica,sans-Serif" font-size="10.00">ViennaRNA/constraints</text>
<text text-anchor="middle" x="340" y="-63.5" font-family="Helvetica,sans-Serif" font-size="10.00">_hard.h</text>
</a>
</g>
</g>
<!-- Node8&#45;&gt;Node9 -->
<g id="edge13" class="edge"><title>Node8&#45;&gt;Node9</title>
<path fill="none" stroke="midnightblue" d="M515.628,-123.475C485.14,-114.626 436.638,-100.549 398.322,-89.4277"/>
<polygon fill="midnightblue" stroke="midnightblue" points="398.894,-85.9492 388.314,-86.523 396.942,-92.6717 398.894,-85.9492"/>
</g>
<!-- Node10 -->
<g id="node10" class="node"><title>Node10</title>
<g id="a_node10"><a xlink:href="constraints__soft_8h.html" target="_top" xlink:title="Functions and data structures for secondary structure soft constraints. ">
<polygon fill="none" stroke="black" points="417.5,-56.5 417.5,-86.5 536.5,-86.5 536.5,-56.5 417.5,-56.5"/>
<text text-anchor="start" x="425.5" y="-74.5" font-family="Helvetica,sans-Serif" font-size="10.00">ViennaRNA/constraints</text>
<text text-anchor="middle" x="477" y="-63.5" font-family="Helvetica,sans-Serif" font-size="10.00">_soft.h</text>
</a>
</g>
</g>
<!-- Node8&#45;&gt;Node10 -->
<g id="edge15" class="edge"><title>Node8&#45;&gt;Node10</title>
<path fill="none" stroke="midnightblue" d="M535.257,-123.475C526.306,-115.643 512.674,-103.714 500.846,-93.3656"/>
<polygon fill="midnightblue" stroke="midnightblue" points="502.857,-90.474 493.026,-86.523 498.247,-95.7421 502.857,-90.474"/>
</g>
<!-- Node11 -->
<g id="node11" class="node"><title>Node11</title>
<g id="a_node11"><a xlink:href="constraints__SHAPE_8h.html" target="_top" xlink:title="This module provides function to incorporate SHAPE reactivity data into the folding recursions by mea...">
<polygon fill="none" stroke="black" points="554.5,-56.5 554.5,-86.5 673.5,-86.5 673.5,-56.5 554.5,-56.5"/>
<text text-anchor="start" x="562.5" y="-74.5" font-family="Helvetica,sans-Serif" font-size="10.00">ViennaRNA/constraints</text>
<text text-anchor="middle" x="614" y="-63.5" font-family="Helvetica,sans-Serif" font-size="10.00">_SHAPE.h</text>
</a>
</g>
</g>
<!-- Node8&#45;&gt;Node11 -->
<g id="edge17" class="edge"><title>Node8&#45;&gt;Node11</title>
<path fill="none" stroke="midnightblue" d="M554.886,-123.475C564.056,-115.567 578.068,-103.485 590.149,-93.0675"/>
<polygon fill="midnightblue" stroke="midnightblue" points="592.451,-95.7041 597.738,-86.523 587.879,-90.4029 592.451,-95.7041"/>
</g>
<!-- Node12 -->
<g id="node12" class="node"><title>Node12</title>
<g id="a_node12"><a xlink:href="perturbation__fold_8h.html" target="_top" xlink:title="Find a vector of perturbation energies that minimizes the discripancies between predicted and observe...">
<polygon fill="none" stroke="black" points="692,-56.5 692,-86.5 814,-86.5 814,-56.5 692,-56.5"/>
<text text-anchor="start" x="700" y="-74.5" font-family="Helvetica,sans-Serif" font-size="10.00">ViennaRNA/perturbation</text>
<text text-anchor="middle" x="753" y="-63.5" font-family="Helvetica,sans-Serif" font-size="10.00">_fold.h</text>
</a>
</g>
</g>
<!-- Node8&#45;&gt;Node12 -->
<g id="edge19" class="edge"><title>Node8&#45;&gt;Node12</title>
<path fill="none" stroke="midnightblue" d="M574.801,-123.475C605.868,-114.588 655.366,-100.429 694.32,-89.2859"/>
<polygon fill="midnightblue" stroke="midnightblue" points="695.327,-92.6383 703.979,-86.523 693.402,-85.9083 695.327,-92.6383"/>
</g>
<!-- Node13 -->
<g id="node13" class="node"><title>Node13</title>
<g id="a_node13"><a xlink:href="ligand_8h.html" target="_top" xlink:title="Functions for incorporation of ligands binding to haipirn and interior loop motifs. ">
<polygon fill="none" stroke="black" points="832.5,-62 832.5,-81 937.5,-81 937.5,-62 832.5,-62"/>
<text text-anchor="middle" x="885" y="-69" font-family="Helvetica,sans-Serif" font-size="10.00">ViennaRNA/ligand.h</text>
</a>
</g>
</g>
<!-- Node8&#45;&gt;Node13 -->
<g id="edge21" class="edge"><title>Node8&#45;&gt;Node13</title>
<path fill="none" stroke="midnightblue" d="M605.138,-123.494C661.59,-115.219 748.295,-101.763 823,-87 828.697,-85.8742 834.666,-84.5998 840.557,-83.2853"/>
<polygon fill="midnightblue" stroke="midnightblue" points="841.362,-86.6916 850.333,-81.0543 839.805,-79.867 841.362,-86.6916"/>
</g>
<!-- Node9&#45;&gt;Node2 -->
<g id="edge14" class="edge"><title>Node9&#45;&gt;Node2</title>
<path fill="none" stroke="midnightblue" d="M358.919,-86.6648C369.884,-95.853 383.052,-108.743 391,-123 399.018,-137.383 402.757,-155.841 404.496,-169.41"/>
<polygon fill="midnightblue" stroke="midnightblue" points="401.026,-169.875 405.537,-179.461 407.988,-169.154 401.026,-169.875"/>
</g>
<!-- Node10&#45;&gt;Node2 -->
<g id="edge16" class="edge"><title>Node10&#45;&gt;Node2</title>
<path fill="none" stroke="midnightblue" d="M468.366,-86.5453C455.365,-107.695 430.786,-147.679 416.678,-170.63"/>
<polygon fill="midnightblue" stroke="midnightblue" points="413.592,-168.967 411.337,-179.319 419.555,-172.633 413.592,-168.967"/>
</g>
<!-- Node11&#45;&gt;Node2 -->
<g id="edge18" class="edge"><title>Node11&#45;&gt;Node2</title>
<path fill="none" stroke="midnightblue" d="M619.885,-86.6505C625.325,-102.238 630.809,-127.187 618,-143 601.703,-163.12 541.654,-174.612 489.608,-180.939"/>
<polygon fill="midnightblue" stroke="midnightblue" points="489.185,-177.464 479.658,-182.099 489.996,-184.417 489.185,-177.464"/>
</g>
<!-- Node12&#45;&gt;Node2 -->
<g id="edge20" class="edge"><title>Node12&#45;&gt;Node2</title>
<path fill="none" stroke="midnightblue" d="M734.208,-86.6867C711.947,-102.791 673.177,-128.676 636,-143 589.143,-161.053 534.009,-172.159 489.47,-178.819"/>
<polygon fill="midnightblue" stroke="midnightblue" points="488.949,-175.358 479.554,-180.255 489.952,-182.286 488.949,-175.358"/>
</g>
<!-- Node13&#45;&gt;Node2 -->
<g id="edge22" class="edge"><title>Node13&#45;&gt;Node2</title>
<path fill="none" stroke="midnightblue" d="M862.832,-81.0313C824.33,-95.57 742.375,-125.289 671,-143 608.346,-158.547 536.024,-170.432 482.779,-178.072"/>
<polygon fill="midnightblue" stroke="midnightblue" points="482.139,-174.628 472.729,-179.497 483.122,-181.559 482.139,-174.628"/>
</g>
<!-- Node15&#45;&gt;Node2 -->
<g id="edge27" class="edge"><title>Node15&#45;&gt;Node2</title>
<path fill="none" stroke="midnightblue" d="M509.702,-302.314C521.942,-287.413 542.991,-256.508 528,-235 516.677,-218.755 498.792,-208.36 480.17,-201.712"/>
<polygon fill="midnightblue" stroke="midnightblue" points="480.987,-198.298 470.396,-198.566 478.843,-204.962 480.987,-198.298"/>
</g>
<!-- Node16 -->
<g id="node16" class="node"><title>Node16</title>
<polygon fill="none" stroke="#bfbfbf" points="473,-241 473,-260 519,-260 519,-241 473,-241"/>
<text text-anchor="middle" x="496" y="-248" font-family="Helvetica,sans-Serif" font-size="10.00">stdio.h</text>
</g>
<!-- Node15&#45;&gt;Node16 -->
<g id="edge26" class="edge"><title>Node15&#45;&gt;Node16</title>
<path fill="none" stroke="midnightblue" d="M501.14,-302.475C500.294,-294.08 498.973,-280.981 497.882,-270.163"/>
<polygon fill="midnightblue" stroke="midnightblue" points="501.344,-269.607 496.858,-260.009 494.379,-270.31 501.344,-269.607"/>
</g>
<!-- Node17&#45;&gt;Node2 -->
<g id="edge29" class="edge"><title>Node17&#45;&gt;Node2</title>
<path fill="none" stroke="midnightblue" d="M241.541,-302.382C226.231,-295.184 207.137,-283.288 198,-266 191.562,-253.819 189.349,-245.723 198,-235 213.795,-215.422 271.639,-203.94 322.328,-197.48"/>
<polygon fill="midnightblue" stroke="midnightblue" points="322.855,-200.941 332.356,-196.254 322.005,-193.993 322.855,-200.941"/>
</g>
<!-- Node17&#45;&gt;Node6 -->
<g id="edge30" class="edge"><title>Node17&#45;&gt;Node6</title>
<path fill="none" stroke="midnightblue" d="M244.509,-302.373C228.331,-294.538 205.401,-281.805 189,-266 153.024,-231.332 124.603,-178.933 111.272,-151.756"/>
<polygon fill="midnightblue" stroke="midnightblue" points="114.394,-150.172 106.917,-142.665 108.081,-153.196 114.394,-150.172"/>
</g>
<!-- Node18 -->
<g id="node18" class="node"><title>Node18</title>
<g id="a_node18"><a xlink:href="centroid_8h.html" target="_top" xlink:title="Centroid structure computation. ">
<polygon fill="none" stroke="black" points="207,-241 207,-260 321,-260 321,-241 207,-241"/>
<text text-anchor="middle" x="264" y="-248" font-family="Helvetica,sans-Serif" font-size="10.00">ViennaRNA/centroid.h</text>
</a>
</g>
</g>
<!-- Node17&#45;&gt;Node18 -->
<g id="edge31" class="edge"><title>Node17&#45;&gt;Node18</title>
<path fill="none" stroke="midnightblue" d="M264,-302.475C264,-294.08 264,-280.981 264,-270.163"/>
<polygon fill="midnightblue" stroke="midnightblue" points="267.5,-270.009 264,-260.009 260.5,-270.009 267.5,-270.009"/>
</g>
<!-- Node17&#45;&gt;Node19 -->
<g id="edge33" class="edge"><title>Node17&#45;&gt;Node19</title>
<path fill="none" stroke="midnightblue" d="M283.056,-302.475C302.079,-293.965 331.91,-280.619 356.277,-269.718"/>
<polygon fill="midnightblue" stroke="midnightblue" points="357.956,-272.802 365.655,-265.523 355.097,-266.412 357.956,-272.802"/>
</g>
<!-- Node18&#45;&gt;Node2 -->
<g id="edge32" class="edge"><title>Node18&#45;&gt;Node2</title>
<path fill="none" stroke="midnightblue" d="M284.345,-240.975C308.387,-230.901 348.597,-214.053 376.163,-202.502"/>
<polygon fill="midnightblue" stroke="midnightblue" points="377.822,-205.602 385.693,-198.509 375.117,-199.146 377.822,-205.602"/>
</g>
<!-- Node19&#45;&gt;Node2 -->
<g id="edge34" class="edge"><title>Node19&#45;&gt;Node2</title>
<path fill="none" stroke="midnightblue" d="M399.133,-235.399C400.346,-227.377 401.881,-217.233 403.191,-208.569"/>
<polygon fill="midnightblue" stroke="midnightblue" points="406.655,-209.069 404.69,-198.658 399.734,-208.022 406.655,-209.069"/>
</g>
</g>
</svg>
