<?xml version="1.0" encoding="UTF-8" standalone="no"?>
<!DOCTYPE svg PUBLIC "-//W3C//DTD SVG 1.1//EN"
 "http://www.w3.org/Graphics/SVG/1.1/DTD/svg11.dtd">
<!-- Generated by graphviz version 2.38.0 (20140413.2041)
 -->
<!-- Title: ViennaRNA/constraints.h Pages: 1 -->
<!--zoomable 319 -->
<svg id="main" version="1.1" xmlns="http://www.w3.org/2000/svg" xmlns:xlink="http://www.w3.org/1999/xlink" xml:space="preserve" onload="init(evt)">
<style type="text/css"><![CDATA[
.edge:hover path { stroke: red; }
.edge:hover polygon { stroke: red; fill: red; }
]]></style>
<script type="text/javascript"><![CDATA[
var edges = document.getElementsByTagName('g');
if (edges && edges.length) {
  for (var i=0;i<edges.length;i++) {
    if (edges[i].id.substr(0,4)=='edge') {
      edges[i].setAttribute('class','edge');
    }
  }
}
]]></script>
        <defs>
                <circle id="rim" cx="0" cy="0" r="7"/>
                <circle id="rim2" cx="0" cy="0" r="3.5"/>
                <g id="zoomPlus">
                        <use xlink:href="#rim" fill="#404040">
                                <set attributeName="fill" to="#808080" begin="zoomplus.mouseover" end="zoomplus.mouseout"/>
                        </use>
                        <path d="M-4,0h8M0,-4v8" fill="none" stroke="white" stroke-width="1.5" pointer-events="none"/>
                </g>
                <g id="zoomMin">
                        <use xlink:href="#rim" fill="#404040">
                                <set attributeName="fill" to="#808080" begin="zoomminus.mouseover" end="zoomminus.mouseout"/>
                        </use>
                        <path d="M-4,0h8" fill="none" stroke="white" stroke-width="1.5" pointer-events="none"/>
                </g>
                <g id="dirArrow">
                        <path fill="none" stroke="white" stroke-width="1.5" d="M0,-3.0v7 M-2.5,-0.5L0,-3.0L2.5,-0.5"/>
                </g>
               <g id="resetDef">
                       <use xlink:href="#rim2" fill="#404040">
                               <set attributeName="fill" to="#808080" begin="reset.mouseover" end="reset.mouseout"/>
                       </use>
               </g>
        </defs>

<script type="text/javascript">
var viewWidth = 693;
var viewHeight = 319;
var sectionId = 'dynsection-0';
</script>
<script xlink:href="svgpan.js"/>
<svg id="graph" class="graph">
<g id="viewport">
<title>ViennaRNA/constraints.h</title>
<!-- Node1 -->
<g id="node1" class="node"><title>Node1</title>
<polygon fill="#bfbfbf" stroke="black" points="160.674,-291.5 160.674,-310.5 288.674,-310.5 288.674,-291.5 160.674,-291.5"/>
<text text-anchor="middle" x="224.674" y="-298.5" font-family="Helvetica,sans-Serif" font-size="10.00">ViennaRNA/constraints.h</text>
</g>
<!-- Node2 -->
<g id="node2" class="node"><title>Node2</title>
<g id="a_node2"><a xlink:href="data__structures_8h.html" target="_top" xlink:title="ViennaRNA/data_structures.h">
<polygon fill="none" stroke="black" points="151.174,-168.5 151.174,-187.5 298.174,-187.5 298.174,-168.5 151.174,-168.5"/>
<text text-anchor="middle" x="224.674" y="-175.5" font-family="Helvetica,sans-Serif" font-size="10.00">ViennaRNA/data_structures.h</text>
</a>
</g>
</g>
<!-- Node1&#45;&gt;Node2 -->
<g id="edge1" class="edge"><title>Node1&#45;&gt;Node2</title>
<path fill="none" stroke="midnightblue" d="M160.44,-295.385C103.918,-289.686 28.0403,-277.811 9.6743,-255 -29.3346,-206.55 65.0777,-188.987 141.005,-182.62"/>
<polygon fill="midnightblue" stroke="midnightblue" points="141.411,-186.099 151.107,-181.829 140.864,-179.121 141.411,-186.099"/>
</g>
<!-- Node8 -->
<g id="node8" class="node"><title>Node8</title>
<g id="a_node8"><a xlink:href="constraints__hard_8h.html" target="_top" xlink:title="Functions and data structures for handling of secondary structure hard constraints. ">
<polygon fill="none" stroke="black" points="28.1743,-224.5 28.1743,-254.5 147.174,-254.5 147.174,-224.5 28.1743,-224.5"/>
<text text-anchor="start" x="36.1743" y="-242.5" font-family="Helvetica,sans-Serif" font-size="10.00">ViennaRNA/constraints</text>
<text text-anchor="middle" x="87.6743" y="-231.5" font-family="Helvetica,sans-Serif" font-size="10.00">_hard.h</text>
</a>
</g>
</g>
<!-- Node1&#45;&gt;Node8 -->
<g id="edge12" class="edge"><title>Node1&#45;&gt;Node8</title>
<path fill="none" stroke="midnightblue" d="M205.046,-291.475C185.364,-282.927 154.45,-269.501 129.289,-258.573"/>
<polygon fill="midnightblue" stroke="midnightblue" points="130.529,-255.296 119.962,-254.523 127.741,-261.717 130.529,-255.296"/>
</g>
<!-- Node9 -->
<g id="node9" class="node"><title>Node9</title>
<g id="a_node9"><a xlink:href="constraints__soft_8h.html" target="_top" xlink:title="Functions and data structures for secondary structure soft constraints. ">
<polygon fill="none" stroke="black" points="165.174,-224.5 165.174,-254.5 284.174,-254.5 284.174,-224.5 165.174,-224.5"/>
<text text-anchor="start" x="173.174" y="-242.5" font-family="Helvetica,sans-Serif" font-size="10.00">ViennaRNA/constraints</text>
<text text-anchor="middle" x="224.674" y="-231.5" font-family="Helvetica,sans-Serif" font-size="10.00">_soft.h</text>
</a>
</g>
</g>
<!-- Node1&#45;&gt;Node9 -->
<g id="edge14" class="edge"><title>Node1&#45;&gt;Node9</title>
<path fill="none" stroke="midnightblue" d="M224.674,-291.475C224.674,-284.471 224.674,-274.192 224.674,-264.696"/>
<polygon fill="midnightblue" stroke="midnightblue" points="228.174,-264.523 224.674,-254.523 221.174,-264.523 228.174,-264.523"/>
</g>
<!-- Node10 -->
<g id="node10" class="node"><title>Node10</title>
<g id="a_node10"><a xlink:href="constraints__SHAPE_8h.html" target="_top" xlink:title="This module provides function to incorporate SHAPE reactivity data into the folding recursions by mea...">
<polygon fill="none" stroke="black" points="302.174,-224.5 302.174,-254.5 421.174,-254.5 421.174,-224.5 302.174,-224.5"/>
<text text-anchor="start" x="310.174" y="-242.5" font-family="Helvetica,sans-Serif" font-size="10.00">ViennaRNA/constraints</text>
<text text-anchor="middle" x="361.674" y="-231.5" font-family="Helvetica,sans-Serif" font-size="10.00">_SHAPE.h</text>
</a>
</g>
</g>
<!-- Node1&#45;&gt;Node10 -->
<g id="edge16" class="edge"><title>Node1&#45;&gt;Node10</title>
<path fill="none" stroke="midnightblue" d="M244.303,-291.475C263.985,-282.927 294.899,-269.501 320.06,-258.573"/>
<polygon fill="midnightblue" stroke="midnightblue" points="321.608,-261.717 329.386,-254.523 318.82,-255.296 321.608,-261.717"/>
</g>
<!-- Node11 -->
<g id="node11" class="node"><title>Node11</title>
<g id="a_node11"><a xlink:href="perturbation__fold_8h.html" target="_top" xlink:title="Find a vector of perturbation energies that minimizes the discripancies between predicted and observe...">
<polygon fill="none" stroke="black" points="439.674,-224.5 439.674,-254.5 561.674,-254.5 561.674,-224.5 439.674,-224.5"/>
<text text-anchor="start" x="447.674" y="-242.5" font-family="Helvetica,sans-Serif" font-size="10.00">ViennaRNA/perturbation</text>
<text text-anchor="middle" x="500.674" y="-231.5" font-family="Helvetica,sans-Serif" font-size="10.00">_fold.h</text>
</a>
</g>
</g>
<!-- Node1&#45;&gt;Node11 -->
<g id="edge18" class="edge"><title>Node1&#45;&gt;Node11</title>
<path fill="none" stroke="midnightblue" d="M264.218,-291.475C307.278,-282.192 377.022,-267.157 429.631,-255.816"/>
<polygon fill="midnightblue" stroke="midnightblue" points="430.54,-259.2 439.577,-253.671 429.064,-252.357 430.54,-259.2"/>
</g>
<!-- Node12 -->
<g id="node12" class="node"><title>Node12</title>
<g id="a_node12"><a xlink:href="ligand_8h.html" target="_top" xlink:title="Functions for incorporation of ligands binding to haipirn and interior loop motifs. ">
<polygon fill="none" stroke="black" points="580.174,-230 580.174,-249 685.174,-249 685.174,-230 580.174,-230"/>
<text text-anchor="middle" x="632.674" y="-237" font-family="Helvetica,sans-Serif" font-size="10.00">ViennaRNA/ligand.h</text>
</a>
</g>
</g>
<!-- Node1&#45;&gt;Node12 -->
<g id="edge20" class="edge"><title>Node1&#45;&gt;Node12</title>
<path fill="none" stroke="midnightblue" d="M288.742,-293.615C358.42,-286.219 472.928,-272.74 570.674,-255 576.597,-253.925 582.805,-252.651 588.91,-251.312"/>
<polygon fill="midnightblue" stroke="midnightblue" points="590.038,-254.645 599.016,-249.02 588.489,-247.819 590.038,-254.645"/>
</g>
<!-- Node2&#45;&gt;Node1 -->
<g id="edge11" class="edge"><title>Node2&#45;&gt;Node1</title>
<path fill="none" stroke="midnightblue" d="M151.154,-182.911C80.3023,-189.515 -10.7552,-207.27 27.6743,-255 43.4337,-274.574 101.538,-286.095 150.647,-292.572"/>
<polygon fill="midnightblue" stroke="midnightblue" points="150.292,-296.055 160.653,-293.84 151.172,-289.11 150.292,-296.055"/>
</g>
<!-- Node3 -->
<g id="node3" class="node"><title>Node3</title>
<g id="a_node3"><a xlink:href="energy__const_8h.html" target="_top" xlink:title="ViennaRNA/energy_const.h">
<polygon fill="none" stroke="black" points="43.6743,-56.5 43.6743,-75.5 181.674,-75.5 181.674,-56.5 43.6743,-56.5"/>
<text text-anchor="middle" x="112.674" y="-63.5" font-family="Helvetica,sans-Serif" font-size="10.00">ViennaRNA/energy_const.h</text>
</a>
</g>
</g>
<!-- Node2&#45;&gt;Node3 -->
<g id="edge2" class="edge"><title>Node2&#45;&gt;Node3</title>
<path fill="none" stroke="midnightblue" d="M176.216,-168.44C154.799,-162.073 131.406,-151.043 117.674,-132 108.063,-118.671 107.746,-99.5541 109.271,-85.5012"/>
<polygon fill="midnightblue" stroke="midnightblue" points="112.746,-85.9288 110.748,-75.5242 105.822,-84.904 112.746,-85.9288"/>
</g>
<!-- Node5 -->
<g id="node5" class="node"><title>Node5</title>
<g id="a_node5"><a xlink:href="model_8h.html" target="_top" xlink:title="The model details data structure and its corresponding modifiers. ">
<polygon fill="none" stroke="black" points="206.674,-56.5 206.674,-75.5 312.674,-75.5 312.674,-56.5 206.674,-56.5"/>
<text text-anchor="middle" x="259.674" y="-63.5" font-family="Helvetica,sans-Serif" font-size="10.00">ViennaRNA/model.h</text>
</a>
</g>
</g>
<!-- Node2&#45;&gt;Node5 -->
<g id="edge4" class="edge"><title>Node2&#45;&gt;Node5</title>
<path fill="none" stroke="midnightblue" d="M230.046,-168.369C235.303,-159.547 243.158,-145.292 247.674,-132 252.814,-116.873 255.912,-98.9758 257.67,-85.7947"/>
<polygon fill="midnightblue" stroke="midnightblue" points="261.175,-85.9584 258.886,-75.6137 254.224,-85.1277 261.175,-85.9584"/>
</g>
<!-- Node6 -->
<g id="node6" class="node"><title>Node6</title>
<g id="a_node6"><a xlink:href="params_8h.html" target="_top" xlink:title="ViennaRNA/params.h">
<polygon fill="none" stroke="black" points="126.674,-112.5 126.674,-131.5 238.674,-131.5 238.674,-112.5 126.674,-112.5"/>
<text text-anchor="middle" x="182.674" y="-119.5" font-family="Helvetica,sans-Serif" font-size="10.00">ViennaRNA/params.h</text>
</a>
</g>
</g>
<!-- Node2&#45;&gt;Node6 -->
<g id="edge5" class="edge"><title>Node2&#45;&gt;Node6</title>
<path fill="none" stroke="midnightblue" d="M212.573,-168.083C205.109,-160.534 196.131,-149.495 189.734,-140.23"/>
<polygon fill="midnightblue" stroke="midnightblue" points="192.665,-138.316 184.35,-131.751 186.756,-142.069 192.665,-138.316"/>
</g>
<!-- Node7 -->
<g id="node7" class="node"><title>Node7</title>
<g id="a_node7"><a xlink:href="dp__matrices_8h.html" target="_top" xlink:title="ViennaRNA/dp_matrices.h">
<polygon fill="none" stroke="black" points="295.174,-112.5 295.174,-131.5 428.174,-131.5 428.174,-112.5 295.174,-112.5"/>
<text text-anchor="middle" x="361.674" y="-119.5" font-family="Helvetica,sans-Serif" font-size="10.00">ViennaRNA/dp_matrices.h</text>
</a>
</g>
</g>
<!-- Node2&#45;&gt;Node7 -->
<g id="edge9" class="edge"><title>Node2&#45;&gt;Node7</title>
<path fill="none" stroke="midnightblue" d="M241.294,-168.444C262.165,-159.438 298.102,-145.189 325.376,-135.049"/>
<polygon fill="midnightblue" stroke="midnightblue" points="326.809,-138.251 334.988,-131.516 324.394,-131.681 326.809,-138.251"/>
</g>
<!-- Node4 -->
<g id="node4" class="node"><title>Node4</title>
<polygon fill="none" stroke="#bfbfbf" points="88.6743,-0.5 88.6743,-19.5 136.674,-19.5 136.674,-0.5 88.6743,-0.5"/>
<text text-anchor="middle" x="112.674" y="-7.5" font-family="Helvetica,sans-Serif" font-size="10.00">limits.h</text>
</g>
<!-- Node3&#45;&gt;Node4 -->
<g id="edge3" class="edge"><title>Node3&#45;&gt;Node4</title>
<path fill="none" stroke="midnightblue" d="M112.674,-56.083C112.674,-49.0059 112.674,-38.8611 112.674,-29.9865"/>
<polygon fill="midnightblue" stroke="midnightblue" points="116.174,-29.751 112.674,-19.7511 109.174,-29.7511 116.174,-29.751"/>
</g>
<!-- Node6&#45;&gt;Node2 -->
<g id="edge7" class="edge"><title>Node6&#45;&gt;Node2</title>
<path fill="none" stroke="midnightblue" d="M194.612,-131.751C202.053,-139.248 211.038,-150.275 217.473,-159.566"/>
<polygon fill="midnightblue" stroke="midnightblue" points="214.577,-161.534 222.905,-168.083 220.479,-157.77 214.577,-161.534"/>
</g>
<!-- Node6&#45;&gt;Node3 -->
<g id="edge6" class="edge"><title>Node6&#45;&gt;Node3</title>
<path fill="none" stroke="midnightblue" d="M171.428,-112.324C160.877,-104.185 144.874,-91.8395 132.232,-82.0874"/>
<polygon fill="midnightblue" stroke="midnightblue" points="134.181,-79.1707 124.126,-75.8339 129.906,-84.7132 134.181,-79.1707"/>
</g>
<!-- Node6&#45;&gt;Node5 -->
<g id="edge8" class="edge"><title>Node6&#45;&gt;Node5</title>
<path fill="none" stroke="midnightblue" d="M195.046,-112.324C206.833,-104.058 224.807,-91.4527 238.81,-81.6322"/>
<polygon fill="midnightblue" stroke="midnightblue" points="241.156,-84.2619 247.334,-75.6545 237.137,-78.5307 241.156,-84.2619"/>
</g>
<!-- Node7&#45;&gt;Node2 -->
<g id="edge10" class="edge"><title>Node7&#45;&gt;Node2</title>
<path fill="none" stroke="midnightblue" d="M345.148,-131.516C324.321,-140.506 288.394,-154.754 261.094,-164.906"/>
<polygon fill="midnightblue" stroke="midnightblue" points="259.649,-161.708 251.471,-168.444 262.065,-168.278 259.649,-161.708"/>
</g>
<!-- Node8&#45;&gt;Node2 -->
<g id="edge13" class="edge"><title>Node8&#45;&gt;Node2</title>
<path fill="none" stroke="midnightblue" d="M120.141,-224.399C143.025,-214.461 173.409,-201.265 195.519,-191.662"/>
<polygon fill="midnightblue" stroke="midnightblue" points="196.962,-194.852 204.74,-187.658 194.173,-188.431 196.962,-194.852"/>
</g>
<!-- Node9&#45;&gt;Node2 -->
<g id="edge15" class="edge"><title>Node9&#45;&gt;Node2</title>
<path fill="none" stroke="midnightblue" d="M224.674,-224.399C224.674,-216.466 224.674,-206.458 224.674,-197.858"/>
<polygon fill="midnightblue" stroke="midnightblue" points="228.174,-197.658 224.674,-187.658 221.174,-197.658 228.174,-197.658"/>
</g>
<!-- Node10&#45;&gt;Node2 -->
<g id="edge17" class="edge"><title>Node10&#45;&gt;Node2</title>
<path fill="none" stroke="midnightblue" d="M329.207,-224.399C306.324,-214.461 275.94,-201.265 253.83,-191.662"/>
<polygon fill="midnightblue" stroke="midnightblue" points="255.176,-188.431 244.609,-187.658 252.387,-194.852 255.176,-188.431"/>
</g>
<!-- Node11&#45;&gt;Node2 -->
<g id="edge19" class="edge"><title>Node11&#45;&gt;Node2</title>
<path fill="none" stroke="midnightblue" d="M439.421,-225.295C389.708,-214.578 320.511,-199.66 274.238,-189.685"/>
<polygon fill="midnightblue" stroke="midnightblue" points="274.952,-186.258 264.439,-187.572 273.477,-193.101 274.952,-186.258"/>
</g>
<!-- Node12&#45;&gt;Node2 -->
<g id="edge21" class="edge"><title>Node12&#45;&gt;Node2</title>
<path fill="none" stroke="midnightblue" d="M599.016,-229.98C589.86,-227.84 579.919,-225.678 570.674,-224 481.628,-207.839 378.672,-195.214 308.37,-187.503"/>
<polygon fill="midnightblue" stroke="midnightblue" points="308.56,-184.003 298.241,-186.401 307.803,-190.962 308.56,-184.003"/>
</g>
</g>
</svg>
        <g id="navigator" transform="translate(0 0)" fill="#404254">
                <rect fill="#f2f5e9" fill-opacity="0.5" stroke="#606060" stroke-width=".5" x="0" y="0" width="60" height="60"/>
                <use id="zoomplus" xlink:href="#zoomPlus" x="17" y="9" onmousedown="handleZoom(evt,'in')"/>
                <use id="zoomminus" xlink:href="#zoomMin" x="42" y="9" onmousedown="handleZoom(evt,'out')"/>
                <use id="reset" xlink:href="#resetDef" x="30" y="36" onmousedown="handleReset()"/>
                <g id="arrowUp" xlink:href="#dirArrow" transform="translate(30 24)" onmousedown="handlePan(0,-1)">
                  <use xlink:href="#rim" fill="#404040">
                        <set attributeName="fill" to="#808080" begin="arrowUp.mouseover" end="arrowUp.mouseout"/>
                  </use>
                  <path fill="none" stroke="white" stroke-width="1.5" d="M0,-3.0v7 M-2.5,-0.5L0,-3.0L2.5,-0.5"/>
                </g>
                <g id="arrowRight" xlink:href="#dirArrow" transform="rotate(90) translate(36 -43)" onmousedown="handlePan(1,0)">
                  <use xlink:href="#rim" fill="#404040">
                        <set attributeName="fill" to="#808080" begin="arrowRight.mouseover" end="arrowRight.mouseout"/>
                  </use>
                  <path fill="none" stroke="white" stroke-width="1.5" d="M0,-3.0v7 M-2.5,-0.5L0,-3.0L2.5,-0.5"/>
                </g>
                <g id="arrowDown" xlink:href="#dirArrow" transform="rotate(180) translate(-30 -48)" onmousedown="handlePan(0,1)">
                  <use xlink:href="#rim" fill="#404040">
                        <set attributeName="fill" to="#808080" begin="arrowDown.mouseover" end="arrowDown.mouseout"/>
                  </use>
                  <path fill="none" stroke="white" stroke-width="1.5" d="M0,-3.0v7 M-2.5,-0.5L0,-3.0L2.5,-0.5"/>
                </g>
                <g id="arrowLeft" xlink:href="#dirArrow" transform="rotate(270) translate(-36 17)" onmousedown="handlePan(-1,0)">
                  <use xlink:href="#rim" fill="#404040">
                        <set attributeName="fill" to="#808080" begin="arrowLeft.mouseover" end="arrowLeft.mouseout"/>
                  </use>
                  <path fill="none" stroke="white" stroke-width="1.5" d="M0,-3.0v7 M-2.5,-0.5L0,-3.0L2.5,-0.5"/>
                </g>
        </g>
        <svg viewBox="0 0 15 15" width="100%" height="30px" preserveAspectRatio="xMaxYMin meet">
         <g id="arrow_out" transform="scale(0.3 0.3)">
          <a xlink:href="constraints_8h__incl_org.svg" target="_base">
           <rect id="button" ry="5" rx="5" y="6" x="6" height="38" width="38"
                fill="#f2f5e9" fill-opacity="0.5" stroke="#606060" stroke-width="1.0"/>
           <path id="arrow"
             d="M 11.500037,31.436501 C 11.940474,20.09759 22.043105,11.32322 32.158766,21.979434 L 37.068811,17.246167 C 37.068811,17.246167 37.088388,32 37.088388,32 L 22.160133,31.978069 C 22.160133,31.978069 26.997745,27.140456 26.997745,27.140456 C 18.528582,18.264221 13.291696,25.230495 11.500037,31.436501 z"
             style="fill:#404040;"/>
          </a>
         </g>
        </svg>
</svg>
