<?xml version="1.0" encoding="UTF-8" standalone="no"?>
<!DOCTYPE svg PUBLIC "-//W3C//DTD SVG 1.1//EN"
 "http://www.w3.org/Graphics/SVG/1.1/DTD/svg11.dtd">
<!-- Generated by graphviz version 2.38.0 (20140413.2041)
 -->
<!-- Title: ViennaRNA/constraints_SHAPE.h Pages: 1 -->
<!--zoomable 274 -->
<svg id="main" version="1.1" xmlns="http://www.w3.org/2000/svg" xmlns:xlink="http://www.w3.org/1999/xlink" xml:space="preserve" onload="init(evt)">
<style type="text/css"><![CDATA[
.edge:hover path { stroke: red; }
.edge:hover polygon { stroke: red; fill: red; }
]]></style>
<script type="text/javascript"><![CDATA[
var edges = document.getElementsByTagName('g');
if (edges && edges.length) {
  for (var i=0;i<edges.length;i++) {
    if (edges[i].id.substr(0,4)=='edge') {
      edges[i].setAttribute('class','edge');
    }
  }
}
]]></script>
        <defs>
                <circle id="rim" cx="0" cy="0" r="7"/>
                <circle id="rim2" cx="0" cy="0" r="3.5"/>
                <g id="zoomPlus">
                        <use xlink:href="#rim" fill="#404040">
                                <set attributeName="fill" to="#808080" begin="zoomplus.mouseover" end="zoomplus.mouseout"/>
                        </use>
                        <path d="M-4,0h8M0,-4v8" fill="none" stroke="white" stroke-width="1.5" pointer-events="none"/>
                </g>
                <g id="zoomMin">
                        <use xlink:href="#rim" fill="#404040">
                                <set attributeName="fill" to="#808080" begin="zoomminus.mouseover" end="zoomminus.mouseout"/>
                        </use>
                        <path d="M-4,0h8" fill="none" stroke="white" stroke-width="1.5" pointer-events="none"/>
                </g>
                <g id="dirArrow">
                        <path fill="none" stroke="white" stroke-width="1.5" d="M0,-3.0v7 M-2.5,-0.5L0,-3.0L2.5,-0.5"/>
                </g>
               <g id="resetDef">
                       <use xlink:href="#rim2" fill="#404040">
                               <set attributeName="fill" to="#808080" begin="reset.mouseover" end="reset.mouseout"/>
                       </use>
               </g>
        </defs>

<script type="text/javascript">
var viewWidth = 849;
var viewHeight = 274;
var sectionId = 'dynsection-0';
</script>
<script xlink:href="svgpan.js"/>
<svg id="graph" class="graph">
<g id="viewport">
<title>ViennaRNA/constraints_SHAPE.h</title>
<!-- Node1 -->
<g id="node1" class="node"><title>Node1</title>
<polygon fill="#bfbfbf" stroke="black" points="375,-235.5 375,-265.5 494,-265.5 494,-235.5 375,-235.5"/>
<text text-anchor="start" x="383" y="-253.5" font-family="Helvetica,sans-Serif" font-size="10.00">ViennaRNA/constraints</text>
<text text-anchor="middle" x="434.5" y="-242.5" font-family="Helvetica,sans-Serif" font-size="10.00">_SHAPE.h</text>
</g>
<!-- Node2 -->
<g id="node2" class="node"><title>Node2</title>
<g id="a_node2"><a xlink:href="data__structures_8h.html" target="_top" xlink:title="ViennaRNA/data_structures.h">
<polygon fill="none" stroke="black" points="294,-179.5 294,-198.5 441,-198.5 441,-179.5 294,-179.5"/>
<text text-anchor="middle" x="367.5" y="-186.5" font-family="Helvetica,sans-Serif" font-size="10.00">ViennaRNA/data_structures.h</text>
</a>
</g>
</g>
<!-- Node1&#45;&gt;Node2 -->
<g id="edge1" class="edge"><title>Node1&#45;&gt;Node2</title>
<path fill="none" stroke="midnightblue" d="M418.622,-235.399C408.485,-226.397 395.338,-214.721 384.915,-205.465"/>
<polygon fill="midnightblue" stroke="midnightblue" points="387.05,-202.681 377.249,-198.658 382.402,-207.915 387.05,-202.681"/>
</g>
<!-- Node3 -->
<g id="node3" class="node"><title>Node3</title>
<g id="a_node3"><a xlink:href="energy__const_8h.html" target="_top" xlink:title="ViennaRNA/energy_const.h">
<polygon fill="none" stroke="black" points="164.5,-62 164.5,-81 302.5,-81 302.5,-62 164.5,-62"/>
<text text-anchor="middle" x="233.5" y="-69" font-family="Helvetica,sans-Serif" font-size="10.00">ViennaRNA/energy_const.h</text>
</a>
</g>
</g>
<!-- Node2&#45;&gt;Node3 -->
<g id="edge2" class="edge"><title>Node2&#45;&gt;Node3</title>
<path fill="none" stroke="midnightblue" d="M361.133,-179.339C351.227,-166.215 331.114,-140.923 310.5,-123 294.162,-108.795 273.563,-95.4874 257.782,-86.1024"/>
<polygon fill="midnightblue" stroke="midnightblue" points="259.518,-83.0634 249.116,-81.0529 255.994,-89.1116 259.518,-83.0634"/>
</g>
<!-- Node5 -->
<g id="node5" class="node"><title>Node5</title>
<g id="a_node5"><a xlink:href="model_8h.html" target="_top" xlink:title="The model details data structure and its corresponding modifiers. ">
<polygon fill="none" stroke="black" points="40.5,-62 40.5,-81 146.5,-81 146.5,-62 40.5,-62"/>
<text text-anchor="middle" x="93.5" y="-69" font-family="Helvetica,sans-Serif" font-size="10.00">ViennaRNA/model.h</text>
</a>
</g>
</g>
<!-- Node2&#45;&gt;Node5 -->
<g id="edge4" class="edge"><title>Node2&#45;&gt;Node5</title>
<path fill="none" stroke="midnightblue" d="M301.434,-179.46C264.481,-172.906 218.377,-161.699 180.5,-143 152.336,-129.096 125.07,-104.662 108.785,-88.5271"/>
<polygon fill="midnightblue" stroke="midnightblue" points="111.23,-86.0212 101.717,-81.3555 106.244,-90.9347 111.23,-86.0212"/>
</g>
<!-- Node6 -->
<g id="node6" class="node"><title>Node6</title>
<g id="a_node6"><a xlink:href="params_8h.html" target="_top" xlink:title="ViennaRNA/params.h">
<polygon fill="none" stroke="black" points="189.5,-123.5 189.5,-142.5 301.5,-142.5 301.5,-123.5 189.5,-123.5"/>
<text text-anchor="middle" x="245.5" y="-130.5" font-family="Helvetica,sans-Serif" font-size="10.00">ViennaRNA/params.h</text>
</a>
</g>
</g>
<!-- Node2&#45;&gt;Node6 -->
<g id="edge5" class="edge"><title>Node2&#45;&gt;Node6</title>
<path fill="none" stroke="midnightblue" d="M343.08,-179.444C321.346,-170.675 290.052,-156.935 268.701,-146.858"/>
<polygon fill="midnightblue" stroke="midnightblue" points="270.19,-143.691 259.661,-142.516 267.16,-150.001 270.19,-143.691"/>
</g>
<!-- Node7 -->
<g id="node7" class="node"><title>Node7</title>
<g id="a_node7"><a xlink:href="dp__matrices_8h.html" target="_top" xlink:title="ViennaRNA/dp_matrices.h">
<polygon fill="none" stroke="black" points="0,-123.5 0,-142.5 133,-142.5 133,-123.5 0,-123.5"/>
<text text-anchor="middle" x="66.5" y="-130.5" font-family="Helvetica,sans-Serif" font-size="10.00">ViennaRNA/dp_matrices.h</text>
</a>
</g>
</g>
<!-- Node2&#45;&gt;Node7 -->
<g id="edge9" class="edge"><title>Node2&#45;&gt;Node7</title>
<path fill="none" stroke="midnightblue" d="M314.717,-179.444C259.57,-169.925 173.735,-154.547 118.779,-144.356"/>
<polygon fill="midnightblue" stroke="midnightblue" points="119.363,-140.905 108.891,-142.516 118.082,-147.787 119.363,-140.905"/>
</g>
<!-- Node8 -->
<g id="node8" class="node"><title>Node8</title>
<g id="a_node8"><a xlink:href="constraints_8h.html" target="_top" xlink:title="Functions and data structures for constraining secondary structure predictions and evaluation...">
<polygon fill="none" stroke="black" points="471.5,-123.5 471.5,-142.5 599.5,-142.5 599.5,-123.5 471.5,-123.5"/>
<text text-anchor="middle" x="535.5" y="-130.5" font-family="Helvetica,sans-Serif" font-size="10.00">ViennaRNA/constraints.h</text>
</a>
</g>
</g>
<!-- Node2&#45;&gt;Node8 -->
<g id="edge11" class="edge"><title>Node2&#45;&gt;Node8</title>
<path fill="none" stroke="midnightblue" d="M389.031,-179.444C415.53,-170.28 460.743,-155.688 494.016,-145.519"/>
<polygon fill="midnightblue" stroke="midnightblue" points="495.369,-148.766 503.924,-142.516 493.339,-142.067 495.369,-148.766"/>
</g>
<!-- Node4 -->
<g id="node4" class="node"><title>Node4</title>
<polygon fill="none" stroke="#bfbfbf" points="209.5,-0.5 209.5,-19.5 257.5,-19.5 257.5,-0.5 209.5,-0.5"/>
<text text-anchor="middle" x="233.5" y="-7.5" font-family="Helvetica,sans-Serif" font-size="10.00">limits.h</text>
</g>
<!-- Node3&#45;&gt;Node4 -->
<g id="edge3" class="edge"><title>Node3&#45;&gt;Node4</title>
<path fill="none" stroke="midnightblue" d="M233.5,-61.9751C233.5,-53.5803 233.5,-40.4806 233.5,-29.6631"/>
<polygon fill="midnightblue" stroke="midnightblue" points="237,-29.5091 233.5,-19.5091 230,-29.5091 237,-29.5091"/>
</g>
<!-- Node6&#45;&gt;Node2 -->
<g id="edge7" class="edge"><title>Node6&#45;&gt;Node2</title>
<path fill="none" stroke="midnightblue" d="M270.163,-142.655C291.782,-151.385 322.73,-164.972 343.994,-174.998"/>
<polygon fill="midnightblue" stroke="midnightblue" points="342.483,-178.155 353.013,-179.324 345.51,-171.844 342.483,-178.155"/>
</g>
<!-- Node6&#45;&gt;Node3 -->
<g id="edge6" class="edge"><title>Node6&#45;&gt;Node3</title>
<path fill="none" stroke="midnightblue" d="M243.781,-123.475C242.07,-114.992 239.39,-101.704 237.195,-90.8222"/>
<polygon fill="midnightblue" stroke="midnightblue" points="240.624,-90.1197 235.216,-81.0091 233.762,-91.5037 240.624,-90.1197"/>
</g>
<!-- Node6&#45;&gt;Node5 -->
<g id="edge8" class="edge"><title>Node6&#45;&gt;Node5</title>
<path fill="none" stroke="midnightblue" d="M223.722,-123.475C197.762,-113.313 154.189,-96.2564 124.665,-84.6996"/>
<polygon fill="midnightblue" stroke="midnightblue" points="125.825,-81.3951 115.237,-81.0091 123.274,-87.9135 125.825,-81.3951"/>
</g>
<!-- Node7&#45;&gt;Node2 -->
<g id="edge10" class="edge"><title>Node7&#45;&gt;Node2</title>
<path fill="none" stroke="midnightblue" d="M119.051,-142.516C174.112,-152.019 259.947,-167.395 314.989,-177.601"/>
<polygon fill="midnightblue" stroke="midnightblue" points="314.423,-181.055 324.894,-179.444 315.703,-174.173 314.423,-181.055"/>
</g>
<!-- Node8&#45;&gt;Node1 -->
<g id="edge17" class="edge"><title>Node8&#45;&gt;Node1</title>
<path fill="none" stroke="midnightblue" d="M527.919,-142.669C512.302,-160.528 476.13,-201.893 453.657,-227.593"/>
<polygon fill="midnightblue" stroke="midnightblue" points="450.833,-225.506 446.885,-235.337 456.102,-230.114 450.833,-225.506"/>
</g>
<!-- Node8&#45;&gt;Node2 -->
<g id="edge12" class="edge"><title>Node8&#45;&gt;Node2</title>
<path fill="none" stroke="midnightblue" d="M514.084,-142.516C487.641,-151.664 442.437,-166.255 409.13,-176.436"/>
<polygon fill="midnightblue" stroke="midnightblue" points="407.764,-173.193 399.209,-179.444 409.794,-179.892 407.764,-173.193"/>
</g>
<!-- Node9 -->
<g id="node9" class="node"><title>Node9</title>
<g id="a_node9"><a xlink:href="constraints__hard_8h.html" target="_top" xlink:title="Functions and data structures for handling of secondary structure hard constraints. ">
<polygon fill="none" stroke="black" points="321,-56.5 321,-86.5 440,-86.5 440,-56.5 321,-56.5"/>
<text text-anchor="start" x="329" y="-74.5" font-family="Helvetica,sans-Serif" font-size="10.00">ViennaRNA/constraints</text>
<text text-anchor="middle" x="380.5" y="-63.5" font-family="Helvetica,sans-Serif" font-size="10.00">_hard.h</text>
</a>
</g>
</g>
<!-- Node8&#45;&gt;Node9 -->
<g id="edge13" class="edge"><title>Node8&#45;&gt;Node9</title>
<path fill="none" stroke="midnightblue" d="M513.292,-123.475C490.73,-114.814 455.122,-101.145 426.457,-90.1415"/>
<polygon fill="midnightblue" stroke="midnightblue" points="427.621,-86.8392 417.03,-86.523 425.112,-93.3743 427.621,-86.8392"/>
</g>
<!-- Node10 -->
<g id="node10" class="node"><title>Node10</title>
<g id="a_node10"><a xlink:href="constraints__soft_8h.html" target="_top" xlink:title="Functions and data structures for secondary structure soft constraints. ">
<polygon fill="none" stroke="black" points="458,-56.5 458,-86.5 577,-86.5 577,-56.5 458,-56.5"/>
<text text-anchor="start" x="466" y="-74.5" font-family="Helvetica,sans-Serif" font-size="10.00">ViennaRNA/constraints</text>
<text text-anchor="middle" x="517.5" y="-63.5" font-family="Helvetica,sans-Serif" font-size="10.00">_soft.h</text>
</a>
</g>
</g>
<!-- Node8&#45;&gt;Node10 -->
<g id="edge15" class="edge"><title>Node8&#45;&gt;Node10</title>
<path fill="none" stroke="midnightblue" d="M532.921,-123.475C530.779,-116.396 527.626,-105.97 524.727,-96.3896"/>
<polygon fill="midnightblue" stroke="midnightblue" points="527.988,-95.0811 521.742,-86.523 521.288,-97.1081 527.988,-95.0811"/>
</g>
<!-- Node11 -->
<g id="node11" class="node"><title>Node11</title>
<g id="a_node11"><a xlink:href="perturbation__fold_8h.html" target="_top" xlink:title="Find a vector of perturbation energies that minimizes the discripancies between predicted and observe...">
<polygon fill="none" stroke="black" points="595.5,-56.5 595.5,-86.5 717.5,-86.5 717.5,-56.5 595.5,-56.5"/>
<text text-anchor="start" x="603.5" y="-74.5" font-family="Helvetica,sans-Serif" font-size="10.00">ViennaRNA/perturbation</text>
<text text-anchor="middle" x="656.5" y="-63.5" font-family="Helvetica,sans-Serif" font-size="10.00">_fold.h</text>
</a>
</g>
</g>
<!-- Node8&#45;&gt;Node11 -->
<g id="edge18" class="edge"><title>Node8&#45;&gt;Node11</title>
<path fill="none" stroke="midnightblue" d="M552.836,-123.475C569.99,-115.04 596.803,-101.855 618.862,-91.008"/>
<polygon fill="midnightblue" stroke="midnightblue" points="620.553,-94.0765 627.983,-86.523 617.464,-87.7949 620.553,-94.0765"/>
</g>
<!-- Node12 -->
<g id="node12" class="node"><title>Node12</title>
<g id="a_node12"><a xlink:href="ligand_8h.html" target="_top" xlink:title="Functions for incorporation of ligands binding to haipirn and interior loop motifs. ">
<polygon fill="none" stroke="black" points="736,-62 736,-81 841,-81 841,-62 736,-62"/>
<text text-anchor="middle" x="788.5" y="-69" font-family="Helvetica,sans-Serif" font-size="10.00">ViennaRNA/ligand.h</text>
</a>
</g>
</g>
<!-- Node8&#45;&gt;Node12 -->
<g id="edge20" class="edge"><title>Node8&#45;&gt;Node12</title>
<path fill="none" stroke="midnightblue" d="M571.749,-123.475C616.65,-112.915 693.206,-94.911 742.284,-83.3689"/>
<polygon fill="midnightblue" stroke="midnightblue" points="743.385,-86.7055 752.319,-81.0091 741.783,-79.8914 743.385,-86.7055"/>
</g>
<!-- Node9&#45;&gt;Node2 -->
<g id="edge14" class="edge"><title>Node9&#45;&gt;Node2</title>
<path fill="none" stroke="midnightblue" d="M378.919,-86.5453C376.592,-107.223 372.238,-145.904 369.631,-169.068"/>
<polygon fill="midnightblue" stroke="midnightblue" points="366.118,-168.99 368.477,-179.319 373.074,-169.773 366.118,-168.99"/>
</g>
<!-- Node10&#45;&gt;Node2 -->
<g id="edge16" class="edge"><title>Node10&#45;&gt;Node2</title>
<path fill="none" stroke="midnightblue" d="M488.034,-86.6781C470.276,-95.8712 447.658,-108.761 429.5,-123 411.004,-137.504 392.796,-157.46 380.949,-171.421"/>
<polygon fill="midnightblue" stroke="midnightblue" points="378.152,-169.31 374.448,-179.237 383.533,-173.786 378.152,-169.31"/>
</g>
<!-- Node11&#45;&gt;Node2 -->
<g id="edge19" class="edge"><title>Node11&#45;&gt;Node2</title>
<path fill="none" stroke="midnightblue" d="M595.044,-86.0702C547.53,-97.0123 486.017,-112.29 462.5,-123 447.018,-130.051 410.112,-156.471 387.125,-173.38"/>
<polygon fill="midnightblue" stroke="midnightblue" points="385.031,-170.576 379.07,-179.335 389.192,-176.205 385.031,-170.576"/>
</g>
<!-- Node12&#45;&gt;Node2 -->
<g id="edge21" class="edge"><title>Node12&#45;&gt;Node2</title>
<path fill="none" stroke="midnightblue" d="M769.986,-81.1028C737.799,-95.7494 669.157,-125.627 608.5,-143 553.3,-158.81 489.352,-170.454 441.205,-177.932"/>
<polygon fill="midnightblue" stroke="midnightblue" points="440.536,-174.493 431.18,-179.464 441.594,-181.413 440.536,-174.493"/>
</g>
</g>
</svg>
        <g id="navigator" transform="translate(0 0)" fill="#404254">
                <rect fill="#f2f5e9" fill-opacity="0.5" stroke="#606060" stroke-width=".5" x="0" y="0" width="60" height="60"/>
                <use id="zoomplus" xlink:href="#zoomPlus" x="17" y="9" onmousedown="handleZoom(evt,'in')"/>
                <use id="zoomminus" xlink:href="#zoomMin" x="42" y="9" onmousedown="handleZoom(evt,'out')"/>
                <use id="reset" xlink:href="#resetDef" x="30" y="36" onmousedown="handleReset()"/>
                <g id="arrowUp" xlink:href="#dirArrow" transform="translate(30 24)" onmousedown="handlePan(0,-1)">
                  <use xlink:href="#rim" fill="#404040">
                        <set attributeName="fill" to="#808080" begin="arrowUp.mouseover" end="arrowUp.mouseout"/>
                  </use>
                  <path fill="none" stroke="white" stroke-width="1.5" d="M0,-3.0v7 M-2.5,-0.5L0,-3.0L2.5,-0.5"/>
                </g>
                <g id="arrowRight" xlink:href="#dirArrow" transform="rotate(90) translate(36 -43)" onmousedown="handlePan(1,0)">
                  <use xlink:href="#rim" fill="#404040">
                        <set attributeName="fill" to="#808080" begin="arrowRight.mouseover" end="arrowRight.mouseout"/>
                  </use>
                  <path fill="none" stroke="white" stroke-width="1.5" d="M0,-3.0v7 M-2.5,-0.5L0,-3.0L2.5,-0.5"/>
                </g>
                <g id="arrowDown" xlink:href="#dirArrow" transform="rotate(180) translate(-30 -48)" onmousedown="handlePan(0,1)">
                  <use xlink:href="#rim" fill="#404040">
                        <set attributeName="fill" to="#808080" begin="arrowDown.mouseover" end="arrowDown.mouseout"/>
                  </use>
                  <path fill="none" stroke="white" stroke-width="1.5" d="M0,-3.0v7 M-2.5,-0.5L0,-3.0L2.5,-0.5"/>
                </g>
                <g id="arrowLeft" xlink:href="#dirArrow" transform="rotate(270) translate(-36 17)" onmousedown="handlePan(-1,0)">
                  <use xlink:href="#rim" fill="#404040">
                        <set attributeName="fill" to="#808080" begin="arrowLeft.mouseover" end="arrowLeft.mouseout"/>
                  </use>
                  <path fill="none" stroke="white" stroke-width="1.5" d="M0,-3.0v7 M-2.5,-0.5L0,-3.0L2.5,-0.5"/>
                </g>
        </g>
        <svg viewBox="0 0 15 15" width="100%" height="30px" preserveAspectRatio="xMaxYMin meet">
         <g id="arrow_out" transform="scale(0.3 0.3)">
          <a xlink:href="constraints__SHAPE_8h__incl_org.svg" target="_base">
           <rect id="button" ry="5" rx="5" y="6" x="6" height="38" width="38"
                fill="#f2f5e9" fill-opacity="0.5" stroke="#606060" stroke-width="1.0"/>
           <path id="arrow"
             d="M 11.500037,31.436501 C 11.940474,20.09759 22.043105,11.32322 32.158766,21.979434 L 37.068811,17.246167 C 37.068811,17.246167 37.088388,32 37.088388,32 L 22.160133,31.978069 C 22.160133,31.978069 26.997745,27.140456 26.997745,27.140456 C 18.528582,18.264221 13.291696,25.230495 11.500037,31.436501 z"
             style="fill:#404040;"/>
          </a>
         </g>
        </svg>
</svg>
