<?xml version="1.0" encoding="UTF-8" standalone="no"?>
<!DOCTYPE svg PUBLIC "-//W3C//DTD SVG 1.1//EN"
 "http://www.w3.org/Graphics/SVG/1.1/DTD/svg11.dtd">
<!-- Generated by graphviz version 2.38.0 (20140413.2041)
 -->
<!-- Title: ViennaRNA/dp_matrices.h Pages: 1 -->
<svg width="946pt" height="263pt"
 viewBox="0.00 0.00 945.50 263.00" xmlns="http://www.w3.org/2000/svg" xmlns:xlink="http://www.w3.org/1999/xlink">
<g id="graph0" class="graph" transform="scale(1 1) rotate(0) translate(4 259)">
<title>ViennaRNA/dp_matrices.h</title>
<!-- Node1 -->
<g id="node1" class="node"><title>Node1</title>
<polygon fill="#bfbfbf" stroke="black" points="357.5,-235.5 357.5,-254.5 490.5,-254.5 490.5,-235.5 357.5,-235.5"/>
<text text-anchor="middle" x="424" y="-242.5" font-family="Helvetica,sans-Serif" font-size="10.00">ViennaRNA/dp_matrices.h</text>
</g>
<!-- Node2 -->
<g id="node2" class="node"><title>Node2</title>
<g id="a_node2"><a xlink:href="data__structures_8h.html" target="_top" xlink:title="ViennaRNA/data_structures.h">
<polygon fill="none" stroke="black" points="350.5,-179.5 350.5,-198.5 497.5,-198.5 497.5,-179.5 350.5,-179.5"/>
<text text-anchor="middle" x="424" y="-186.5" font-family="Helvetica,sans-Serif" font-size="10.00">ViennaRNA/data_structures.h</text>
</a>
</g>
</g>
<!-- Node1&#45;&gt;Node2 -->
<g id="edge1" class="edge"><title>Node1&#45;&gt;Node2</title>
<path fill="none" stroke="midnightblue" d="M418.834,-235.083C417.324,-227.927 416.894,-217.635 417.542,-208.691"/>
<polygon fill="midnightblue" stroke="midnightblue" points="421.015,-209.126 418.869,-198.751 414.077,-208.2 421.015,-209.126"/>
</g>
<!-- Node2&#45;&gt;Node1 -->
<g id="edge9" class="edge"><title>Node2&#45;&gt;Node1</title>
<path fill="none" stroke="midnightblue" d="M429.131,-198.751C430.657,-205.858 431.104,-216.136 430.472,-225.101"/>
<polygon fill="midnightblue" stroke="midnightblue" points="426.993,-224.713 429.166,-235.083 433.934,-225.622 426.993,-224.713"/>
</g>
<!-- Node3 -->
<g id="node3" class="node"><title>Node3</title>
<g id="a_node3"><a xlink:href="energy__const_8h.html" target="_top" xlink:title="ViennaRNA/energy_const.h">
<polygon fill="none" stroke="black" points="0,-62 0,-81 138,-81 138,-62 0,-62"/>
<text text-anchor="middle" x="69" y="-69" font-family="Helvetica,sans-Serif" font-size="10.00">ViennaRNA/energy_const.h</text>
</a>
</g>
</g>
<!-- Node2&#45;&gt;Node3 -->
<g id="edge2" class="edge"><title>Node2&#45;&gt;Node3</title>
<path fill="none" stroke="midnightblue" d="M350.309,-187.477C292.192,-184.44 210.468,-174.214 146,-143 119.606,-130.22 95.8173,-105.433 81.884,-88.9219"/>
<polygon fill="midnightblue" stroke="midnightblue" points="84.5715,-86.6794 75.5345,-81.1491 79.1503,-91.1079 84.5715,-86.6794"/>
</g>
<!-- Node5 -->
<g id="node5" class="node"><title>Node5</title>
<g id="a_node5"><a xlink:href="model_8h.html" target="_top" xlink:title="The model details data structure and its corresponding modifiers. ">
<polygon fill="none" stroke="black" points="156,-62 156,-81 262,-81 262,-62 156,-62"/>
<text text-anchor="middle" x="209" y="-69" font-family="Helvetica,sans-Serif" font-size="10.00">ViennaRNA/model.h</text>
</a>
</g>
</g>
<!-- Node2&#45;&gt;Node5 -->
<g id="edge4" class="edge"><title>Node2&#45;&gt;Node5</title>
<path fill="none" stroke="midnightblue" d="M407.84,-179.319C370.628,-159.328 278.674,-109.929 234.068,-85.9667"/>
<polygon fill="midnightblue" stroke="midnightblue" points="235.52,-82.7737 225.054,-81.1245 232.207,-88.9402 235.52,-82.7737"/>
</g>
<!-- Node6 -->
<g id="node6" class="node"><title>Node6</title>
<g id="a_node6"><a xlink:href="params_8h.html" target="_top" xlink:title="ViennaRNA/params.h">
<polygon fill="none" stroke="black" points="155,-123.5 155,-142.5 267,-142.5 267,-123.5 155,-123.5"/>
<text text-anchor="middle" x="211" y="-130.5" font-family="Helvetica,sans-Serif" font-size="10.00">ViennaRNA/params.h</text>
</a>
</g>
</g>
<!-- Node2&#45;&gt;Node6 -->
<g id="edge5" class="edge"><title>Node2&#45;&gt;Node6</title>
<path fill="none" stroke="midnightblue" d="M385.161,-179.444C346.513,-170.162 287.764,-155.309 249.307,-145.127"/>
<polygon fill="midnightblue" stroke="midnightblue" points="250.077,-141.71 239.513,-142.516 248.274,-148.474 250.077,-141.71"/>
</g>
<!-- Node7 -->
<g id="node7" class="node"><title>Node7</title>
<g id="a_node7"><a xlink:href="constraints_8h.html" target="_top" xlink:title="Functions and data structures for constraining secondary structure predictions and evaluation...">
<polygon fill="none" stroke="black" points="490,-123.5 490,-142.5 618,-142.5 618,-123.5 490,-123.5"/>
<text text-anchor="middle" x="554" y="-130.5" font-family="Helvetica,sans-Serif" font-size="10.00">ViennaRNA/constraints.h</text>
</a>
</g>
</g>
<!-- Node2&#45;&gt;Node7 -->
<g id="edge10" class="edge"><title>Node2&#45;&gt;Node7</title>
<path fill="none" stroke="midnightblue" d="M439.51,-179.444C459.128,-170.478 493.005,-156.314 518.921,-146.183"/>
<polygon fill="midnightblue" stroke="midnightblue" points="520.349,-149.383 528.418,-142.516 517.828,-142.853 520.349,-149.383"/>
</g>
<!-- Node4 -->
<g id="node4" class="node"><title>Node4</title>
<polygon fill="none" stroke="#bfbfbf" points="45,-0.5 45,-19.5 93,-19.5 93,-0.5 45,-0.5"/>
<text text-anchor="middle" x="69" y="-7.5" font-family="Helvetica,sans-Serif" font-size="10.00">limits.h</text>
</g>
<!-- Node3&#45;&gt;Node4 -->
<g id="edge3" class="edge"><title>Node3&#45;&gt;Node4</title>
<path fill="none" stroke="midnightblue" d="M69,-61.9751C69,-53.5803 69,-40.4806 69,-29.6631"/>
<polygon fill="midnightblue" stroke="midnightblue" points="72.5001,-29.5091 69,-19.5091 65.5001,-29.5091 72.5001,-29.5091"/>
</g>
<!-- Node6&#45;&gt;Node2 -->
<g id="edge7" class="edge"><title>Node6&#45;&gt;Node2</title>
<path fill="none" stroke="midnightblue" d="M249.673,-142.516C288.263,-151.782 347.012,-166.633 385.527,-176.829"/>
<polygon fill="midnightblue" stroke="midnightblue" points="384.774,-180.251 395.338,-179.444 386.577,-173.487 384.774,-180.251"/>
</g>
<!-- Node6&#45;&gt;Node3 -->
<g id="edge6" class="edge"><title>Node6&#45;&gt;Node3</title>
<path fill="none" stroke="midnightblue" d="M190.655,-123.475C166.613,-113.401 126.403,-96.5525 98.8375,-85.0023"/>
<polygon fill="midnightblue" stroke="midnightblue" points="99.8831,-81.6457 89.3074,-81.0091 97.1778,-88.1018 99.8831,-81.6457"/>
</g>
<!-- Node6&#45;&gt;Node5 -->
<g id="edge8" class="edge"><title>Node6&#45;&gt;Node5</title>
<path fill="none" stroke="midnightblue" d="M210.713,-123.475C210.431,-115.08 209.991,-101.981 209.627,-91.1631"/>
<polygon fill="midnightblue" stroke="midnightblue" points="213.12,-90.8858 209.286,-81.0091 206.124,-91.1211 213.12,-90.8858"/>
</g>
<!-- Node7&#45;&gt;Node2 -->
<g id="edge11" class="edge"><title>Node7&#45;&gt;Node2</title>
<path fill="none" stroke="midnightblue" d="M538.577,-142.516C519.002,-151.467 485.134,-165.629 459.195,-175.772"/>
<polygon fill="midnightblue" stroke="midnightblue" points="457.755,-172.576 449.688,-179.444 460.277,-179.106 457.755,-172.576"/>
</g>
<!-- Node8 -->
<g id="node8" class="node"><title>Node8</title>
<g id="a_node8"><a xlink:href="constraints__hard_8h.html" target="_top" xlink:title="Functions and data structures for handling of secondary structure hard constraints. ">
<polygon fill="none" stroke="black" points="280.5,-56.5 280.5,-86.5 399.5,-86.5 399.5,-56.5 280.5,-56.5"/>
<text text-anchor="start" x="288.5" y="-74.5" font-family="Helvetica,sans-Serif" font-size="10.00">ViennaRNA/constraints</text>
<text text-anchor="middle" x="340" y="-63.5" font-family="Helvetica,sans-Serif" font-size="10.00">_hard.h</text>
</a>
</g>
</g>
<!-- Node7&#45;&gt;Node8 -->
<g id="edge12" class="edge"><title>Node7&#45;&gt;Node8</title>
<path fill="none" stroke="midnightblue" d="M523.339,-123.475C491.308,-114.569 440.234,-100.369 400.118,-89.2151"/>
<polygon fill="midnightblue" stroke="midnightblue" points="401.008,-85.8297 390.436,-86.523 399.133,-92.5739 401.008,-85.8297"/>
</g>
<!-- Node9 -->
<g id="node9" class="node"><title>Node9</title>
<g id="a_node9"><a xlink:href="constraints__soft_8h.html" target="_top" xlink:title="Functions and data structures for secondary structure soft constraints. ">
<polygon fill="none" stroke="black" points="417.5,-56.5 417.5,-86.5 536.5,-86.5 536.5,-56.5 417.5,-56.5"/>
<text text-anchor="start" x="425.5" y="-74.5" font-family="Helvetica,sans-Serif" font-size="10.00">ViennaRNA/constraints</text>
<text text-anchor="middle" x="477" y="-63.5" font-family="Helvetica,sans-Serif" font-size="10.00">_soft.h</text>
</a>
</g>
</g>
<!-- Node7&#45;&gt;Node9 -->
<g id="edge14" class="edge"><title>Node7&#45;&gt;Node9</title>
<path fill="none" stroke="midnightblue" d="M542.968,-123.475C532.637,-115.492 516.8,-103.254 503.232,-92.7703"/>
<polygon fill="midnightblue" stroke="midnightblue" points="505.2,-89.868 495.147,-86.523 500.92,-95.407 505.2,-89.868"/>
</g>
<!-- Node10 -->
<g id="node10" class="node"><title>Node10</title>
<g id="a_node10"><a xlink:href="constraints__SHAPE_8h.html" target="_top" xlink:title="This module provides function to incorporate SHAPE reactivity data into the folding recursions by mea...">
<polygon fill="none" stroke="black" points="554.5,-56.5 554.5,-86.5 673.5,-86.5 673.5,-56.5 554.5,-56.5"/>
<text text-anchor="start" x="562.5" y="-74.5" font-family="Helvetica,sans-Serif" font-size="10.00">ViennaRNA/constraints</text>
<text text-anchor="middle" x="614" y="-63.5" font-family="Helvetica,sans-Serif" font-size="10.00">_SHAPE.h</text>
</a>
</g>
</g>
<!-- Node7&#45;&gt;Node10 -->
<g id="edge16" class="edge"><title>Node7&#45;&gt;Node10</title>
<path fill="none" stroke="midnightblue" d="M562.597,-123.475C570.419,-115.718 582.292,-103.943 592.658,-93.6645"/>
<polygon fill="midnightblue" stroke="midnightblue" points="595.223,-96.0496 599.859,-86.523 590.294,-91.0792 595.223,-96.0496"/>
</g>
<!-- Node11 -->
<g id="node11" class="node"><title>Node11</title>
<g id="a_node11"><a xlink:href="perturbation__fold_8h.html" target="_top" xlink:title="Find a vector of perturbation energies that minimizes the discripancies between predicted and observe...">
<polygon fill="none" stroke="black" points="692,-56.5 692,-86.5 814,-86.5 814,-56.5 692,-56.5"/>
<text text-anchor="start" x="700" y="-74.5" font-family="Helvetica,sans-Serif" font-size="10.00">ViennaRNA/perturbation</text>
<text text-anchor="middle" x="753" y="-63.5" font-family="Helvetica,sans-Serif" font-size="10.00">_fold.h</text>
</a>
</g>
</g>
<!-- Node7&#45;&gt;Node11 -->
<g id="edge18" class="edge"><title>Node7&#45;&gt;Node11</title>
<path fill="none" stroke="midnightblue" d="M582.512,-123.475C612.108,-114.626 659.19,-100.549 696.385,-89.4277"/>
<polygon fill="midnightblue" stroke="midnightblue" points="697.521,-92.741 706.1,-86.523 695.516,-86.0344 697.521,-92.741"/>
</g>
<!-- Node12 -->
<g id="node12" class="node"><title>Node12</title>
<g id="a_node12"><a xlink:href="ligand_8h.html" target="_top" xlink:title="Functions for incorporation of ligands binding to haipirn and interior loop motifs. ">
<polygon fill="none" stroke="black" points="832.5,-62 832.5,-81 937.5,-81 937.5,-62 832.5,-62"/>
<text text-anchor="middle" x="885" y="-69" font-family="Helvetica,sans-Serif" font-size="10.00">ViennaRNA/ligand.h</text>
</a>
</g>
</g>
<!-- Node7&#45;&gt;Node12 -->
<g id="edge20" class="edge"><title>Node7&#45;&gt;Node12</title>
<path fill="none" stroke="midnightblue" d="M611.392,-123.488C665.988,-115.134 750.341,-101.558 823,-87 828.694,-85.8592 834.662,-84.576 840.551,-83.2569"/>
<polygon fill="midnightblue" stroke="midnightblue" points="841.358,-86.6627 850.326,-81.0219 839.798,-79.8388 841.358,-86.6627"/>
</g>
<!-- Node8&#45;&gt;Node2 -->
<g id="edge13" class="edge"><title>Node8&#45;&gt;Node2</title>
<path fill="none" stroke="midnightblue" d="M350.215,-86.5453C365.665,-107.789 394.936,-148.037 411.59,-170.936"/>
<polygon fill="midnightblue" stroke="midnightblue" points="408.974,-173.29 417.686,-179.319 414.635,-169.173 408.974,-173.29"/>
</g>
<!-- Node9&#45;&gt;Node2 -->
<g id="edge15" class="edge"><title>Node9&#45;&gt;Node2</title>
<path fill="none" stroke="midnightblue" d="M467.963,-86.7417C461.876,-96.6747 453.911,-110.362 448,-123 440.833,-138.323 434.298,-156.425 429.863,-169.63"/>
<polygon fill="midnightblue" stroke="midnightblue" points="426.449,-168.808 426.664,-179.401 433.102,-170.986 426.449,-168.808"/>
</g>
<!-- Node10&#45;&gt;Node2 -->
<g id="edge17" class="edge"><title>Node10&#45;&gt;Node2</title>
<path fill="none" stroke="midnightblue" d="M559.617,-86.5253C534.303,-94.6572 504.636,-106.59 481,-123 462.391,-135.92 445.911,-156.201 435.518,-170.671"/>
<polygon fill="midnightblue" stroke="midnightblue" points="432.424,-168.991 429.607,-179.205 438.178,-172.977 432.424,-168.991"/>
</g>
<!-- Node11&#45;&gt;Node2 -->
<g id="edge19" class="edge"><title>Node11&#45;&gt;Node2</title>
<path fill="none" stroke="midnightblue" d="M732.085,-86.7325C707.818,-102.633 666.116,-128.092 627,-143 584.087,-159.356 533.693,-170.568 493.85,-177.711"/>
<polygon fill="midnightblue" stroke="midnightblue" points="493.207,-174.27 483.959,-179.44 494.413,-181.166 493.207,-174.27"/>
</g>
<!-- Node12&#45;&gt;Node2 -->
<g id="edge21" class="edge"><title>Node12&#45;&gt;Node2</title>
<path fill="none" stroke="midnightblue" d="M861.292,-81.0777C820.984,-95.4236 736.329,-124.526 663,-143 605.091,-157.589 538.215,-169.794 489.958,-177.796"/>
<polygon fill="midnightblue" stroke="midnightblue" points="489.254,-174.364 479.953,-179.439 490.388,-181.272 489.254,-174.364"/>
</g>
</g>
</svg>
