<?xml version="1.0" encoding="UTF-8" standalone="no"?>
<!DOCTYPE svg PUBLIC "-//W3C//DTD SVG 1.1//EN"
 "http://www.w3.org/Graphics/SVG/1.1/DTD/svg11.dtd">
<!-- Generated by graphviz version 2.38.0 (20140413.2041)
 -->
<!-- Title: ViennaRNA/duplex.h Pages: 1 -->
<svg width="946pt" height="263pt"
 viewBox="0.00 0.00 945.50 263.00" xmlns="http://www.w3.org/2000/svg" xmlns:xlink="http://www.w3.org/1999/xlink">
<g id="graph0" class="graph" transform="scale(1 1) rotate(0) translate(4 259)">
<title>ViennaRNA/duplex.h</title>
<!-- Node1 -->
<g id="node1" class="node"><title>Node1</title>
<polygon fill="#bfbfbf" stroke="black" points="382,-235.5 382,-254.5 490,-254.5 490,-235.5 382,-235.5"/>
<text text-anchor="middle" x="436" y="-242.5" font-family="Helvetica,sans-Serif" font-size="10.00">ViennaRNA/duplex.h</text>
</g>
<!-- Node2 -->
<g id="node2" class="node"><title>Node2</title>
<g id="a_node2"><a xlink:href="data__structures_8h.html" target="_top" xlink:title="ViennaRNA/data_structures.h">
<polygon fill="none" stroke="black" points="362.5,-179.5 362.5,-198.5 509.5,-198.5 509.5,-179.5 362.5,-179.5"/>
<text text-anchor="middle" x="436" y="-186.5" font-family="Helvetica,sans-Serif" font-size="10.00">ViennaRNA/data_structures.h</text>
</a>
</g>
</g>
<!-- Node1&#45;&gt;Node2 -->
<g id="edge1" class="edge"><title>Node1&#45;&gt;Node2</title>
<path fill="none" stroke="midnightblue" d="M436,-235.083C436,-228.006 436,-217.861 436,-208.986"/>
<polygon fill="midnightblue" stroke="midnightblue" points="439.5,-208.751 436,-198.751 432.5,-208.751 439.5,-208.751"/>
</g>
<!-- Node3 -->
<g id="node3" class="node"><title>Node3</title>
<g id="a_node3"><a xlink:href="energy__const_8h.html" target="_top" xlink:title="ViennaRNA/energy_const.h">
<polygon fill="none" stroke="black" points="0,-62 0,-81 138,-81 138,-62 0,-62"/>
<text text-anchor="middle" x="69" y="-69" font-family="Helvetica,sans-Serif" font-size="10.00">ViennaRNA/energy_const.h</text>
</a>
</g>
</g>
<!-- Node2&#45;&gt;Node3 -->
<g id="edge2" class="edge"><title>Node2&#45;&gt;Node3</title>
<path fill="none" stroke="midnightblue" d="M362.319,-186.749C275.24,-183.836 137.086,-174.263 97,-143 80.9684,-130.497 74.0898,-107.437 71.155,-91.0982"/>
<polygon fill="midnightblue" stroke="midnightblue" points="74.5992,-90.4616 69.6892,-81.0732 67.6729,-91.4744 74.5992,-90.4616"/>
</g>
<!-- Node5 -->
<g id="node5" class="node"><title>Node5</title>
<g id="a_node5"><a xlink:href="model_8h.html" target="_top" xlink:title="The model details data structure and its corresponding modifiers. ">
<polygon fill="none" stroke="black" points="156,-62 156,-81 262,-81 262,-62 156,-62"/>
<text text-anchor="middle" x="209" y="-69" font-family="Helvetica,sans-Serif" font-size="10.00">ViennaRNA/model.h</text>
</a>
</g>
</g>
<!-- Node2&#45;&gt;Node5 -->
<g id="edge4" class="edge"><title>Node2&#45;&gt;Node5</title>
<path fill="none" stroke="midnightblue" d="M363.576,-179.483C331.418,-173.149 294.303,-162.132 265,-143 244.623,-129.696 228.319,-106.499 218.671,-90.3627"/>
<polygon fill="midnightblue" stroke="midnightblue" points="221.541,-88.3314 213.546,-81.3795 215.461,-91.7999 221.541,-88.3314"/>
</g>
<!-- Node6 -->
<g id="node6" class="node"><title>Node6</title>
<g id="a_node6"><a xlink:href="params_8h.html" target="_top" xlink:title="ViennaRNA/params.h">
<polygon fill="none" stroke="black" points="106,-123.5 106,-142.5 218,-142.5 218,-123.5 106,-123.5"/>
<text text-anchor="middle" x="162" y="-130.5" font-family="Helvetica,sans-Serif" font-size="10.00">ViennaRNA/params.h</text>
</a>
</g>
</g>
<!-- Node2&#45;&gt;Node6 -->
<g id="edge5" class="edge"><title>Node2&#45;&gt;Node6</title>
<path fill="none" stroke="midnightblue" d="M387.495,-179.444C337.421,-169.984 259.933,-154.738 210.035,-144.547"/>
<polygon fill="midnightblue" stroke="midnightblue" points="210.632,-141.097 200.133,-142.516 209.226,-147.954 210.632,-141.097"/>
</g>
<!-- Node7 -->
<g id="node7" class="node"><title>Node7</title>
<g id="a_node7"><a xlink:href="dp__matrices_8h.html" target="_top" xlink:title="ViennaRNA/dp_matrices.h">
<polygon fill="none" stroke="black" points="274.5,-123.5 274.5,-142.5 407.5,-142.5 407.5,-123.5 274.5,-123.5"/>
<text text-anchor="middle" x="341" y="-130.5" font-family="Helvetica,sans-Serif" font-size="10.00">ViennaRNA/dp_matrices.h</text>
</a>
</g>
</g>
<!-- Node2&#45;&gt;Node7 -->
<g id="edge9" class="edge"><title>Node2&#45;&gt;Node7</title>
<path fill="none" stroke="midnightblue" d="M415.622,-179.324C398.978,-170.9 375.934,-157.971 359.751,-148.074"/>
<polygon fill="midnightblue" stroke="midnightblue" points="361.446,-145.006 351.115,-142.655 357.725,-150.935 361.446,-145.006"/>
</g>
<!-- Node8 -->
<g id="node8" class="node"><title>Node8</title>
<g id="a_node8"><a xlink:href="constraints_8h.html" target="_top" xlink:title="Functions and data structures for constraining secondary structure predictions and evaluation...">
<polygon fill="none" stroke="black" points="502,-123.5 502,-142.5 630,-142.5 630,-123.5 502,-123.5"/>
<text text-anchor="middle" x="566" y="-130.5" font-family="Helvetica,sans-Serif" font-size="10.00">ViennaRNA/constraints.h</text>
</a>
</g>
</g>
<!-- Node2&#45;&gt;Node8 -->
<g id="edge11" class="edge"><title>Node2&#45;&gt;Node8</title>
<path fill="none" stroke="midnightblue" d="M451.51,-179.444C471.128,-170.478 505.005,-156.314 530.921,-146.183"/>
<polygon fill="midnightblue" stroke="midnightblue" points="532.349,-149.383 540.418,-142.516 529.828,-142.853 532.349,-149.383"/>
</g>
<!-- Node4 -->
<g id="node4" class="node"><title>Node4</title>
<polygon fill="none" stroke="#bfbfbf" points="45,-0.5 45,-19.5 93,-19.5 93,-0.5 45,-0.5"/>
<text text-anchor="middle" x="69" y="-7.5" font-family="Helvetica,sans-Serif" font-size="10.00">limits.h</text>
</g>
<!-- Node3&#45;&gt;Node4 -->
<g id="edge3" class="edge"><title>Node3&#45;&gt;Node4</title>
<path fill="none" stroke="midnightblue" d="M69,-61.9751C69,-53.5803 69,-40.4806 69,-29.6631"/>
<polygon fill="midnightblue" stroke="midnightblue" points="72.5001,-29.5091 69,-19.5091 65.5001,-29.5091 72.5001,-29.5091"/>
</g>
<!-- Node6&#45;&gt;Node2 -->
<g id="edge7" class="edge"><title>Node6&#45;&gt;Node2</title>
<path fill="none" stroke="midnightblue" d="M210.293,-142.516C260.289,-151.96 337.777,-167.204 387.753,-177.41"/>
<polygon fill="midnightblue" stroke="midnightblue" points="387.173,-180.863 397.673,-179.444 388.58,-174.006 387.173,-180.863"/>
</g>
<!-- Node6&#45;&gt;Node3 -->
<g id="edge6" class="edge"><title>Node6&#45;&gt;Node3</title>
<path fill="none" stroke="midnightblue" d="M148.675,-123.475C133.62,-113.843 108.884,-98.0175 90.9631,-86.5517"/>
<polygon fill="midnightblue" stroke="midnightblue" points="92.6097,-83.4501 82.2999,-81.0091 88.8372,-89.3466 92.6097,-83.4501"/>
</g>
<!-- Node6&#45;&gt;Node5 -->
<g id="edge8" class="edge"><title>Node6&#45;&gt;Node5</title>
<path fill="none" stroke="midnightblue" d="M168.734,-123.475C175.784,-114.55 187.035,-100.307 195.854,-89.1425"/>
<polygon fill="midnightblue" stroke="midnightblue" points="198.826,-91.0258 202.279,-81.0091 193.333,-86.6867 198.826,-91.0258"/>
</g>
<!-- Node7&#45;&gt;Node2 -->
<g id="edge10" class="edge"><title>Node7&#45;&gt;Node2</title>
<path fill="none" stroke="midnightblue" d="M361.336,-142.655C377.968,-151.071 401.013,-163.999 417.208,-173.901"/>
<polygon fill="midnightblue" stroke="midnightblue" points="415.521,-176.974 425.851,-179.324 419.241,-171.044 415.521,-176.974"/>
</g>
<!-- Node8&#45;&gt;Node2 -->
<g id="edge12" class="edge"><title>Node8&#45;&gt;Node2</title>
<path fill="none" stroke="midnightblue" d="M550.577,-142.516C531.002,-151.467 497.134,-165.629 471.195,-175.772"/>
<polygon fill="midnightblue" stroke="midnightblue" points="469.755,-172.576 461.688,-179.444 472.277,-179.106 469.755,-172.576"/>
</g>
<!-- Node9 -->
<g id="node9" class="node"><title>Node9</title>
<g id="a_node9"><a xlink:href="constraints__hard_8h.html" target="_top" xlink:title="Functions and data structures for handling of secondary structure hard constraints. ">
<polygon fill="none" stroke="black" points="280.5,-56.5 280.5,-86.5 399.5,-86.5 399.5,-56.5 280.5,-56.5"/>
<text text-anchor="start" x="288.5" y="-74.5" font-family="Helvetica,sans-Serif" font-size="10.00">ViennaRNA/constraints</text>
<text text-anchor="middle" x="340" y="-63.5" font-family="Helvetica,sans-Serif" font-size="10.00">_hard.h</text>
</a>
</g>
</g>
<!-- Node8&#45;&gt;Node9 -->
<g id="edge13" class="edge"><title>Node8&#45;&gt;Node9</title>
<path fill="none" stroke="midnightblue" d="M533.62,-123.475C499.65,-114.532 445.398,-100.249 402.953,-89.0738"/>
<polygon fill="midnightblue" stroke="midnightblue" points="403.825,-85.6844 393.264,-86.523 402.043,-92.4537 403.825,-85.6844"/>
</g>
<!-- Node10 -->
<g id="node10" class="node"><title>Node10</title>
<g id="a_node10"><a xlink:href="constraints__soft_8h.html" target="_top" xlink:title="Functions and data structures for secondary structure soft constraints. ">
<polygon fill="none" stroke="black" points="417.5,-56.5 417.5,-86.5 536.5,-86.5 536.5,-56.5 417.5,-56.5"/>
<text text-anchor="start" x="425.5" y="-74.5" font-family="Helvetica,sans-Serif" font-size="10.00">ViennaRNA/constraints</text>
<text text-anchor="middle" x="477" y="-63.5" font-family="Helvetica,sans-Serif" font-size="10.00">_soft.h</text>
</a>
</g>
</g>
<!-- Node8&#45;&gt;Node10 -->
<g id="edge15" class="edge"><title>Node8&#45;&gt;Node10</title>
<path fill="none" stroke="midnightblue" d="M553.248,-123.475C541.082,-115.341 522.309,-102.791 506.435,-92.1788"/>
<polygon fill="midnightblue" stroke="midnightblue" points="508.234,-89.1711 497.976,-86.523 504.344,-94.9905 508.234,-89.1711"/>
</g>
<!-- Node11 -->
<g id="node11" class="node"><title>Node11</title>
<g id="a_node11"><a xlink:href="constraints__SHAPE_8h.html" target="_top" xlink:title="This module provides function to incorporate SHAPE reactivity data into the folding recursions by mea...">
<polygon fill="none" stroke="black" points="554.5,-56.5 554.5,-86.5 673.5,-86.5 673.5,-56.5 554.5,-56.5"/>
<text text-anchor="start" x="562.5" y="-74.5" font-family="Helvetica,sans-Serif" font-size="10.00">ViennaRNA/constraints</text>
<text text-anchor="middle" x="614" y="-63.5" font-family="Helvetica,sans-Serif" font-size="10.00">_SHAPE.h</text>
</a>
</g>
</g>
<!-- Node8&#45;&gt;Node11 -->
<g id="edge17" class="edge"><title>Node8&#45;&gt;Node11</title>
<path fill="none" stroke="midnightblue" d="M572.877,-123.475C578.953,-115.944 588.083,-104.626 596.199,-94.5663"/>
<polygon fill="midnightblue" stroke="midnightblue" points="599.133,-96.5037 602.687,-86.523 593.684,-92.1085 599.133,-96.5037"/>
</g>
<!-- Node12 -->
<g id="node12" class="node"><title>Node12</title>
<g id="a_node12"><a xlink:href="perturbation__fold_8h.html" target="_top" xlink:title="Find a vector of perturbation energies that minimizes the discripancies between predicted and observe...">
<polygon fill="none" stroke="black" points="692,-56.5 692,-86.5 814,-86.5 814,-56.5 692,-56.5"/>
<text text-anchor="start" x="700" y="-74.5" font-family="Helvetica,sans-Serif" font-size="10.00">ViennaRNA/perturbation</text>
<text text-anchor="middle" x="753" y="-63.5" font-family="Helvetica,sans-Serif" font-size="10.00">_fold.h</text>
</a>
</g>
</g>
<!-- Node8&#45;&gt;Node12 -->
<g id="edge19" class="edge"><title>Node8&#45;&gt;Node12</title>
<path fill="none" stroke="midnightblue" d="M592.793,-123.475C620.486,-114.664 664.471,-100.668 699.352,-89.5698"/>
<polygon fill="midnightblue" stroke="midnightblue" points="700.46,-92.8903 708.928,-86.523 698.337,-86.2198 700.46,-92.8903"/>
</g>
<!-- Node13 -->
<g id="node13" class="node"><title>Node13</title>
<g id="a_node13"><a xlink:href="ligand_8h.html" target="_top" xlink:title="Functions for incorporation of ligands binding to haipirn and interior loop motifs. ">
<polygon fill="none" stroke="black" points="832.5,-62 832.5,-81 937.5,-81 937.5,-62 832.5,-62"/>
<text text-anchor="middle" x="885" y="-69" font-family="Helvetica,sans-Serif" font-size="10.00">ViennaRNA/ligand.h</text>
</a>
</g>
</g>
<!-- Node8&#45;&gt;Node13 -->
<g id="edge21" class="edge"><title>Node8&#45;&gt;Node13</title>
<path fill="none" stroke="midnightblue" d="M619.819,-123.483C671.933,-115.023 753.101,-101.281 823,-87 828.483,-85.8797 834.222,-84.6355 839.901,-83.3601"/>
<polygon fill="midnightblue" stroke="midnightblue" points="841.025,-86.6937 849.992,-81.0509 839.463,-79.8701 841.025,-86.6937"/>
</g>
<!-- Node9&#45;&gt;Node2 -->
<g id="edge14" class="edge"><title>Node9&#45;&gt;Node2</title>
<path fill="none" stroke="midnightblue" d="M370.785,-86.5865C386.341,-95.1195 404.341,-107.387 416,-123 426.145,-136.586 431.202,-155.384 433.686,-169.271"/>
<polygon fill="midnightblue" stroke="midnightblue" points="430.226,-169.795 435.176,-179.162 437.148,-168.753 430.226,-169.795"/>
</g>
<!-- Node10&#45;&gt;Node2 -->
<g id="edge16" class="edge"><title>Node10&#45;&gt;Node2</title>
<path fill="none" stroke="midnightblue" d="M472.014,-86.5453C464.607,-107.411 450.692,-146.612 442.496,-169.699"/>
<polygon fill="midnightblue" stroke="midnightblue" points="439.129,-168.724 439.082,-179.319 445.725,-171.066 439.129,-168.724"/>
</g>
<!-- Node11&#45;&gt;Node2 -->
<g id="edge18" class="edge"><title>Node11&#45;&gt;Node2</title>
<path fill="none" stroke="midnightblue" d="M626.315,-86.5569C638.15,-101.832 652.412,-126.289 639,-143 623.833,-161.898 568.746,-173.35 519.779,-179.97"/>
<polygon fill="midnightblue" stroke="midnightblue" points="519.227,-176.512 509.761,-181.27 520.128,-183.453 519.227,-176.512"/>
</g>
<!-- Node12&#45;&gt;Node2 -->
<g id="edge20" class="edge"><title>Node12&#45;&gt;Node2</title>
<path fill="none" stroke="midnightblue" d="M737.84,-86.7641C719.777,-102.941 688.004,-128.894 656,-143 613.066,-161.923 561.877,-172.999 519.684,-179.425"/>
<polygon fill="midnightblue" stroke="midnightblue" points="519.107,-175.972 509.718,-180.882 520.12,-182.898 519.107,-175.972"/>
</g>
<!-- Node13&#45;&gt;Node2 -->
<g id="edge22" class="edge"><title>Node13&#45;&gt;Node2</title>
<path fill="none" stroke="midnightblue" d="M864.654,-81.0613C829.302,-95.6454 753.993,-125.431 688,-143 629.239,-158.643 561.305,-170.42 510.788,-177.994"/>
<polygon fill="midnightblue" stroke="midnightblue" points="509.984,-174.574 500.604,-179.499 511.008,-181.499 509.984,-174.574"/>
</g>
</g>
</svg>
