<?xml version="1.0" encoding="UTF-8" standalone="no"?>
<!DOCTYPE svg PUBLIC "-//W3C//DTD SVG 1.1//EN"
 "http://www.w3.org/Graphics/SVG/1.1/DTD/svg11.dtd">
<!-- Generated by graphviz version 2.38.0 (20140413.2041)
 -->
<!-- Title: RNA Secondary Structure Prediction Pages: 1 -->
<svg width="320pt" height="368pt"
 viewBox="0.00 0.00 320.00 367.50" xmlns="http://www.w3.org/2000/svg" xmlns:xlink="http://www.w3.org/1999/xlink">
<g id="graph0" class="graph" transform="scale(1 1) rotate(0) translate(4 363.5)">
<title>RNA Secondary Structure Prediction</title>
<!-- Node5 -->
<g id="node1" class="node"><title>Node5</title>
<g id="a_node1"><a xlink:href="group__consensus__fold.html" target="_top" xlink:title="compute various properties (consensus MFE structures, partition function, Boltzmann distributed stoch...">
<polygon fill="none" stroke="black" points="167,-329 167,-359 312,-359 312,-329 167,-329"/>
<text text-anchor="start" x="175" y="-347" font-family="Helvetica,sans-Serif" font-size="10.00">Predicting Consensus</text>
<text text-anchor="middle" x="239.5" y="-336" font-family="Helvetica,sans-Serif" font-size="10.00"> Structures from Alignment(s)</text>
</a>
</g>
</g>
<!-- Node7 -->
<g id="node2" class="node"><title>Node7</title>
<g id="a_node2"><a xlink:href="group__class__fold.html" target="_top" xlink:title="Classified Dynamic\l Programming">
<polygon fill="none" stroke="black" points="188.5,-280 188.5,-310 290.5,-310 290.5,-280 188.5,-280"/>
<text text-anchor="start" x="196.5" y="-298" font-family="Helvetica,sans-Serif" font-size="10.00">Classified Dynamic</text>
<text text-anchor="middle" x="239.5" y="-287" font-family="Helvetica,sans-Serif" font-size="10.00"> Programming</text>
</a>
</g>
</g>
<!-- Node2 -->
<g id="node3" class="node"><title>Node2</title>
<g id="a_node3"><a xlink:href="group__pf__fold.html" target="_top" xlink:title="This section provides information about all functions and variables related to the calculation of the...">
<polygon fill="none" stroke="black" points="188,-219.5 188,-260.5 291,-260.5 291,-219.5 188,-219.5"/>
<text text-anchor="start" x="196" y="-248.5" font-family="Helvetica,sans-Serif" font-size="10.00">Computing Partition</text>
<text text-anchor="start" x="196" y="-237.5" font-family="Helvetica,sans-Serif" font-size="10.00"> Functions and Pair</text>
<text text-anchor="middle" x="239.5" y="-226.5" font-family="Helvetica,sans-Serif" font-size="10.00"> Probabilities</text>
</a>
</g>
</g>
<!-- Node6 -->
<g id="node4" class="node"><title>Node6</title>
<g id="a_node4"><a xlink:href="group__local__fold.html" target="_top" xlink:title="Predicting Locally\l stable structures of\l large sequences">
<polygon fill="none" stroke="black" points="187.5,-159.5 187.5,-200.5 291.5,-200.5 291.5,-159.5 187.5,-159.5"/>
<text text-anchor="start" x="195.5" y="-188.5" font-family="Helvetica,sans-Serif" font-size="10.00">Predicting Locally</text>
<text text-anchor="start" x="195.5" y="-177.5" font-family="Helvetica,sans-Serif" font-size="10.00"> stable structures of</text>
<text text-anchor="middle" x="239.5" y="-166.5" font-family="Helvetica,sans-Serif" font-size="10.00"> large sequences</text>
</a>
</g>
</g>
<!-- Node3 -->
<g id="node5" class="node"><title>Node3</title>
<g id="a_node5"><a xlink:href="group__subopt__fold.html" target="_top" xlink:title="Enumerating Suboptimal\l Structures">
<polygon fill="none" stroke="black" points="178,-110 178,-140 301,-140 301,-110 178,-110"/>
<text text-anchor="start" x="186" y="-128" font-family="Helvetica,sans-Serif" font-size="10.00">Enumerating Suboptimal</text>
<text text-anchor="middle" x="239.5" y="-117" font-family="Helvetica,sans-Serif" font-size="10.00"> Structures</text>
</a>
</g>
</g>
<!-- Node1 -->
<g id="node6" class="node"><title>Node1</title>
<g id="a_node6"><a xlink:href="group__mfe__fold.html" target="_top" xlink:title="This section covers all functions and variables related to the calculation of minimum free energy (MF...">
<polygon fill="none" stroke="black" points="175,-61 175,-91 304,-91 304,-61 175,-61"/>
<text text-anchor="start" x="183" y="-79" font-family="Helvetica,sans-Serif" font-size="10.00">Computing Minimum Free</text>
<text text-anchor="middle" x="239.5" y="-68" font-family="Helvetica,sans-Serif" font-size="10.00"> Energy (MFE) Structures</text>
</a>
</g>
</g>
<!-- Node0 -->
<g id="node7" class="node"><title>Node0</title>
<polygon fill="#bfbfbf" stroke="black" points="0,-165 0,-195 131,-195 131,-165 0,-165"/>
<text text-anchor="start" x="8" y="-183" font-family="Helvetica,sans-Serif" font-size="10.00">RNA Secondary Structure</text>
<text text-anchor="middle" x="65.5" y="-172" font-family="Helvetica,sans-Serif" font-size="10.00"> Prediction</text>
</g>
<!-- Node0&#45;&gt;Node5 -->
<g id="edge5" class="edge"><title>Node0&#45;&gt;Node5</title>
<path fill="none" stroke="black" d="M77.8958,-204.29C93.6866,-235.419 125.082,-289.049 167,-320 171.635,-323.422 176.789,-326.377 182.146,-328.924"/>
<polygon fill="black" stroke="black" points="80.8896,-202.448 73.3237,-195.031 74.6132,-205.547 80.8896,-202.448"/>
</g>
<!-- Node0&#45;&gt;Node7 -->
<g id="edge7" class="edge"><title>Node0&#45;&gt;Node7</title>
<path fill="none" stroke="black" d="M86.6756,-202.552C105.689,-222.633 135.841,-251.603 167,-270 173.568,-273.878 180.83,-277.282 188.134,-280.227"/>
<polygon fill="black" stroke="black" points="89.0901,-200.008 79.7167,-195.07 83.9646,-204.776 89.0901,-200.008"/>
</g>
<!-- Node0&#45;&gt;Node2 -->
<g id="edge2" class="edge"><title>Node0&#45;&gt;Node2</title>
<path fill="none" stroke="black" d="M119.621,-198.53C141.329,-206.103 166.327,-214.823 187.781,-222.307"/>
<polygon fill="black" stroke="black" points="120.498,-195.13 109.903,-195.141 118.192,-201.739 120.498,-195.13"/>
</g>
<!-- Node0&#45;&gt;Node6 -->
<g id="edge6" class="edge"><title>Node0&#45;&gt;Node6</title>
<path fill="none" stroke="black" d="M141.172,-180C156.742,-180 172.815,-180 187.303,-180"/>
<polygon fill="black" stroke="black" points="141.036,-176.5 131.036,-180 141.036,-183.5 141.036,-176.5"/>
</g>
<!-- Node0&#45;&gt;Node3 -->
<g id="edge3" class="edge"><title>Node0&#45;&gt;Node3</title>
<path fill="none" stroke="black" d="M123.125,-161.893C145.294,-154.804 170.423,-146.769 191.557,-140.011"/>
<polygon fill="black" stroke="black" points="121.959,-158.591 113.5,-164.971 124.091,-165.259 121.959,-158.591"/>
</g>
<!-- Node0&#45;&gt;Node1 -->
<g id="edge1" class="edge"><title>Node0&#45;&gt;Node1</title>
<path fill="none" stroke="black" d="M89.824,-157.989C109.241,-140.611 138.262,-116.747 167,-101 173.804,-97.2717 181.27,-93.934 188.73,-91.0049"/>
<polygon fill="black" stroke="black" points="87.4161,-155.448 82.3711,-164.764 92.1248,-160.627 87.4161,-155.448"/>
</g>
<!-- Node4 -->
<g id="node8" class="node"><title>Node4</title>
<g id="a_node8"><a xlink:href="group__cofold.html" target="_top" xlink:title="Predict structures formed by two molecules upon hybridization. ">
<polygon fill="none" stroke="black" points="177,-0.5 177,-41.5 302,-41.5 302,-0.5 177,-0.5"/>
<text text-anchor="start" x="185" y="-29.5" font-family="Helvetica,sans-Serif" font-size="10.00">Calculate Secondary</text>
<text text-anchor="start" x="185" y="-18.5" font-family="Helvetica,sans-Serif" font-size="10.00"> Structures of two RNAs</text>
<text text-anchor="middle" x="239.5" y="-7.5" font-family="Helvetica,sans-Serif" font-size="10.00"> upon Dimerization</text>
</a>
</g>
</g>
<!-- Node0&#45;&gt;Node4 -->
<g id="edge4" class="edge"><title>Node0&#45;&gt;Node4</title>
<path fill="none" stroke="black" d="M80.0893,-156.206C97.2046,-128.05 129.016,-81.3061 167,-52 171.928,-48.1983 177.393,-44.7618 183.043,-41.6822"/>
<polygon fill="black" stroke="black" points="76.9683,-154.606 74.8607,-164.989 82.9833,-158.187 76.9683,-154.606"/>
</g>
</g>
</svg>
