<?xml version="1.0" encoding="UTF-8" standalone="no"?>
<!DOCTYPE svg PUBLIC "-//W3C//DTD SVG 1.1//EN"
 "http://www.w3.org/Graphics/SVG/1.1/DTD/svg11.dtd">
<!-- Generated by graphviz version 2.38.0 (20140413.2041)
 -->
<!-- Title: Constraining the Secondary Structure Predictions and Evaluations Pages: 1 -->
<svg width="314pt" height="225pt"
 viewBox="0.00 0.00 314.00 224.50" xmlns="http://www.w3.org/2000/svg" xmlns:xlink="http://www.w3.org/1999/xlink">
<g id="graph0" class="graph" transform="scale(1 1) rotate(0) translate(4 220.5)">
<title>Constraining the Secondary Structure Predictions and Evaluations</title>
<!-- Node5 -->
<g id="node1" class="node"><title>Node5</title>
<g id="a_node1"><a xlink:href="group__perturbation.html" target="_top" xlink:title="Find a vector of perturbation energies that minimizes the discripancies between predicted and observe...">
<polygon fill="none" stroke="black" points="176,-186 176,-216 303,-216 303,-186 176,-186"/>
<text text-anchor="start" x="184" y="-204" font-family="Helvetica,sans-Serif" font-size="10.00">Generate soft constraints</text>
<text text-anchor="middle" x="239.5" y="-193" font-family="Helvetica,sans-Serif" font-size="10.00"> from data</text>
</a>
</g>
</g>
<!-- Node0 -->
<g id="node2" class="node"><title>Node0</title>
<polygon fill="#bfbfbf" stroke="black" points="0,-76.5 0,-117.5 137,-117.5 137,-76.5 0,-76.5"/>
<text text-anchor="start" x="8" y="-105.5" font-family="Helvetica,sans-Serif" font-size="10.00">Constraining the Secondary</text>
<text text-anchor="start" x="8" y="-94.5" font-family="Helvetica,sans-Serif" font-size="10.00"> Structure Predictions and</text>
<text text-anchor="middle" x="68.5" y="-83.5" font-family="Helvetica,sans-Serif" font-size="10.00"> Evaluations</text>
</g>
<!-- Node0&#45;&gt;Node5 -->
<g id="edge5" class="edge"><title>Node0&#45;&gt;Node5</title>
<path fill="none" stroke="black" d="M99.644,-124.319C119.416,-141.186 146.442,-162.331 173,-177 178.937,-180.279 185.41,-183.272 191.902,-185.947"/>
<polygon fill="black" stroke="black" points="101.756,-121.518 91.9046,-117.618 97.1742,-126.81 101.756,-121.518"/>
</g>
<!-- Node3 -->
<g id="node3" class="node"><title>Node3</title>
<g id="a_node3"><a xlink:href="group__SHAPE__reactivities.html" target="_top" xlink:title="Incorporate SHAPE reactivity structure probing data into the folding recursions by means of soft cons...">
<polygon fill="none" stroke="black" points="184.5,-137 184.5,-167 294.5,-167 294.5,-137 184.5,-137"/>
<text text-anchor="start" x="192.5" y="-155" font-family="Helvetica,sans-Serif" font-size="10.00">Incorporating SHAPE</text>
<text text-anchor="middle" x="239.5" y="-144" font-family="Helvetica,sans-Serif" font-size="10.00"> reactivity data</text>
</a>
</g>
</g>
<!-- Node0&#45;&gt;Node3 -->
<g id="edge3" class="edge"><title>Node0&#45;&gt;Node3</title>
<path fill="none" stroke="black" d="M142.702,-120.823C159.486,-126.285 176.876,-131.945 192.158,-136.918"/>
<polygon fill="black" stroke="black" points="143.502,-117.403 132.91,-117.636 141.336,-124.059 143.502,-117.403"/>
</g>
<!-- Node4 -->
<g id="node4" class="node"><title>Node4</title>
<g id="a_node4"><a xlink:href="group__ligands.html" target="_top" xlink:title="This module covers functions that enable the incorporation of ligand binding free energies to specifi...">
<polygon fill="none" stroke="black" points="173,-76.5 173,-117.5 306,-117.5 306,-76.5 173,-76.5"/>
<text text-anchor="start" x="181" y="-105.5" font-family="Helvetica,sans-Serif" font-size="10.00">Incorporating ligands</text>
<text text-anchor="start" x="181" y="-94.5" font-family="Helvetica,sans-Serif" font-size="10.00"> binding to specific</text>
<text text-anchor="middle" x="239.5" y="-83.5" font-family="Helvetica,sans-Serif" font-size="10.00"> sequence/structure motifs</text>
</a>
</g>
</g>
<!-- Node0&#45;&gt;Node4 -->
<g id="edge4" class="edge"><title>Node0&#45;&gt;Node4</title>
<path fill="none" stroke="black" d="M147.268,-97C155.844,-97 164.513,-97 172.918,-97"/>
<polygon fill="black" stroke="black" points="147.265,-93.5001 137.265,-97 147.265,-100.5 147.265,-93.5001"/>
</g>
<!-- Node2 -->
<g id="node5" class="node"><title>Node2</title>
<g id="a_node5"><a xlink:href="group__soft__constraints.html" target="_top" xlink:title="Functions and data structures for secondary structure soft constraints. ">
<polygon fill="none" stroke="black" points="195.5,-38.5 195.5,-57.5 283.5,-57.5 283.5,-38.5 195.5,-38.5"/>
<text text-anchor="middle" x="239.5" y="-45.5" font-family="Helvetica,sans-Serif" font-size="10.00">Soft Constraints</text>
</a>
</g>
</g>
<!-- Node0&#45;&gt;Node2 -->
<g id="edge2" class="edge"><title>Node0&#45;&gt;Node2</title>
<path fill="none" stroke="black" d="M146.989,-74.5329C167.584,-68.5614 188.739,-62.4278 205.514,-57.564"/>
<polygon fill="black" stroke="black" points="145.895,-71.2058 137.265,-77.3522 147.844,-77.9289 145.895,-71.2058"/>
</g>
<!-- Node1 -->
<g id="node6" class="node"><title>Node1</title>
<g id="a_node6"><a xlink:href="group__hard__constraints.html" target="_top" xlink:title="This module covers all functionality for hard constraints in secondary structure prediction. ">
<polygon fill="none" stroke="black" points="194,-0.5 194,-19.5 285,-19.5 285,-0.5 194,-0.5"/>
<text text-anchor="middle" x="239.5" y="-7.5" font-family="Helvetica,sans-Serif" font-size="10.00">Hard Constraints</text>
</a>
</g>
</g>
<!-- Node0&#45;&gt;Node1 -->
<g id="edge1" class="edge"><title>Node0&#45;&gt;Node1</title>
<path fill="none" stroke="black" d="M104.097,-70.4956C123.519,-56.6093 148.677,-40.2084 173,-29 180.958,-25.3331 189.788,-22.1985 198.321,-19.5949"/>
<polygon fill="black" stroke="black" points="101.907,-67.761 95.8735,-76.4703 106.021,-73.4242 101.907,-67.761"/>
</g>
</g>
</svg>
