<?xml version="1.0" encoding="UTF-8" standalone="no"?>
<!DOCTYPE svg PUBLIC "-//W3C//DTD SVG 1.1//EN"
 "http://www.w3.org/Graphics/SVG/1.1/DTD/svg11.dtd">
<!-- Generated by graphviz version 2.38.0 (20140413.2041)
 -->
<!-- Title: Calculate Secondary Structures of two RNAs upon Dimerization Pages: 1 -->
<svg width="468pt" height="171pt"
 viewBox="0.00 0.00 468.00 170.50" xmlns="http://www.w3.org/2000/svg" xmlns:xlink="http://www.w3.org/1999/xlink">
<g id="graph0" class="graph" transform="scale(1 1) rotate(0) translate(4 166.5)">
<title>Calculate Secondary Structures of two RNAs upon Dimerization</title>
<!-- Node4 -->
<g id="node1" class="node"><title>Node4</title>
<g id="a_node1"><a xlink:href="group__up__cofold.html" target="_top" xlink:title="Partition Function Cofolding as a stepwise process. ">
<polygon fill="none" stroke="black" points="328,-110 328,-162 460,-162 460,-110 328,-110"/>
<text text-anchor="start" x="336" y="-150" font-family="Helvetica,sans-Serif" font-size="10.00">Partition Function</text>
<text text-anchor="start" x="336" y="-139" font-family="Helvetica,sans-Serif" font-size="10.00"> for two hybridized</text>
<text text-anchor="start" x="336" y="-128" font-family="Helvetica,sans-Serif" font-size="10.00"> Sequences as a stepwise</text>
<text text-anchor="middle" x="394" y="-117" font-family="Helvetica,sans-Serif" font-size="10.00"> Process</text>
</a>
</g>
</g>
<!-- Node2 -->
<g id="node2" class="node"><title>Node2</title>
<g id="a_node2"><a xlink:href="group__mfe__cofold.html" target="_top" xlink:title="MFE Structures of two\l hybridized Sequences">
<polygon fill="none" stroke="black" points="336,-61 336,-91 452,-91 452,-61 336,-61"/>
<text text-anchor="start" x="344" y="-79" font-family="Helvetica,sans-Serif" font-size="10.00">MFE Structures of two</text>
<text text-anchor="middle" x="394" y="-68" font-family="Helvetica,sans-Serif" font-size="10.00"> hybridized Sequences</text>
</a>
</g>
</g>
<!-- Node1 -->
<g id="node3" class="node"><title>Node1</title>
<g id="a_node3"><a xlink:href="group__folding__routines.html" target="_top" xlink:title="This module contains all functions related to thermodynamic folding of RNAs. ">
<polygon fill="none" stroke="black" points="0,-61 0,-91 131,-91 131,-61 0,-61"/>
<text text-anchor="start" x="8" y="-79" font-family="Helvetica,sans-Serif" font-size="10.00">RNA Secondary Structure</text>
<text text-anchor="middle" x="65.5" y="-68" font-family="Helvetica,sans-Serif" font-size="10.00"> Prediction</text>
</a>
</g>
</g>
<!-- Node0 -->
<g id="node4" class="node"><title>Node0</title>
<polygon fill="#bfbfbf" stroke="black" points="167,-55.5 167,-96.5 292,-96.5 292,-55.5 167,-55.5"/>
<text text-anchor="start" x="175" y="-84.5" font-family="Helvetica,sans-Serif" font-size="10.00">Calculate Secondary</text>
<text text-anchor="start" x="175" y="-73.5" font-family="Helvetica,sans-Serif" font-size="10.00"> Structures of two RNAs</text>
<text text-anchor="middle" x="229.5" y="-62.5" font-family="Helvetica,sans-Serif" font-size="10.00"> upon Dimerization</text>
</g>
<!-- Node1&#45;&gt;Node0 -->
<g id="edge1" class="edge"><title>Node1&#45;&gt;Node0</title>
<path fill="none" stroke="black" d="M141.703,-76C150.156,-76 158.694,-76 166.946,-76"/>
<polygon fill="black" stroke="black" points="141.458,-72.5001 131.458,-76 141.458,-79.5001 141.458,-72.5001"/>
</g>
<!-- Node0&#45;&gt;Node4 -->
<g id="edge4" class="edge"><title>Node0&#45;&gt;Node4</title>
<path fill="none" stroke="black" d="M295.928,-100.158C306.413,-104.029 317.264,-108.036 327.745,-111.906"/>
<polygon fill="black" stroke="black" points="297.017,-96.8291 286.423,-96.6486 294.592,-103.396 297.017,-96.8291"/>
</g>
<!-- Node0&#45;&gt;Node2 -->
<g id="edge2" class="edge"><title>Node0&#45;&gt;Node2</title>
<path fill="none" stroke="black" d="M302.54,-76C313.682,-76 325.058,-76 335.815,-76"/>
<polygon fill="black" stroke="black" points="302.398,-72.5001 292.398,-76 302.398,-79.5001 302.398,-72.5001"/>
</g>
<!-- Node3 -->
<g id="node5" class="node"><title>Node3</title>
<g id="a_node5"><a xlink:href="group__pf__cofold.html" target="_top" xlink:title="Partition Function Cofolding. ">
<polygon fill="none" stroke="black" points="345.5,-0.5 345.5,-41.5 442.5,-41.5 442.5,-0.5 345.5,-0.5"/>
<text text-anchor="start" x="353.5" y="-29.5" font-family="Helvetica,sans-Serif" font-size="10.00">Partition Function</text>
<text text-anchor="start" x="353.5" y="-18.5" font-family="Helvetica,sans-Serif" font-size="10.00"> for two hybridized</text>
<text text-anchor="middle" x="394" y="-7.5" font-family="Helvetica,sans-Serif" font-size="10.00"> Sequences</text>
</a>
</g>
</g>
<!-- Node0&#45;&gt;Node3 -->
<g id="edge3" class="edge"><title>Node0&#45;&gt;Node3</title>
<path fill="none" stroke="black" d="M301.197,-52.0718C316.136,-47.0157 331.558,-41.7956 345.399,-37.1111"/>
<polygon fill="black" stroke="black" points="299.821,-48.8423 291.471,-55.3635 302.066,-55.4728 299.821,-48.8423"/>
</g>
</g>
</svg>
