<?xml version="1.0" encoding="UTF-8" standalone="no"?>
<!DOCTYPE svg PUBLIC "-//W3C//DTD SVG 1.1//EN"
 "http://www.w3.org/Graphics/SVG/1.1/DTD/svg11.dtd">
<!-- Generated by graphviz version 2.38.0 (20140413.2041)
 -->
<!-- Title: ViennaRNA/interior_loops.h Pages: 1 -->
<!--zoomable 397 -->
<svg id="main" version="1.1" xmlns="http://www.w3.org/2000/svg" xmlns:xlink="http://www.w3.org/1999/xlink" xml:space="preserve" onload="init(evt)">
<style type="text/css"><![CDATA[
.edge:hover path { stroke: red; }
.edge:hover polygon { stroke: red; fill: red; }
]]></style>
<script type="text/javascript"><![CDATA[
var edges = document.getElementsByTagName('g');
if (edges && edges.length) {
  for (var i=0;i<edges.length;i++) {
    if (edges[i].id.substr(0,4)=='edge') {
      edges[i].setAttribute('class','edge');
    }
  }
}
]]></script>
        <defs>
                <circle id="rim" cx="0" cy="0" r="7"/>
                <circle id="rim2" cx="0" cy="0" r="3.5"/>
                <g id="zoomPlus">
                        <use xlink:href="#rim" fill="#404040">
                                <set attributeName="fill" to="#808080" begin="zoomplus.mouseover" end="zoomplus.mouseout"/>
                        </use>
                        <path d="M-4,0h8M0,-4v8" fill="none" stroke="white" stroke-width="1.5" pointer-events="none"/>
                </g>
                <g id="zoomMin">
                        <use xlink:href="#rim" fill="#404040">
                                <set attributeName="fill" to="#808080" begin="zoomminus.mouseover" end="zoomminus.mouseout"/>
                        </use>
                        <path d="M-4,0h8" fill="none" stroke="white" stroke-width="1.5" pointer-events="none"/>
                </g>
                <g id="dirArrow">
                        <path fill="none" stroke="white" stroke-width="1.5" d="M0,-3.0v7 M-2.5,-0.5L0,-3.0L2.5,-0.5"/>
                </g>
               <g id="resetDef">
                       <use xlink:href="#rim2" fill="#404040">
                               <set attributeName="fill" to="#808080" begin="reset.mouseover" end="reset.mouseout"/>
                       </use>
               </g>
        </defs>

<script type="text/javascript">
var viewWidth = 985;
var viewHeight = 397;
var sectionId = 'dynsection-0';
</script>
<script xlink:href="svgpan.js"/>
<svg id="graph" class="graph">
<g id="viewport">
<title>ViennaRNA/interior_loops.h</title>
<!-- Node1 -->
<g id="node1" class="node"><title>Node1</title>
<polygon fill="#bfbfbf" stroke="black" points="569.5,-358.5 569.5,-388.5 670.5,-388.5 670.5,-358.5 569.5,-358.5"/>
<text text-anchor="start" x="577.5" y="-376.5" font-family="Helvetica,sans-Serif" font-size="10.00">ViennaRNA/interior</text>
<text text-anchor="middle" x="620" y="-365.5" font-family="Helvetica,sans-Serif" font-size="10.00">_loops.h</text>
</g>
<!-- Node2 -->
<g id="node2" class="node"><title>Node2</title>
<g id="a_node2"><a xlink:href="utils_8h.html" target="_top" xlink:title="General utility&#45; and helper&#45;functions used throughout the ViennaRNA Package. ">
<polygon fill="none" stroke="black" points="571,-302.5 571,-321.5 669,-321.5 669,-302.5 571,-302.5"/>
<text text-anchor="middle" x="620" y="-309.5" font-family="Helvetica,sans-Serif" font-size="10.00">ViennaRNA/utils.h</text>
</a>
</g>
</g>
<!-- Node1&#45;&gt;Node2 -->
<g id="edge1" class="edge"><title>Node1&#45;&gt;Node2</title>
<path fill="none" stroke="midnightblue" d="M620,-358.399C620,-350.466 620,-340.458 620,-331.858"/>
<polygon fill="midnightblue" stroke="midnightblue" points="623.5,-331.658 620,-321.658 616.5,-331.658 623.5,-331.658"/>
</g>
<!-- Node4 -->
<g id="node4" class="node"><title>Node4</title>
<g id="a_node4"><a xlink:href="data__structures_8h.html" target="_top" xlink:title="ViennaRNA/data_structures.h">
<polygon fill="none" stroke="black" points="407.5,-179.5 407.5,-198.5 554.5,-198.5 554.5,-179.5 407.5,-179.5"/>
<text text-anchor="middle" x="481" y="-186.5" font-family="Helvetica,sans-Serif" font-size="10.00">ViennaRNA/data_structures.h</text>
</a>
</g>
</g>
<!-- Node1&#45;&gt;Node4 -->
<g id="edge34" class="edge"><title>Node1&#45;&gt;Node4</title>
<path fill="none" stroke="midnightblue" d="M569.246,-363.787C516.826,-351.789 437.665,-324.6 401,-266 393.692,-254.32 394.044,-246.893 401,-235 409.861,-219.85 425.905,-209.406 441.312,-202.424"/>
<polygon fill="midnightblue" stroke="midnightblue" points="442.854,-205.573 450.753,-198.512 440.175,-199.106 442.854,-205.573"/>
</g>
<!-- Node8 -->
<g id="node8" class="node"><title>Node8</title>
<g id="a_node8"><a xlink:href="params_8h.html" target="_top" xlink:title="ViennaRNA/params.h">
<polygon fill="none" stroke="black" points="699,-123.5 699,-142.5 811,-142.5 811,-123.5 699,-123.5"/>
<text text-anchor="middle" x="755" y="-130.5" font-family="Helvetica,sans-Serif" font-size="10.00">ViennaRNA/params.h</text>
</a>
</g>
</g>
<!-- Node1&#45;&gt;Node8 -->
<g id="edge35" class="edge"><title>Node1&#45;&gt;Node8</title>
<path fill="none" stroke="midnightblue" d="M644.566,-358.485C686.307,-333.044 769.6,-274.806 801,-199 808.812,-180.141 792.309,-161.413 776.941,-148.939"/>
<polygon fill="midnightblue" stroke="midnightblue" points="778.769,-145.933 768.682,-142.691 774.546,-151.515 778.769,-145.933"/>
</g>
<!-- Node10 -->
<g id="node10" class="node"><title>Node10</title>
<g id="a_node10"><a xlink:href="constraints_8h.html" target="_top" xlink:title="Functions and data structures for constraining secondary structure predictions and evaluation...">
<polygon fill="none" stroke="black" points="249,-123.5 249,-142.5 377,-142.5 377,-123.5 249,-123.5"/>
<text text-anchor="middle" x="313" y="-130.5" font-family="Helvetica,sans-Serif" font-size="10.00">ViennaRNA/constraints.h</text>
</a>
</g>
</g>
<!-- Node1&#45;&gt;Node10 -->
<g id="edge36" class="edge"><title>Node1&#45;&gt;Node10</title>
<path fill="none" stroke="midnightblue" d="M569.439,-368.534C528.889,-363.237 472.149,-350.869 431,-322 368.982,-278.49 332.628,-190.936 319.095,-152.644"/>
<polygon fill="midnightblue" stroke="midnightblue" points="322.29,-151.17 315.752,-142.834 315.665,-153.428 322.29,-151.17"/>
</g>
<!-- Node19 -->
<g id="node19" class="node"><title>Node19</title>
<g id="a_node19"><a xlink:href="energy__par_8h_source.html" target="_top" xlink:title="ViennaRNA/energy_par.h">
<polygon fill="none" stroke="black" points="849,-302.5 849,-321.5 977,-321.5 977,-302.5 849,-302.5"/>
<text text-anchor="middle" x="913" y="-309.5" font-family="Helvetica,sans-Serif" font-size="10.00">ViennaRNA/energy_par.h</text>
</a>
</g>
</g>
<!-- Node1&#45;&gt;Node19 -->
<g id="edge32" class="edge"><title>Node1&#45;&gt;Node19</title>
<path fill="none" stroke="midnightblue" d="M670.702,-362.204C723.942,-351.392 807.241,-334.477 860.973,-323.565"/>
<polygon fill="midnightblue" stroke="midnightblue" points="861.874,-326.954 870.978,-321.534 860.481,-320.094 861.874,-326.954"/>
</g>
<!-- Node3 -->
<g id="node3" class="node"><title>Node3</title>
<polygon fill="none" stroke="#bfbfbf" points="602,-179.5 602,-198.5 648,-198.5 648,-179.5 602,-179.5"/>
<text text-anchor="middle" x="625" y="-186.5" font-family="Helvetica,sans-Serif" font-size="10.00">stdio.h</text>
</g>
<!-- Node2&#45;&gt;Node3 -->
<g id="edge2" class="edge"><title>Node2&#45;&gt;Node3</title>
<path fill="none" stroke="midnightblue" d="M641.483,-302.36C656.392,-295.09 675.111,-283.117 684,-266 690.35,-253.773 690.112,-247.348 684,-235 677.397,-221.659 664.735,-211.194 652.829,-203.726"/>
<polygon fill="midnightblue" stroke="midnightblue" points="654.391,-200.587 643.984,-198.602 650.882,-206.643 654.391,-200.587"/>
</g>
<!-- Node2&#45;&gt;Node4 -->
<g id="edge3" class="edge"><title>Node2&#45;&gt;Node4</title>
<path fill="none" stroke="midnightblue" d="M570.587,-307.43C514.982,-302.265 429.808,-290.502 410,-266 401.338,-255.285 403.359,-247.072 410,-235 417.887,-220.663 432.486,-210.253 446.403,-203.079"/>
<polygon fill="midnightblue" stroke="midnightblue" points="448.292,-206.058 455.839,-198.622 445.302,-199.728 448.292,-206.058"/>
</g>
<!-- Node16 -->
<g id="node16" class="node"><title>Node16</title>
<g id="a_node16"><a xlink:href="string__utils_8h.html" target="_top" xlink:title="General utility&#45; and helper&#45;functions for RNA sequence and structure strings used throughout the Vien...">
<polygon fill="none" stroke="black" points="419.5,-241 419.5,-260 546.5,-260 546.5,-241 419.5,-241"/>
<text text-anchor="middle" x="483" y="-248" font-family="Helvetica,sans-Serif" font-size="10.00">ViennaRNA/string_utils.h</text>
</a>
</g>
</g>
<!-- Node2&#45;&gt;Node16 -->
<g id="edge25" class="edge"><title>Node2&#45;&gt;Node16</title>
<path fill="none" stroke="midnightblue" d="M600.371,-302.475C577.176,-292.401 538.381,-275.553 511.787,-264.002"/>
<polygon fill="midnightblue" stroke="midnightblue" points="513.159,-260.782 502.592,-260.009 510.37,-267.203 513.159,-260.782"/>
</g>
<!-- Node17 -->
<g id="node17" class="node"><title>Node17</title>
<g id="a_node17"><a xlink:href="structure__utils_8h.html" target="_top" xlink:title="Various utility&#45; and helper&#45;functions for secondary structure parsing, converting, etc. ">
<polygon fill="none" stroke="black" points="565,-235.5 565,-265.5 675,-265.5 675,-235.5 565,-235.5"/>
<text text-anchor="start" x="573" y="-253.5" font-family="Helvetica,sans-Serif" font-size="10.00">ViennaRNA/structure</text>
<text text-anchor="middle" x="620" y="-242.5" font-family="Helvetica,sans-Serif" font-size="10.00">_utils.h</text>
</a>
</g>
</g>
<!-- Node2&#45;&gt;Node17 -->
<g id="edge27" class="edge"><title>Node2&#45;&gt;Node17</title>
<path fill="none" stroke="midnightblue" d="M620,-302.475C620,-295.471 620,-285.192 620,-275.696"/>
<polygon fill="midnightblue" stroke="midnightblue" points="623.5,-275.523 620,-265.523 616.5,-275.523 623.5,-275.523"/>
</g>
<!-- Node18 -->
<g id="node18" class="node"><title>Node18</title>
<g id="a_node18"><a xlink:href="alphabet_8h.html" target="_top" xlink:title="Functions to process, convert, and generally handle different nucleotide and/or base pair alphabets...">
<polygon fill="none" stroke="black" points="676,-179.5 676,-198.5 792,-198.5 792,-179.5 676,-179.5"/>
<text text-anchor="middle" x="734" y="-186.5" font-family="Helvetica,sans-Serif" font-size="10.00">ViennaRNA/alphabet.h</text>
</a>
</g>
</g>
<!-- Node2&#45;&gt;Node18 -->
<g id="edge30" class="edge"><title>Node2&#45;&gt;Node18</title>
<path fill="none" stroke="midnightblue" d="M644.38,-302.397C662.082,-295.084 685.545,-283.039 701,-266 715.919,-249.552 724.845,-225.304 729.581,-208.645"/>
<polygon fill="midnightblue" stroke="midnightblue" points="733.086,-209.072 732.212,-198.513 726.311,-207.312 733.086,-209.072"/>
</g>
<!-- Node5 -->
<g id="node5" class="node"><title>Node5</title>
<g id="a_node5"><a xlink:href="energy__const_8h.html" target="_top" xlink:title="ViennaRNA/energy_const.h">
<polygon fill="none" stroke="black" points="808,-62 808,-81 946,-81 946,-62 808,-62"/>
<text text-anchor="middle" x="877" y="-69" font-family="Helvetica,sans-Serif" font-size="10.00">ViennaRNA/energy_const.h</text>
</a>
</g>
</g>
<!-- Node4&#45;&gt;Node5 -->
<g id="edge4" class="edge"><title>Node4&#45;&gt;Node5</title>
<path fill="none" stroke="midnightblue" d="M554.535,-181.154C647.251,-172.073 797.349,-155.713 820,-143 841.596,-130.879 858.178,-107.026 867.751,-90.4405"/>
<polygon fill="midnightblue" stroke="midnightblue" points="871.064,-91.6768 872.788,-81.2231 864.921,-88.32 871.064,-91.6768"/>
</g>
<!-- Node7 -->
<g id="node7" class="node"><title>Node7</title>
<g id="a_node7"><a xlink:href="model_8h.html" target="_top" xlink:title="The model details data structure and its corresponding modifiers. ">
<polygon fill="none" stroke="black" points="684,-62 684,-81 790,-81 790,-62 684,-62"/>
<text text-anchor="middle" x="737" y="-69" font-family="Helvetica,sans-Serif" font-size="10.00">ViennaRNA/model.h</text>
</a>
</g>
</g>
<!-- Node4&#45;&gt;Node7 -->
<g id="edge6" class="edge"><title>Node4&#45;&gt;Node7</title>
<path fill="none" stroke="midnightblue" d="M536.762,-179.47C571.043,-172.74 615.12,-161.349 651,-143 678.518,-128.927 705.252,-104.884 721.42,-88.845"/>
<polygon fill="midnightblue" stroke="midnightblue" points="724.342,-90.8654 728.86,-81.2821 719.352,-85.9563 724.342,-90.8654"/>
</g>
<!-- Node4&#45;&gt;Node8 -->
<g id="edge7" class="edge"><title>Node4&#45;&gt;Node8</title>
<path fill="none" stroke="midnightblue" d="M519.327,-179.444C565.443,-169.944 643.122,-154.611 696.669,-144.42"/>
<polygon fill="midnightblue" stroke="midnightblue" points="697.534,-147.818 706.707,-142.516 696.23,-140.941 697.534,-147.818"/>
</g>
<!-- Node9 -->
<g id="node9" class="node"><title>Node9</title>
<g id="a_node9"><a xlink:href="dp__matrices_8h.html" target="_top" xlink:title="ViennaRNA/dp_matrices.h">
<polygon fill="none" stroke="black" points="509.5,-123.5 509.5,-142.5 642.5,-142.5 642.5,-123.5 509.5,-123.5"/>
<text text-anchor="middle" x="576" y="-130.5" font-family="Helvetica,sans-Serif" font-size="10.00">ViennaRNA/dp_matrices.h</text>
</a>
</g>
</g>
<!-- Node4&#45;&gt;Node9 -->
<g id="edge11" class="edge"><title>Node4&#45;&gt;Node9</title>
<path fill="none" stroke="midnightblue" d="M491.149,-179.324C504.448,-170.703 527.646,-157.364 546.531,-147.386"/>
<polygon fill="midnightblue" stroke="midnightblue" points="548.395,-150.362 555.664,-142.655 545.175,-144.146 548.395,-150.362"/>
</g>
<!-- Node4&#45;&gt;Node10 -->
<g id="edge13" class="edge"><title>Node4&#45;&gt;Node10</title>
<path fill="none" stroke="midnightblue" d="M449.291,-179.444C419.036,-170.359 373.972,-155.939 343.97,-145.783"/>
<polygon fill="midnightblue" stroke="midnightblue" points="345.01,-142.44 334.416,-142.516 342.745,-149.064 345.01,-142.44"/>
</g>
<!-- Node6 -->
<g id="node6" class="node"><title>Node6</title>
<polygon fill="none" stroke="#bfbfbf" points="853,-0.5 853,-19.5 901,-19.5 901,-0.5 853,-0.5"/>
<text text-anchor="middle" x="877" y="-7.5" font-family="Helvetica,sans-Serif" font-size="10.00">limits.h</text>
</g>
<!-- Node5&#45;&gt;Node6 -->
<g id="edge5" class="edge"><title>Node5&#45;&gt;Node6</title>
<path fill="none" stroke="midnightblue" d="M877,-61.9751C877,-53.5803 877,-40.4806 877,-29.6631"/>
<polygon fill="midnightblue" stroke="midnightblue" points="880.5,-29.5091 877,-19.5091 873.5,-29.5091 880.5,-29.5091"/>
</g>
<!-- Node8&#45;&gt;Node4 -->
<g id="edge9" class="edge"><title>Node8&#45;&gt;Node4</title>
<path fill="none" stroke="midnightblue" d="M716.867,-142.516C670.84,-151.999 593.171,-167.332 539.557,-177.537"/>
<polygon fill="midnightblue" stroke="midnightblue" points="538.678,-174.141 529.505,-179.444 539.982,-181.019 538.678,-174.141"/>
</g>
<!-- Node8&#45;&gt;Node5 -->
<g id="edge8" class="edge"><title>Node8&#45;&gt;Node5</title>
<path fill="none" stroke="midnightblue" d="M772.48,-123.475C792.863,-113.534 826.775,-96.9947 850.425,-85.461"/>
<polygon fill="midnightblue" stroke="midnightblue" points="852.099,-88.5385 859.553,-81.0091 849.031,-82.2468 852.099,-88.5385"/>
</g>
<!-- Node8&#45;&gt;Node7 -->
<g id="edge10" class="edge"><title>Node8&#45;&gt;Node7</title>
<path fill="none" stroke="midnightblue" d="M752.421,-123.475C749.855,-114.992 745.835,-101.704 742.543,-90.8222"/>
<polygon fill="midnightblue" stroke="midnightblue" points="745.82,-89.5672 739.574,-81.0091 739.12,-91.5942 745.82,-89.5672"/>
</g>
<!-- Node9&#45;&gt;Node4 -->
<g id="edge12" class="edge"><title>Node9&#45;&gt;Node4</title>
<path fill="none" stroke="midnightblue" d="M565.885,-142.655C552.602,-151.267 529.408,-164.605 510.516,-174.59"/>
<polygon fill="midnightblue" stroke="midnightblue" points="508.647,-171.616 501.378,-179.324 511.867,-177.831 508.647,-171.616"/>
</g>
<!-- Node10&#45;&gt;Node4 -->
<g id="edge14" class="edge"><title>Node10&#45;&gt;Node4</title>
<path fill="none" stroke="midnightblue" d="M344.576,-142.516C374.787,-151.585 419.851,-166.004 449.898,-176.172"/>
<polygon fill="midnightblue" stroke="midnightblue" points="448.874,-179.521 459.469,-179.444 451.138,-172.897 448.874,-179.521"/>
</g>
<!-- Node11 -->
<g id="node11" class="node"><title>Node11</title>
<g id="a_node11"><a xlink:href="constraints__hard_8h.html" target="_top" xlink:title="Functions and data structures for handling of secondary structure hard constraints. ">
<polygon fill="none" stroke="black" points="263.5,-56.5 263.5,-86.5 382.5,-86.5 382.5,-56.5 263.5,-56.5"/>
<text text-anchor="start" x="271.5" y="-74.5" font-family="Helvetica,sans-Serif" font-size="10.00">ViennaRNA/constraints</text>
<text text-anchor="middle" x="323" y="-63.5" font-family="Helvetica,sans-Serif" font-size="10.00">_hard.h</text>
</a>
</g>
</g>
<!-- Node10&#45;&gt;Node11 -->
<g id="edge15" class="edge"><title>Node10&#45;&gt;Node11</title>
<path fill="none" stroke="midnightblue" d="M314.433,-123.475C315.623,-116.396 317.375,-105.97 318.985,-96.3896"/>
<polygon fill="midnightblue" stroke="midnightblue" points="322.437,-96.9648 320.643,-86.523 315.534,-95.8045 322.437,-96.9648"/>
</g>
<!-- Node12 -->
<g id="node12" class="node"><title>Node12</title>
<g id="a_node12"><a xlink:href="constraints__soft_8h.html" target="_top" xlink:title="Functions and data structures for secondary structure soft constraints. ">
<polygon fill="none" stroke="black" points="400.5,-56.5 400.5,-86.5 519.5,-86.5 519.5,-56.5 400.5,-56.5"/>
<text text-anchor="start" x="408.5" y="-74.5" font-family="Helvetica,sans-Serif" font-size="10.00">ViennaRNA/constraints</text>
<text text-anchor="middle" x="460" y="-63.5" font-family="Helvetica,sans-Serif" font-size="10.00">_soft.h</text>
</a>
</g>
</g>
<!-- Node10&#45;&gt;Node12 -->
<g id="edge17" class="edge"><title>Node10&#45;&gt;Node12</title>
<path fill="none" stroke="midnightblue" d="M334.062,-123.475C355.366,-114.852 388.936,-101.264 416.06,-90.2852"/>
<polygon fill="midnightblue" stroke="midnightblue" points="417.399,-93.5193 425.355,-86.523 414.772,-87.0306 417.399,-93.5193"/>
</g>
<!-- Node13 -->
<g id="node13" class="node"><title>Node13</title>
<g id="a_node13"><a xlink:href="constraints__SHAPE_8h.html" target="_top" xlink:title="This module provides function to incorporate SHAPE reactivity data into the folding recursions by mea...">
<polygon fill="none" stroke="black" points="537.5,-56.5 537.5,-86.5 656.5,-86.5 656.5,-56.5 537.5,-56.5"/>
<text text-anchor="start" x="545.5" y="-74.5" font-family="Helvetica,sans-Serif" font-size="10.00">ViennaRNA/constraints</text>
<text text-anchor="middle" x="597" y="-63.5" font-family="Helvetica,sans-Serif" font-size="10.00">_SHAPE.h</text>
</a>
</g>
</g>
<!-- Node10&#45;&gt;Node13 -->
<g id="edge19" class="edge"><title>Node10&#45;&gt;Node13</title>
<path fill="none" stroke="midnightblue" d="M353.819,-123.467C395.04,-114.847 460.82,-101.086 527.344,-87.1367"/>
<polygon fill="midnightblue" stroke="midnightblue" points="528.093,-90.5559 537.161,-85.0778 526.656,-83.7049 528.093,-90.5559"/>
</g>
<!-- Node14 -->
<g id="node14" class="node"><title>Node14</title>
<g id="a_node14"><a xlink:href="perturbation__fold_8h.html" target="_top" xlink:title="Find a vector of perturbation energies that minimizes the discripancies between predicted and observe...">
<polygon fill="none" stroke="black" points="0,-56.5 0,-86.5 122,-86.5 122,-56.5 0,-56.5"/>
<text text-anchor="start" x="8" y="-74.5" font-family="Helvetica,sans-Serif" font-size="10.00">ViennaRNA/perturbation</text>
<text text-anchor="middle" x="61" y="-63.5" font-family="Helvetica,sans-Serif" font-size="10.00">_fold.h</text>
</a>
</g>
</g>
<!-- Node10&#45;&gt;Node14 -->
<g id="edge21" class="edge"><title>Node10&#45;&gt;Node14</title>
<path fill="none" stroke="midnightblue" d="M276.895,-123.475C238.778,-114.475 177.759,-100.068 130.3,-88.8624"/>
<polygon fill="midnightblue" stroke="midnightblue" points="130.928,-85.4146 120.391,-86.523 129.32,-92.2273 130.928,-85.4146"/>
</g>
<!-- Node15 -->
<g id="node15" class="node"><title>Node15</title>
<g id="a_node15"><a xlink:href="ligand_8h.html" target="_top" xlink:title="Functions for incorporation of ligands binding to haipirn and interior loop motifs. ">
<polygon fill="none" stroke="black" points="140.5,-62 140.5,-81 245.5,-81 245.5,-62 140.5,-62"/>
<text text-anchor="middle" x="193" y="-69" font-family="Helvetica,sans-Serif" font-size="10.00">ViennaRNA/ligand.h</text>
</a>
</g>
</g>
<!-- Node10&#45;&gt;Node15 -->
<g id="edge23" class="edge"><title>Node10&#45;&gt;Node15</title>
<path fill="none" stroke="midnightblue" d="M295.807,-123.475C275.757,-113.534 242.401,-96.9947 219.14,-85.461"/>
<polygon fill="midnightblue" stroke="midnightblue" points="220.675,-82.3157 210.161,-81.0091 217.566,-88.5871 220.675,-82.3157"/>
</g>
<!-- Node11&#45;&gt;Node4 -->
<g id="edge16" class="edge"><title>Node11&#45;&gt;Node4</title>
<path fill="none" stroke="midnightblue" d="M342.213,-86.5453C372.307,-108.544 430.28,-150.923 460.907,-173.312"/>
<polygon fill="midnightblue" stroke="midnightblue" points="458.986,-176.243 469.124,-179.319 463.117,-170.592 458.986,-176.243"/>
</g>
<!-- Node12&#45;&gt;Node4 -->
<g id="edge18" class="edge"><title>Node12&#45;&gt;Node4</title>
<path fill="none" stroke="midnightblue" d="M460.563,-86.6703C461.329,-100.996 463.085,-123.714 467,-143 468.811,-151.92 471.692,-161.586 474.371,-169.664"/>
<polygon fill="midnightblue" stroke="midnightblue" points="471.085,-170.873 477.669,-179.174 477.699,-168.579 471.085,-170.873"/>
</g>
<!-- Node13&#45;&gt;Node4 -->
<g id="edge20" class="edge"><title>Node13&#45;&gt;Node4</title>
<path fill="none" stroke="midnightblue" d="M552.76,-86.6487C534.111,-94.6385 513.616,-106.421 500,-123 489.166,-136.191 484.51,-155.327 482.508,-169.421"/>
<polygon fill="midnightblue" stroke="midnightblue" points="479.021,-169.111 481.405,-179.434 485.979,-169.878 479.021,-169.111"/>
</g>
<!-- Node14&#45;&gt;Node4 -->
<g id="edge22" class="edge"><title>Node14&#45;&gt;Node4</title>
<path fill="none" stroke="midnightblue" d="M86.7007,-86.5905C116.988,-102.604 169.25,-128.405 217,-143 276.002,-161.035 344.77,-172.464 397.327,-179.29"/>
<polygon fill="midnightblue" stroke="midnightblue" points="396.918,-182.766 407.279,-180.552 397.8,-175.821 396.918,-182.766"/>
</g>
<!-- Node15&#45;&gt;Node4 -->
<g id="edge24" class="edge"><title>Node15&#45;&gt;Node4</title>
<path fill="none" stroke="midnightblue" d="M196.111,-81.0702C202.085,-96.2234 216.678,-127.597 240,-143 265.516,-159.853 338.312,-171.964 397.275,-179.347"/>
<polygon fill="midnightblue" stroke="midnightblue" points="397.007,-182.84 407.358,-180.581 397.857,-175.892 397.007,-182.84"/>
</g>
<!-- Node16&#45;&gt;Node4 -->
<g id="edge26" class="edge"><title>Node16&#45;&gt;Node4</title>
<path fill="none" stroke="midnightblue" d="M482.713,-240.975C482.431,-232.58 481.991,-219.481 481.627,-208.663"/>
<polygon fill="midnightblue" stroke="midnightblue" points="485.12,-208.386 481.286,-198.509 478.124,-208.621 485.12,-208.386"/>
</g>
<!-- Node17&#45;&gt;Node3 -->
<g id="edge28" class="edge"><title>Node17&#45;&gt;Node3</title>
<path fill="none" stroke="midnightblue" d="M621.185,-235.399C621.852,-227.466 622.693,-217.458 623.415,-208.858"/>
<polygon fill="midnightblue" stroke="midnightblue" points="626.923,-208.916 624.272,-198.658 619.947,-208.33 626.923,-208.916"/>
</g>
<!-- Node17&#45;&gt;Node4 -->
<g id="edge29" class="edge"><title>Node17&#45;&gt;Node4</title>
<path fill="none" stroke="midnightblue" d="M587.059,-235.399C563.841,-225.461 533.014,-212.265 510.581,-202.662"/>
<polygon fill="midnightblue" stroke="midnightblue" points="511.796,-199.375 501.226,-198.658 509.042,-205.811 511.796,-199.375"/>
</g>
<!-- Node18&#45;&gt;Node7 -->
<g id="edge31" class="edge"><title>Node18&#45;&gt;Node7</title>
<path fill="none" stroke="midnightblue" d="M768.184,-179.493C786.993,-172.877 808.743,-161.596 820,-143 835.262,-117.789 801.165,-97.1412 772.159,-84.847"/>
<polygon fill="midnightblue" stroke="midnightblue" points="773.181,-81.4854 762.597,-81.0034 770.57,-87.9803 773.181,-81.4854"/>
</g>
<!-- Node19&#45;&gt;Node5 -->
<g id="edge33" class="edge"><title>Node19&#45;&gt;Node5</title>
<path fill="none" stroke="midnightblue" d="M911.676,-302.229C906.438,-267.529 887.097,-139.392 879.806,-91.0882"/>
<polygon fill="midnightblue" stroke="midnightblue" points="883.251,-90.465 878.298,-81.0994 876.33,-91.5098 883.251,-90.465"/>
</g>
</g>
</svg>
        <g id="navigator" transform="translate(0 0)" fill="#404254">
                <rect fill="#f2f5e9" fill-opacity="0.5" stroke="#606060" stroke-width=".5" x="0" y="0" width="60" height="60"/>
                <use id="zoomplus" xlink:href="#zoomPlus" x="17" y="9" onmousedown="handleZoom(evt,'in')"/>
                <use id="zoomminus" xlink:href="#zoomMin" x="42" y="9" onmousedown="handleZoom(evt,'out')"/>
                <use id="reset" xlink:href="#resetDef" x="30" y="36" onmousedown="handleReset()"/>
                <g id="arrowUp" xlink:href="#dirArrow" transform="translate(30 24)" onmousedown="handlePan(0,-1)">
                  <use xlink:href="#rim" fill="#404040">
                        <set attributeName="fill" to="#808080" begin="arrowUp.mouseover" end="arrowUp.mouseout"/>
                  </use>
                  <path fill="none" stroke="white" stroke-width="1.5" d="M0,-3.0v7 M-2.5,-0.5L0,-3.0L2.5,-0.5"/>
                </g>
                <g id="arrowRight" xlink:href="#dirArrow" transform="rotate(90) translate(36 -43)" onmousedown="handlePan(1,0)">
                  <use xlink:href="#rim" fill="#404040">
                        <set attributeName="fill" to="#808080" begin="arrowRight.mouseover" end="arrowRight.mouseout"/>
                  </use>
                  <path fill="none" stroke="white" stroke-width="1.5" d="M0,-3.0v7 M-2.5,-0.5L0,-3.0L2.5,-0.5"/>
                </g>
                <g id="arrowDown" xlink:href="#dirArrow" transform="rotate(180) translate(-30 -48)" onmousedown="handlePan(0,1)">
                  <use xlink:href="#rim" fill="#404040">
                        <set attributeName="fill" to="#808080" begin="arrowDown.mouseover" end="arrowDown.mouseout"/>
                  </use>
                  <path fill="none" stroke="white" stroke-width="1.5" d="M0,-3.0v7 M-2.5,-0.5L0,-3.0L2.5,-0.5"/>
                </g>
                <g id="arrowLeft" xlink:href="#dirArrow" transform="rotate(270) translate(-36 17)" onmousedown="handlePan(-1,0)">
                  <use xlink:href="#rim" fill="#404040">
                        <set attributeName="fill" to="#808080" begin="arrowLeft.mouseover" end="arrowLeft.mouseout"/>
                  </use>
                  <path fill="none" stroke="white" stroke-width="1.5" d="M0,-3.0v7 M-2.5,-0.5L0,-3.0L2.5,-0.5"/>
                </g>
        </g>
        <svg viewBox="0 0 15 15" width="100%" height="30px" preserveAspectRatio="xMaxYMin meet">
         <g id="arrow_out" transform="scale(0.3 0.3)">
          <a xlink:href="interior__loops_8h__incl_org.svg" target="_base">
           <rect id="button" ry="5" rx="5" y="6" x="6" height="38" width="38"
                fill="#f2f5e9" fill-opacity="0.5" stroke="#606060" stroke-width="1.0"/>
           <path id="arrow"
             d="M 11.500037,31.436501 C 11.940474,20.09759 22.043105,11.32322 32.158766,21.979434 L 37.068811,17.246167 C 37.068811,17.246167 37.088388,32 37.088388,32 L 22.160133,31.978069 C 22.160133,31.978069 26.997745,27.140456 26.997745,27.140456 C 18.528582,18.264221 13.291696,25.230495 11.500037,31.436501 z"
             style="fill:#404040;"/>
          </a>
         </g>
        </svg>
</svg>
