<?xml version="1.0" encoding="UTF-8" standalone="no"?>
<!DOCTYPE svg PUBLIC "-//W3C//DTD SVG 1.1//EN"
 "http://www.w3.org/Graphics/SVG/1.1/DTD/svg11.dtd">
<!-- Generated by graphviz version 2.38.0 (20140413.2041)
 -->
<!-- Title: ViennaRNA/Lfold.h Pages: 1 -->
<!--zoomable 319 -->
<svg id="main" version="1.1" xmlns="http://www.w3.org/2000/svg" xmlns:xlink="http://www.w3.org/1999/xlink" xml:space="preserve" onload="init(evt)">
<style type="text/css"><![CDATA[
.edge:hover path { stroke: red; }
.edge:hover polygon { stroke: red; fill: red; }
]]></style>
<script type="text/javascript"><![CDATA[
var edges = document.getElementsByTagName('g');
if (edges && edges.length) {
  for (var i=0;i<edges.length;i++) {
    if (edges[i].id.substr(0,4)=='edge') {
      edges[i].setAttribute('class','edge');
    }
  }
}
]]></script>
        <defs>
                <circle id="rim" cx="0" cy="0" r="7"/>
                <circle id="rim2" cx="0" cy="0" r="3.5"/>
                <g id="zoomPlus">
                        <use xlink:href="#rim" fill="#404040">
                                <set attributeName="fill" to="#808080" begin="zoomplus.mouseover" end="zoomplus.mouseout"/>
                        </use>
                        <path d="M-4,0h8M0,-4v8" fill="none" stroke="white" stroke-width="1.5" pointer-events="none"/>
                </g>
                <g id="zoomMin">
                        <use xlink:href="#rim" fill="#404040">
                                <set attributeName="fill" to="#808080" begin="zoomminus.mouseover" end="zoomminus.mouseout"/>
                        </use>
                        <path d="M-4,0h8" fill="none" stroke="white" stroke-width="1.5" pointer-events="none"/>
                </g>
                <g id="dirArrow">
                        <path fill="none" stroke="white" stroke-width="1.5" d="M0,-3.0v7 M-2.5,-0.5L0,-3.0L2.5,-0.5"/>
                </g>
               <g id="resetDef">
                       <use xlink:href="#rim2" fill="#404040">
                               <set attributeName="fill" to="#808080" begin="reset.mouseover" end="reset.mouseout"/>
                       </use>
               </g>
        </defs>

<script type="text/javascript">
var viewWidth = 946;
var viewHeight = 319;
var sectionId = 'dynsection-0';
</script>
<script xlink:href="svgpan.js"/>
<svg id="graph" class="graph">
<g id="viewport">
<title>ViennaRNA/Lfold.h</title>
<!-- Node1 -->
<g id="node1" class="node"><title>Node1</title>
<polygon fill="#bfbfbf" stroke="black" points="327.5,-291.5 327.5,-310.5 428.5,-310.5 428.5,-291.5 327.5,-291.5"/>
<text text-anchor="middle" x="378" y="-298.5" font-family="Helvetica,sans-Serif" font-size="10.00">ViennaRNA/Lfold.h</text>
</g>
<!-- Node2 -->
<g id="node2" class="node"><title>Node2</title>
<g id="a_node2"><a xlink:href="mfe_8h.html" target="_top" xlink:title="MFE calculations for single RNA sequences. ">
<polygon fill="none" stroke="black" points="330,-235.5 330,-254.5 426,-254.5 426,-235.5 330,-235.5"/>
<text text-anchor="middle" x="378" y="-242.5" font-family="Helvetica,sans-Serif" font-size="10.00">ViennaRNA/mfe.h</text>
</a>
</g>
</g>
<!-- Node1&#45;&gt;Node2 -->
<g id="edge1" class="edge"><title>Node1&#45;&gt;Node2</title>
<path fill="none" stroke="midnightblue" d="M378,-291.083C378,-284.006 378,-273.861 378,-264.986"/>
<polygon fill="midnightblue" stroke="midnightblue" points="381.5,-264.751 378,-254.751 374.5,-264.751 381.5,-264.751"/>
</g>
<!-- Node3 -->
<g id="node3" class="node"><title>Node3</title>
<polygon fill="none" stroke="#bfbfbf" points="298,-179.5 298,-198.5 344,-198.5 344,-179.5 298,-179.5"/>
<text text-anchor="middle" x="321" y="-186.5" font-family="Helvetica,sans-Serif" font-size="10.00">stdio.h</text>
</g>
<!-- Node2&#45;&gt;Node3 -->
<g id="edge2" class="edge"><title>Node2&#45;&gt;Node3</title>
<path fill="none" stroke="midnightblue" d="M368.842,-235.324C360.499,-227.42 347.968,-215.548 337.823,-205.938"/>
<polygon fill="midnightblue" stroke="midnightblue" points="339.991,-203.171 330.325,-198.834 335.177,-208.252 339.991,-203.171"/>
</g>
<!-- Node4 -->
<g id="node4" class="node"><title>Node4</title>
<g id="a_node4"><a xlink:href="data__structures_8h.html" target="_top" xlink:title="ViennaRNA/data_structures.h">
<polygon fill="none" stroke="black" points="362.5,-179.5 362.5,-198.5 509.5,-198.5 509.5,-179.5 362.5,-179.5"/>
<text text-anchor="middle" x="436" y="-186.5" font-family="Helvetica,sans-Serif" font-size="10.00">ViennaRNA/data_structures.h</text>
</a>
</g>
</g>
<!-- Node2&#45;&gt;Node4 -->
<g id="edge3" class="edge"><title>Node2&#45;&gt;Node4</title>
<path fill="none" stroke="midnightblue" d="M387.319,-235.324C395.893,-227.341 408.812,-215.313 419.188,-205.653"/>
<polygon fill="midnightblue" stroke="midnightblue" points="421.578,-208.21 426.512,-198.834 416.808,-203.086 421.578,-208.21"/>
</g>
<!-- Node5 -->
<g id="node5" class="node"><title>Node5</title>
<g id="a_node5"><a xlink:href="energy__const_8h.html" target="_top" xlink:title="ViennaRNA/energy_const.h">
<polygon fill="none" stroke="black" points="0,-62 0,-81 138,-81 138,-62 0,-62"/>
<text text-anchor="middle" x="69" y="-69" font-family="Helvetica,sans-Serif" font-size="10.00">ViennaRNA/energy_const.h</text>
</a>
</g>
</g>
<!-- Node4&#45;&gt;Node5 -->
<g id="edge4" class="edge"><title>Node4&#45;&gt;Node5</title>
<path fill="none" stroke="midnightblue" d="M365.092,-179.493C267.264,-167.629 102.26,-147.102 97,-143 80.9684,-130.497 74.0898,-107.437 71.155,-91.0982"/>
<polygon fill="midnightblue" stroke="midnightblue" points="74.5992,-90.4616 69.6892,-81.0732 67.6729,-91.4744 74.5992,-90.4616"/>
</g>
<!-- Node7 -->
<g id="node7" class="node"><title>Node7</title>
<g id="a_node7"><a xlink:href="model_8h.html" target="_top" xlink:title="The model details data structure and its corresponding modifiers. ">
<polygon fill="none" stroke="black" points="156,-62 156,-81 262,-81 262,-62 156,-62"/>
<text text-anchor="middle" x="209" y="-69" font-family="Helvetica,sans-Serif" font-size="10.00">ViennaRNA/model.h</text>
</a>
</g>
</g>
<!-- Node4&#45;&gt;Node7 -->
<g id="edge6" class="edge"><title>Node4&#45;&gt;Node7</title>
<path fill="none" stroke="midnightblue" d="M363.576,-179.483C331.418,-173.149 294.303,-162.132 265,-143 244.623,-129.696 228.319,-106.499 218.671,-90.3627"/>
<polygon fill="midnightblue" stroke="midnightblue" points="221.541,-88.3314 213.546,-81.3795 215.461,-91.7999 221.541,-88.3314"/>
</g>
<!-- Node8 -->
<g id="node8" class="node"><title>Node8</title>
<g id="a_node8"><a xlink:href="params_8h.html" target="_top" xlink:title="ViennaRNA/params.h">
<polygon fill="none" stroke="black" points="106,-123.5 106,-142.5 218,-142.5 218,-123.5 106,-123.5"/>
<text text-anchor="middle" x="162" y="-130.5" font-family="Helvetica,sans-Serif" font-size="10.00">ViennaRNA/params.h</text>
</a>
</g>
</g>
<!-- Node4&#45;&gt;Node8 -->
<g id="edge7" class="edge"><title>Node4&#45;&gt;Node8</title>
<path fill="none" stroke="midnightblue" d="M387.495,-179.444C337.421,-169.984 259.933,-154.738 210.035,-144.547"/>
<polygon fill="midnightblue" stroke="midnightblue" points="210.632,-141.097 200.133,-142.516 209.226,-147.954 210.632,-141.097"/>
</g>
<!-- Node9 -->
<g id="node9" class="node"><title>Node9</title>
<g id="a_node9"><a xlink:href="dp__matrices_8h.html" target="_top" xlink:title="ViennaRNA/dp_matrices.h">
<polygon fill="none" stroke="black" points="274.5,-123.5 274.5,-142.5 407.5,-142.5 407.5,-123.5 274.5,-123.5"/>
<text text-anchor="middle" x="341" y="-130.5" font-family="Helvetica,sans-Serif" font-size="10.00">ViennaRNA/dp_matrices.h</text>
</a>
</g>
</g>
<!-- Node4&#45;&gt;Node9 -->
<g id="edge11" class="edge"><title>Node4&#45;&gt;Node9</title>
<path fill="none" stroke="midnightblue" d="M415.622,-179.324C398.978,-170.9 375.934,-157.971 359.751,-148.074"/>
<polygon fill="midnightblue" stroke="midnightblue" points="361.446,-145.006 351.115,-142.655 357.725,-150.935 361.446,-145.006"/>
</g>
<!-- Node10 -->
<g id="node10" class="node"><title>Node10</title>
<g id="a_node10"><a xlink:href="constraints_8h.html" target="_top" xlink:title="Functions and data structures for constraining secondary structure predictions and evaluation...">
<polygon fill="none" stroke="black" points="502,-123.5 502,-142.5 630,-142.5 630,-123.5 502,-123.5"/>
<text text-anchor="middle" x="566" y="-130.5" font-family="Helvetica,sans-Serif" font-size="10.00">ViennaRNA/constraints.h</text>
</a>
</g>
</g>
<!-- Node4&#45;&gt;Node10 -->
<g id="edge13" class="edge"><title>Node4&#45;&gt;Node10</title>
<path fill="none" stroke="midnightblue" d="M451.51,-179.444C471.128,-170.478 505.005,-156.314 530.921,-146.183"/>
<polygon fill="midnightblue" stroke="midnightblue" points="532.349,-149.383 540.418,-142.516 529.828,-142.853 532.349,-149.383"/>
</g>
<!-- Node6 -->
<g id="node6" class="node"><title>Node6</title>
<polygon fill="none" stroke="#bfbfbf" points="45,-0.5 45,-19.5 93,-19.5 93,-0.5 45,-0.5"/>
<text text-anchor="middle" x="69" y="-7.5" font-family="Helvetica,sans-Serif" font-size="10.00">limits.h</text>
</g>
<!-- Node5&#45;&gt;Node6 -->
<g id="edge5" class="edge"><title>Node5&#45;&gt;Node6</title>
<path fill="none" stroke="midnightblue" d="M69,-61.9751C69,-53.5803 69,-40.4806 69,-29.6631"/>
<polygon fill="midnightblue" stroke="midnightblue" points="72.5001,-29.5091 69,-19.5091 65.5001,-29.5091 72.5001,-29.5091"/>
</g>
<!-- Node8&#45;&gt;Node4 -->
<g id="edge9" class="edge"><title>Node8&#45;&gt;Node4</title>
<path fill="none" stroke="midnightblue" d="M210.293,-142.516C260.289,-151.96 337.777,-167.204 387.753,-177.41"/>
<polygon fill="midnightblue" stroke="midnightblue" points="387.173,-180.863 397.673,-179.444 388.58,-174.006 387.173,-180.863"/>
</g>
<!-- Node8&#45;&gt;Node5 -->
<g id="edge8" class="edge"><title>Node8&#45;&gt;Node5</title>
<path fill="none" stroke="midnightblue" d="M148.675,-123.475C133.62,-113.843 108.884,-98.0175 90.9631,-86.5517"/>
<polygon fill="midnightblue" stroke="midnightblue" points="92.6097,-83.4501 82.2999,-81.0091 88.8372,-89.3466 92.6097,-83.4501"/>
</g>
<!-- Node8&#45;&gt;Node7 -->
<g id="edge10" class="edge"><title>Node8&#45;&gt;Node7</title>
<path fill="none" stroke="midnightblue" d="M168.734,-123.475C175.784,-114.55 187.035,-100.307 195.854,-89.1425"/>
<polygon fill="midnightblue" stroke="midnightblue" points="198.826,-91.0258 202.279,-81.0091 193.333,-86.6867 198.826,-91.0258"/>
</g>
<!-- Node9&#45;&gt;Node4 -->
<g id="edge12" class="edge"><title>Node9&#45;&gt;Node4</title>
<path fill="none" stroke="midnightblue" d="M361.336,-142.655C377.968,-151.071 401.013,-163.999 417.208,-173.901"/>
<polygon fill="midnightblue" stroke="midnightblue" points="415.521,-176.974 425.851,-179.324 419.241,-171.044 415.521,-176.974"/>
</g>
<!-- Node10&#45;&gt;Node4 -->
<g id="edge14" class="edge"><title>Node10&#45;&gt;Node4</title>
<path fill="none" stroke="midnightblue" d="M550.577,-142.516C531.002,-151.467 497.134,-165.629 471.195,-175.772"/>
<polygon fill="midnightblue" stroke="midnightblue" points="469.755,-172.576 461.688,-179.444 472.277,-179.106 469.755,-172.576"/>
</g>
<!-- Node11 -->
<g id="node11" class="node"><title>Node11</title>
<g id="a_node11"><a xlink:href="constraints__hard_8h.html" target="_top" xlink:title="Functions and data structures for handling of secondary structure hard constraints. ">
<polygon fill="none" stroke="black" points="280.5,-56.5 280.5,-86.5 399.5,-86.5 399.5,-56.5 280.5,-56.5"/>
<text text-anchor="start" x="288.5" y="-74.5" font-family="Helvetica,sans-Serif" font-size="10.00">ViennaRNA/constraints</text>
<text text-anchor="middle" x="340" y="-63.5" font-family="Helvetica,sans-Serif" font-size="10.00">_hard.h</text>
</a>
</g>
</g>
<!-- Node10&#45;&gt;Node11 -->
<g id="edge15" class="edge"><title>Node10&#45;&gt;Node11</title>
<path fill="none" stroke="midnightblue" d="M533.62,-123.475C499.65,-114.532 445.398,-100.249 402.953,-89.0738"/>
<polygon fill="midnightblue" stroke="midnightblue" points="403.825,-85.6844 393.264,-86.523 402.043,-92.4537 403.825,-85.6844"/>
</g>
<!-- Node12 -->
<g id="node12" class="node"><title>Node12</title>
<g id="a_node12"><a xlink:href="constraints__soft_8h.html" target="_top" xlink:title="Functions and data structures for secondary structure soft constraints. ">
<polygon fill="none" stroke="black" points="417.5,-56.5 417.5,-86.5 536.5,-86.5 536.5,-56.5 417.5,-56.5"/>
<text text-anchor="start" x="425.5" y="-74.5" font-family="Helvetica,sans-Serif" font-size="10.00">ViennaRNA/constraints</text>
<text text-anchor="middle" x="477" y="-63.5" font-family="Helvetica,sans-Serif" font-size="10.00">_soft.h</text>
</a>
</g>
</g>
<!-- Node10&#45;&gt;Node12 -->
<g id="edge17" class="edge"><title>Node10&#45;&gt;Node12</title>
<path fill="none" stroke="midnightblue" d="M553.248,-123.475C541.082,-115.341 522.309,-102.791 506.435,-92.1788"/>
<polygon fill="midnightblue" stroke="midnightblue" points="508.234,-89.1711 497.976,-86.523 504.344,-94.9905 508.234,-89.1711"/>
</g>
<!-- Node13 -->
<g id="node13" class="node"><title>Node13</title>
<g id="a_node13"><a xlink:href="constraints__SHAPE_8h.html" target="_top" xlink:title="This module provides function to incorporate SHAPE reactivity data into the folding recursions by mea...">
<polygon fill="none" stroke="black" points="554.5,-56.5 554.5,-86.5 673.5,-86.5 673.5,-56.5 554.5,-56.5"/>
<text text-anchor="start" x="562.5" y="-74.5" font-family="Helvetica,sans-Serif" font-size="10.00">ViennaRNA/constraints</text>
<text text-anchor="middle" x="614" y="-63.5" font-family="Helvetica,sans-Serif" font-size="10.00">_SHAPE.h</text>
</a>
</g>
</g>
<!-- Node10&#45;&gt;Node13 -->
<g id="edge19" class="edge"><title>Node10&#45;&gt;Node13</title>
<path fill="none" stroke="midnightblue" d="M572.877,-123.475C578.953,-115.944 588.083,-104.626 596.199,-94.5663"/>
<polygon fill="midnightblue" stroke="midnightblue" points="599.133,-96.5037 602.687,-86.523 593.684,-92.1085 599.133,-96.5037"/>
</g>
<!-- Node14 -->
<g id="node14" class="node"><title>Node14</title>
<g id="a_node14"><a xlink:href="perturbation__fold_8h.html" target="_top" xlink:title="Find a vector of perturbation energies that minimizes the discripancies between predicted and observe...">
<polygon fill="none" stroke="black" points="692,-56.5 692,-86.5 814,-86.5 814,-56.5 692,-56.5"/>
<text text-anchor="start" x="700" y="-74.5" font-family="Helvetica,sans-Serif" font-size="10.00">ViennaRNA/perturbation</text>
<text text-anchor="middle" x="753" y="-63.5" font-family="Helvetica,sans-Serif" font-size="10.00">_fold.h</text>
</a>
</g>
</g>
<!-- Node10&#45;&gt;Node14 -->
<g id="edge21" class="edge"><title>Node10&#45;&gt;Node14</title>
<path fill="none" stroke="midnightblue" d="M592.793,-123.475C620.486,-114.664 664.471,-100.668 699.352,-89.5698"/>
<polygon fill="midnightblue" stroke="midnightblue" points="700.46,-92.8903 708.928,-86.523 698.337,-86.2198 700.46,-92.8903"/>
</g>
<!-- Node15 -->
<g id="node15" class="node"><title>Node15</title>
<g id="a_node15"><a xlink:href="ligand_8h.html" target="_top" xlink:title="Functions for incorporation of ligands binding to haipirn and interior loop motifs. ">
<polygon fill="none" stroke="black" points="832.5,-62 832.5,-81 937.5,-81 937.5,-62 832.5,-62"/>
<text text-anchor="middle" x="885" y="-69" font-family="Helvetica,sans-Serif" font-size="10.00">ViennaRNA/ligand.h</text>
</a>
</g>
</g>
<!-- Node10&#45;&gt;Node15 -->
<g id="edge23" class="edge"><title>Node10&#45;&gt;Node15</title>
<path fill="none" stroke="midnightblue" d="M619.819,-123.483C671.933,-115.023 753.101,-101.281 823,-87 828.483,-85.8797 834.222,-84.6355 839.901,-83.3601"/>
<polygon fill="midnightblue" stroke="midnightblue" points="841.025,-86.6937 849.992,-81.0509 839.463,-79.8701 841.025,-86.6937"/>
</g>
<!-- Node11&#45;&gt;Node4 -->
<g id="edge16" class="edge"><title>Node11&#45;&gt;Node4</title>
<path fill="none" stroke="midnightblue" d="M370.785,-86.5865C386.341,-95.1195 404.341,-107.387 416,-123 426.145,-136.586 431.202,-155.384 433.686,-169.271"/>
<polygon fill="midnightblue" stroke="midnightblue" points="430.226,-169.795 435.176,-179.162 437.148,-168.753 430.226,-169.795"/>
</g>
<!-- Node12&#45;&gt;Node4 -->
<g id="edge18" class="edge"><title>Node12&#45;&gt;Node4</title>
<path fill="none" stroke="midnightblue" d="M472.014,-86.5453C464.607,-107.411 450.692,-146.612 442.496,-169.699"/>
<polygon fill="midnightblue" stroke="midnightblue" points="439.129,-168.724 439.082,-179.319 445.725,-171.066 439.129,-168.724"/>
</g>
<!-- Node13&#45;&gt;Node4 -->
<g id="edge20" class="edge"><title>Node13&#45;&gt;Node4</title>
<path fill="none" stroke="midnightblue" d="M626.315,-86.5569C638.15,-101.832 652.412,-126.289 639,-143 623.833,-161.898 568.746,-173.35 519.779,-179.97"/>
<polygon fill="midnightblue" stroke="midnightblue" points="519.227,-176.512 509.761,-181.27 520.128,-183.453 519.227,-176.512"/>
</g>
<!-- Node14&#45;&gt;Node4 -->
<g id="edge22" class="edge"><title>Node14&#45;&gt;Node4</title>
<path fill="none" stroke="midnightblue" d="M737.84,-86.7641C719.777,-102.941 688.004,-128.894 656,-143 613.066,-161.923 561.877,-172.999 519.684,-179.425"/>
<polygon fill="midnightblue" stroke="midnightblue" points="519.107,-175.972 509.718,-180.882 520.12,-182.898 519.107,-175.972"/>
</g>
<!-- Node15&#45;&gt;Node4 -->
<g id="edge24" class="edge"><title>Node15&#45;&gt;Node4</title>
<path fill="none" stroke="midnightblue" d="M864.654,-81.0613C829.302,-95.6454 753.993,-125.431 688,-143 629.239,-158.643 561.305,-170.42 510.788,-177.994"/>
<polygon fill="midnightblue" stroke="midnightblue" points="509.984,-174.574 500.604,-179.499 511.008,-181.499 509.984,-174.574"/>
</g>
</g>
</svg>
        <g id="navigator" transform="translate(0 0)" fill="#404254">
                <rect fill="#f2f5e9" fill-opacity="0.5" stroke="#606060" stroke-width=".5" x="0" y="0" width="60" height="60"/>
                <use id="zoomplus" xlink:href="#zoomPlus" x="17" y="9" onmousedown="handleZoom(evt,'in')"/>
                <use id="zoomminus" xlink:href="#zoomMin" x="42" y="9" onmousedown="handleZoom(evt,'out')"/>
                <use id="reset" xlink:href="#resetDef" x="30" y="36" onmousedown="handleReset()"/>
                <g id="arrowUp" xlink:href="#dirArrow" transform="translate(30 24)" onmousedown="handlePan(0,-1)">
                  <use xlink:href="#rim" fill="#404040">
                        <set attributeName="fill" to="#808080" begin="arrowUp.mouseover" end="arrowUp.mouseout"/>
                  </use>
                  <path fill="none" stroke="white" stroke-width="1.5" d="M0,-3.0v7 M-2.5,-0.5L0,-3.0L2.5,-0.5"/>
                </g>
                <g id="arrowRight" xlink:href="#dirArrow" transform="rotate(90) translate(36 -43)" onmousedown="handlePan(1,0)">
                  <use xlink:href="#rim" fill="#404040">
                        <set attributeName="fill" to="#808080" begin="arrowRight.mouseover" end="arrowRight.mouseout"/>
                  </use>
                  <path fill="none" stroke="white" stroke-width="1.5" d="M0,-3.0v7 M-2.5,-0.5L0,-3.0L2.5,-0.5"/>
                </g>
                <g id="arrowDown" xlink:href="#dirArrow" transform="rotate(180) translate(-30 -48)" onmousedown="handlePan(0,1)">
                  <use xlink:href="#rim" fill="#404040">
                        <set attributeName="fill" to="#808080" begin="arrowDown.mouseover" end="arrowDown.mouseout"/>
                  </use>
                  <path fill="none" stroke="white" stroke-width="1.5" d="M0,-3.0v7 M-2.5,-0.5L0,-3.0L2.5,-0.5"/>
                </g>
                <g id="arrowLeft" xlink:href="#dirArrow" transform="rotate(270) translate(-36 17)" onmousedown="handlePan(-1,0)">
                  <use xlink:href="#rim" fill="#404040">
                        <set attributeName="fill" to="#808080" begin="arrowLeft.mouseover" end="arrowLeft.mouseout"/>
                  </use>
                  <path fill="none" stroke="white" stroke-width="1.5" d="M0,-3.0v7 M-2.5,-0.5L0,-3.0L2.5,-0.5"/>
                </g>
        </g>
        <svg viewBox="0 0 15 15" width="100%" height="30px" preserveAspectRatio="xMaxYMin meet">
         <g id="arrow_out" transform="scale(0.3 0.3)">
          <a xlink:href="Lfold_8h__incl_org.svg" target="_base">
           <rect id="button" ry="5" rx="5" y="6" x="6" height="38" width="38"
                fill="#f2f5e9" fill-opacity="0.5" stroke="#606060" stroke-width="1.0"/>
           <path id="arrow"
             d="M 11.500037,31.436501 C 11.940474,20.09759 22.043105,11.32322 32.158766,21.979434 L 37.068811,17.246167 C 37.068811,17.246167 37.088388,32 37.088388,32 L 22.160133,31.978069 C 22.160133,31.978069 26.997745,27.140456 26.997745,27.140456 C 18.528582,18.264221 13.291696,25.230495 11.500037,31.436501 z"
             style="fill:#404040;"/>
          </a>
         </g>
        </svg>
</svg>
