<?xml version="1.0" encoding="UTF-8" standalone="no"?>
<!DOCTYPE svg PUBLIC "-//W3C//DTD SVG 1.1//EN"
 "http://www.w3.org/Graphics/SVG/1.1/DTD/svg11.dtd">
<!-- Generated by graphviz version 2.38.0 (20140413.2041)
 -->
<!-- Title: ViennaRNA/loop_energies.h Pages: 1 -->
<!--zoomable 453 -->
<svg id="main" version="1.1" xmlns="http://www.w3.org/2000/svg" xmlns:xlink="http://www.w3.org/1999/xlink" xml:space="preserve" onload="init(evt)">
<style type="text/css"><![CDATA[
.edge:hover path { stroke: red; }
.edge:hover polygon { stroke: red; fill: red; }
]]></style>
<script type="text/javascript"><![CDATA[
var edges = document.getElementsByTagName('g');
if (edges && edges.length) {
  for (var i=0;i<edges.length;i++) {
    if (edges[i].id.substr(0,4)=='edge') {
      edges[i].setAttribute('class','edge');
    }
  }
}
]]></script>
        <defs>
                <circle id="rim" cx="0" cy="0" r="7"/>
                <circle id="rim2" cx="0" cy="0" r="3.5"/>
                <g id="zoomPlus">
                        <use xlink:href="#rim" fill="#404040">
                                <set attributeName="fill" to="#808080" begin="zoomplus.mouseover" end="zoomplus.mouseout"/>
                        </use>
                        <path d="M-4,0h8M0,-4v8" fill="none" stroke="white" stroke-width="1.5" pointer-events="none"/>
                </g>
                <g id="zoomMin">
                        <use xlink:href="#rim" fill="#404040">
                                <set attributeName="fill" to="#808080" begin="zoomminus.mouseover" end="zoomminus.mouseout"/>
                        </use>
                        <path d="M-4,0h8" fill="none" stroke="white" stroke-width="1.5" pointer-events="none"/>
                </g>
                <g id="dirArrow">
                        <path fill="none" stroke="white" stroke-width="1.5" d="M0,-3.0v7 M-2.5,-0.5L0,-3.0L2.5,-0.5"/>
                </g>
               <g id="resetDef">
                       <use xlink:href="#rim2" fill="#404040">
                               <set attributeName="fill" to="#808080" begin="reset.mouseover" end="reset.mouseout"/>
                       </use>
               </g>
        </defs>

<script type="text/javascript">
var viewWidth = 1153;
var viewHeight = 453;
var sectionId = 'dynsection-0';
</script>
<script xlink:href="svgpan.js"/>
<svg id="graph" class="graph">
<g id="viewport">
<title>ViennaRNA/loop_energies.h</title>
<!-- Node1 -->
<g id="node1" class="node"><title>Node1</title>
<polygon fill="#bfbfbf" stroke="black" points="564.5,-425.5 564.5,-444.5 704.5,-444.5 704.5,-425.5 564.5,-425.5"/>
<text text-anchor="middle" x="634.5" y="-432.5" font-family="Helvetica,sans-Serif" font-size="10.00">ViennaRNA/loop_energies.h</text>
</g>
<!-- Node2 -->
<g id="node2" class="node"><title>Node2</title>
<g id="a_node2"><a xlink:href="exterior__loops_8h.html" target="_top" xlink:title="Energy evaluation of exterior loops for MFE and partition function calculations. ">
<polygon fill="none" stroke="black" points="894.5,-235.5 894.5,-265.5 998.5,-265.5 998.5,-235.5 894.5,-235.5"/>
<text text-anchor="start" x="902.5" y="-253.5" font-family="Helvetica,sans-Serif" font-size="10.00">ViennaRNA/exterior</text>
<text text-anchor="middle" x="946.5" y="-242.5" font-family="Helvetica,sans-Serif" font-size="10.00">_loops.h</text>
</a>
</g>
</g>
<!-- Node1&#45;&gt;Node2 -->
<g id="edge1" class="edge"><title>Node1&#45;&gt;Node2</title>
<path fill="none" stroke="midnightblue" d="M666.632,-425.467C694.475,-417.565 735.516,-404.685 769.5,-389 821.82,-364.852 835.719,-358.265 880.5,-322 898.362,-307.534 916.021,-288.344 928.572,-273.637"/>
<polygon fill="midnightblue" stroke="midnightblue" points="931.595,-275.479 935.334,-265.566 926.229,-270.984 931.595,-275.479"/>
</g>
<!-- Node15 -->
<g id="node15" class="node"><title>Node15</title>
<g id="a_node15"><a xlink:href="hairpin__loops_8h.html" target="_top" xlink:title="Energy evaluation of hairpin loops for MFE and partition function calculations. ">
<polygon fill="none" stroke="black" points="285,-364 285,-383 422,-383 422,-364 285,-364"/>
<text text-anchor="middle" x="353.5" y="-371" font-family="Helvetica,sans-Serif" font-size="10.00">ViennaRNA/hairpin_loops.h</text>
</a>
</g>
</g>
<!-- Node1&#45;&gt;Node15 -->
<g id="edge25" class="edge"><title>Node1&#45;&gt;Node15</title>
<path fill="none" stroke="midnightblue" d="M594.24,-425.475C544.056,-414.849 458.272,-396.685 403.808,-385.152"/>
<polygon fill="midnightblue" stroke="midnightblue" points="404.194,-381.657 393.686,-383.009 402.744,-388.505 404.194,-381.657"/>
</g>
<!-- Node23 -->
<g id="node23" class="node"><title>Node23</title>
<g id="a_node23"><a xlink:href="interior__loops_8h.html" target="_top" xlink:title="Energy evaluation of interior loops for MFE and partition function calculations. ">
<polygon fill="none" stroke="black" points="519,-358.5 519,-388.5 620,-388.5 620,-358.5 519,-358.5"/>
<text text-anchor="start" x="527" y="-376.5" font-family="Helvetica,sans-Serif" font-size="10.00">ViennaRNA/interior</text>
<text text-anchor="middle" x="569.5" y="-365.5" font-family="Helvetica,sans-Serif" font-size="10.00">_loops.h</text>
</a>
</g>
</g>
<!-- Node1&#45;&gt;Node23 -->
<g id="edge40" class="edge"><title>Node1&#45;&gt;Node23</title>
<path fill="none" stroke="midnightblue" d="M625.187,-425.475C616.631,-417.643 603.6,-405.714 592.294,-395.366"/>
<polygon fill="midnightblue" stroke="midnightblue" points="594.559,-392.693 584.819,-388.523 589.832,-397.857 594.559,-392.693"/>
</g>
<!-- Node25 -->
<g id="node25" class="node"><title>Node25</title>
<g id="a_node25"><a xlink:href="multibranch__loops_8h.html" target="_top" xlink:title="Energy evaluation of multibranch loops for MFE and partition function calculations. ">
<polygon fill="none" stroke="black" points="638.5,-358.5 638.5,-388.5 760.5,-388.5 760.5,-358.5 638.5,-358.5"/>
<text text-anchor="start" x="646.5" y="-376.5" font-family="Helvetica,sans-Serif" font-size="10.00">ViennaRNA/multibranch</text>
<text text-anchor="middle" x="699.5" y="-365.5" font-family="Helvetica,sans-Serif" font-size="10.00">_loops.h</text>
</a>
</g>
</g>
<!-- Node1&#45;&gt;Node25 -->
<g id="edge47" class="edge"><title>Node1&#45;&gt;Node25</title>
<path fill="none" stroke="midnightblue" d="M643.813,-425.475C652.369,-417.643 665.4,-405.714 676.706,-395.366"/>
<polygon fill="midnightblue" stroke="midnightblue" points="679.168,-397.857 684.181,-388.523 674.441,-392.693 679.168,-397.857"/>
</g>
<!-- Node3 -->
<g id="node3" class="node"><title>Node3</title>
<g id="a_node3"><a xlink:href="data__structures_8h.html" target="_top" xlink:title="ViennaRNA/data_structures.h">
<polygon fill="none" stroke="black" points="408,-179.5 408,-198.5 555,-198.5 555,-179.5 408,-179.5"/>
<text text-anchor="middle" x="481.5" y="-186.5" font-family="Helvetica,sans-Serif" font-size="10.00">ViennaRNA/data_structures.h</text>
</a>
</g>
</g>
<!-- Node2&#45;&gt;Node3 -->
<g id="edge2" class="edge"><title>Node2&#45;&gt;Node3</title>
<path fill="none" stroke="midnightblue" d="M894.062,-242.79C812.02,-232.292 652.904,-211.932 558.048,-199.795"/>
<polygon fill="midnightblue" stroke="midnightblue" points="558.305,-196.299 547.942,-198.502 557.417,-203.243 558.305,-196.299"/>
</g>
<!-- Node7 -->
<g id="node7" class="node"><title>Node7</title>
<g id="a_node7"><a xlink:href="params_8h.html" target="_top" xlink:title="ViennaRNA/params.h">
<polygon fill="none" stroke="black" points="774.5,-123.5 774.5,-142.5 886.5,-142.5 886.5,-123.5 774.5,-123.5"/>
<text text-anchor="middle" x="830.5" y="-130.5" font-family="Helvetica,sans-Serif" font-size="10.00">ViennaRNA/params.h</text>
</a>
</g>
</g>
<!-- Node2&#45;&gt;Node7 -->
<g id="edge24" class="edge"><title>Node2&#45;&gt;Node7</title>
<path fill="none" stroke="midnightblue" d="M933.942,-235.388C920.909,-220.911 899.774,-197.899 880.5,-179 870.181,-168.882 858.155,-158.03 848.483,-149.519"/>
<polygon fill="midnightblue" stroke="midnightblue" points="850.527,-146.658 840.692,-142.719 845.924,-151.932 850.527,-146.658"/>
</g>
<!-- Node4 -->
<g id="node4" class="node"><title>Node4</title>
<g id="a_node4"><a xlink:href="energy__const_8h.html" target="_top" xlink:title="ViennaRNA/energy_const.h">
<polygon fill="none" stroke="black" points="804.5,-62 804.5,-81 942.5,-81 942.5,-62 804.5,-62"/>
<text text-anchor="middle" x="873.5" y="-69" font-family="Helvetica,sans-Serif" font-size="10.00">ViennaRNA/energy_const.h</text>
</a>
</g>
</g>
<!-- Node3&#45;&gt;Node4 -->
<g id="edge3" class="edge"><title>Node3&#45;&gt;Node4</title>
<path fill="none" stroke="midnightblue" d="M530.54,-179.489C572.817,-171.642 635.271,-158.831 688.5,-143 744.813,-126.252 808.402,-100.439 844.446,-85.133"/>
<polygon fill="midnightblue" stroke="midnightblue" points="846.034,-88.2606 853.852,-81.1108 843.282,-81.8243 846.034,-88.2606"/>
</g>
<!-- Node6 -->
<g id="node6" class="node"><title>Node6</title>
<g id="a_node6"><a xlink:href="model_8h.html" target="_top" xlink:title="The model details data structure and its corresponding modifiers. ">
<polygon fill="none" stroke="black" points="680.5,-62 680.5,-81 786.5,-81 786.5,-62 680.5,-62"/>
<text text-anchor="middle" x="733.5" y="-69" font-family="Helvetica,sans-Serif" font-size="10.00">ViennaRNA/model.h</text>
</a>
</g>
</g>
<!-- Node3&#45;&gt;Node6 -->
<g id="edge5" class="edge"><title>Node3&#45;&gt;Node6</title>
<path fill="none" stroke="midnightblue" d="M486.493,-179.357C495.068,-165.309 513.967,-137.62 537.5,-123 550.118,-115.161 631.587,-95.6433 685.442,-83.2963"/>
<polygon fill="midnightblue" stroke="midnightblue" points="686.515,-86.6415 695.485,-81.0034 684.957,-79.8171 686.515,-86.6415"/>
</g>
<!-- Node3&#45;&gt;Node7 -->
<g id="edge6" class="edge"><title>Node3&#45;&gt;Node7</title>
<path fill="none" stroke="midnightblue" d="M531.711,-179.444C592.997,-169.628 696.636,-153.583 764.358,-143.419"/>
<polygon fill="midnightblue" stroke="midnightblue" points="765.121,-146.844 774.493,-141.902 764.085,-139.921 765.121,-146.844"/>
</g>
<!-- Node8 -->
<g id="node8" class="node"><title>Node8</title>
<g id="a_node8"><a xlink:href="dp__matrices_8h.html" target="_top" xlink:title="ViennaRNA/dp_matrices.h">
<polygon fill="none" stroke="black" points="547,-123.5 547,-142.5 680,-142.5 680,-123.5 547,-123.5"/>
<text text-anchor="middle" x="613.5" y="-130.5" font-family="Helvetica,sans-Serif" font-size="10.00">ViennaRNA/dp_matrices.h</text>
</a>
</g>
</g>
<!-- Node3&#45;&gt;Node8 -->
<g id="edge10" class="edge"><title>Node3&#45;&gt;Node8</title>
<path fill="none" stroke="midnightblue" d="M497.327,-179.444C517.277,-170.478 551.679,-156.314 577.97,-146.183"/>
<polygon fill="midnightblue" stroke="midnightblue" points="579.501,-149.345 587.602,-142.516 577.011,-142.803 579.501,-149.345"/>
</g>
<!-- Node9 -->
<g id="node9" class="node"><title>Node9</title>
<g id="a_node9"><a xlink:href="constraints_8h.html" target="_top" xlink:title="Functions and data structures for constraining secondary structure predictions and evaluation...">
<polygon fill="none" stroke="black" points="248.5,-123.5 248.5,-142.5 376.5,-142.5 376.5,-123.5 248.5,-123.5"/>
<text text-anchor="middle" x="312.5" y="-130.5" font-family="Helvetica,sans-Serif" font-size="10.00">ViennaRNA/constraints.h</text>
</a>
</g>
</g>
<!-- Node3&#45;&gt;Node9 -->
<g id="edge12" class="edge"><title>Node3&#45;&gt;Node9</title>
<path fill="none" stroke="midnightblue" d="M449.633,-179.444C419.209,-170.359 373.879,-155.939 343.688,-145.783"/>
<polygon fill="midnightblue" stroke="midnightblue" points="344.668,-142.42 334.073,-142.516 342.416,-149.047 344.668,-142.42"/>
</g>
<!-- Node5 -->
<g id="node5" class="node"><title>Node5</title>
<polygon fill="none" stroke="#bfbfbf" points="849.5,-0.5 849.5,-19.5 897.5,-19.5 897.5,-0.5 849.5,-0.5"/>
<text text-anchor="middle" x="873.5" y="-7.5" font-family="Helvetica,sans-Serif" font-size="10.00">limits.h</text>
</g>
<!-- Node4&#45;&gt;Node5 -->
<g id="edge4" class="edge"><title>Node4&#45;&gt;Node5</title>
<path fill="none" stroke="midnightblue" d="M873.5,-61.9751C873.5,-53.5803 873.5,-40.4806 873.5,-29.6631"/>
<polygon fill="midnightblue" stroke="midnightblue" points="877,-29.5091 873.5,-19.5091 870,-29.5091 877,-29.5091"/>
</g>
<!-- Node7&#45;&gt;Node3 -->
<g id="edge8" class="edge"><title>Node7&#45;&gt;Node3</title>
<path fill="none" stroke="midnightblue" d="M780.539,-142.516C720.603,-152.117 619.902,-167.715 552.066,-177.917"/>
<polygon fill="midnightblue" stroke="midnightblue" points="551.259,-174.499 541.889,-179.444 552.297,-181.421 551.259,-174.499"/>
</g>
<!-- Node7&#45;&gt;Node4 -->
<g id="edge7" class="edge"><title>Node7&#45;&gt;Node4</title>
<path fill="none" stroke="midnightblue" d="M836.661,-123.475C843.111,-114.55 853.404,-100.307 861.473,-89.1425"/>
<polygon fill="midnightblue" stroke="midnightblue" points="864.33,-91.1642 867.351,-81.0091 858.656,-87.064 864.33,-91.1642"/>
</g>
<!-- Node7&#45;&gt;Node6 -->
<g id="edge9" class="edge"><title>Node7&#45;&gt;Node6</title>
<path fill="none" stroke="midnightblue" d="M816.602,-123.475C800.828,-113.799 774.863,-97.8721 756.151,-86.3941"/>
<polygon fill="midnightblue" stroke="midnightblue" points="757.726,-83.2544 747.372,-81.0091 754.066,-89.2213 757.726,-83.2544"/>
</g>
<!-- Node8&#45;&gt;Node3 -->
<g id="edge11" class="edge"><title>Node8&#45;&gt;Node3</title>
<path fill="none" stroke="midnightblue" d="M597.762,-142.516C577.855,-151.467 543.463,-165.629 517.148,-175.772"/>
<polygon fill="midnightblue" stroke="midnightblue" points="515.605,-172.614 507.505,-179.444 518.095,-179.156 515.605,-172.614"/>
</g>
<!-- Node9&#45;&gt;Node3 -->
<g id="edge13" class="edge"><title>Node9&#45;&gt;Node3</title>
<path fill="none" stroke="midnightblue" d="M344.233,-142.516C374.613,-151.585 419.944,-166.004 450.179,-176.172"/>
<polygon fill="midnightblue" stroke="midnightblue" points="449.216,-179.541 459.81,-179.444 451.467,-172.913 449.216,-179.541"/>
</g>
<!-- Node10 -->
<g id="node10" class="node"><title>Node10</title>
<g id="a_node10"><a xlink:href="constraints__hard_8h.html" target="_top" xlink:title="Functions and data structures for handling of secondary structure hard constraints. ">
<polygon fill="none" stroke="black" points="123,-56.5 123,-86.5 242,-86.5 242,-56.5 123,-56.5"/>
<text text-anchor="start" x="131" y="-74.5" font-family="Helvetica,sans-Serif" font-size="10.00">ViennaRNA/constraints</text>
<text text-anchor="middle" x="182.5" y="-63.5" font-family="Helvetica,sans-Serif" font-size="10.00">_hard.h</text>
</a>
</g>
</g>
<!-- Node9&#45;&gt;Node10 -->
<g id="edge14" class="edge"><title>Node9&#45;&gt;Node10</title>
<path fill="none" stroke="midnightblue" d="M293.874,-123.475C275.28,-114.965 246.122,-101.619 222.304,-90.718"/>
<polygon fill="midnightblue" stroke="midnightblue" points="223.688,-87.5023 213.138,-86.523 220.775,-93.8673 223.688,-87.5023"/>
</g>
<!-- Node11 -->
<g id="node11" class="node"><title>Node11</title>
<g id="a_node11"><a xlink:href="constraints__soft_8h.html" target="_top" xlink:title="Functions and data structures for secondary structure soft constraints. ">
<polygon fill="none" stroke="black" points="260,-56.5 260,-86.5 379,-86.5 379,-56.5 260,-56.5"/>
<text text-anchor="start" x="268" y="-74.5" font-family="Helvetica,sans-Serif" font-size="10.00">ViennaRNA/constraints</text>
<text text-anchor="middle" x="319.5" y="-63.5" font-family="Helvetica,sans-Serif" font-size="10.00">_soft.h</text>
</a>
</g>
</g>
<!-- Node9&#45;&gt;Node11 -->
<g id="edge16" class="edge"><title>Node9&#45;&gt;Node11</title>
<path fill="none" stroke="midnightblue" d="M313.503,-123.475C314.327,-116.471 315.536,-106.192 316.653,-96.6956"/>
<polygon fill="midnightblue" stroke="midnightblue" points="320.158,-96.8635 317.85,-86.523 313.206,-96.0455 320.158,-96.8635"/>
</g>
<!-- Node12 -->
<g id="node12" class="node"><title>Node12</title>
<g id="a_node12"><a xlink:href="constraints__SHAPE_8h.html" target="_top" xlink:title="This module provides function to incorporate SHAPE reactivity data into the folding recursions by mea...">
<polygon fill="none" stroke="black" points="397,-56.5 397,-86.5 516,-86.5 516,-56.5 397,-56.5"/>
<text text-anchor="start" x="405" y="-74.5" font-family="Helvetica,sans-Serif" font-size="10.00">ViennaRNA/constraints</text>
<text text-anchor="middle" x="456.5" y="-63.5" font-family="Helvetica,sans-Serif" font-size="10.00">_SHAPE.h</text>
</a>
</g>
</g>
<!-- Node9&#45;&gt;Node12 -->
<g id="edge18" class="edge"><title>Node9&#45;&gt;Node12</title>
<path fill="none" stroke="midnightblue" d="M333.132,-123.475C353.91,-114.889 386.599,-101.383 413.108,-90.4291"/>
<polygon fill="midnightblue" stroke="midnightblue" points="414.657,-93.5766 422.562,-86.523 411.983,-87.1071 414.657,-93.5766"/>
</g>
<!-- Node13 -->
<g id="node13" class="node"><title>Node13</title>
<g id="a_node13"><a xlink:href="perturbation__fold_8h.html" target="_top" xlink:title="Find a vector of perturbation energies that minimizes the discripancies between predicted and observe...">
<polygon fill="none" stroke="black" points="534.5,-56.5 534.5,-86.5 656.5,-86.5 656.5,-56.5 534.5,-56.5"/>
<text text-anchor="start" x="542.5" y="-74.5" font-family="Helvetica,sans-Serif" font-size="10.00">ViennaRNA/perturbation</text>
<text text-anchor="middle" x="595.5" y="-63.5" font-family="Helvetica,sans-Serif" font-size="10.00">_fold.h</text>
</a>
</g>
</g>
<!-- Node9&#45;&gt;Node13 -->
<g id="edge20" class="edge"><title>Node9&#45;&gt;Node13</title>
<path fill="none" stroke="midnightblue" d="M353.047,-123.475C397.722,-114.082 470.411,-98.7996 524.566,-87.4137"/>
<polygon fill="midnightblue" stroke="midnightblue" points="525.385,-90.818 534.451,-85.3354 523.945,-83.9678 525.385,-90.818"/>
</g>
<!-- Node14 -->
<g id="node14" class="node"><title>Node14</title>
<g id="a_node14"><a xlink:href="ligand_8h.html" target="_top" xlink:title="Functions for incorporation of ligands binding to haipirn and interior loop motifs. ">
<polygon fill="none" stroke="black" points="0,-62 0,-81 105,-81 105,-62 0,-62"/>
<text text-anchor="middle" x="52.5" y="-69" font-family="Helvetica,sans-Serif" font-size="10.00">ViennaRNA/ligand.h</text>
</a>
</g>
</g>
<!-- Node9&#45;&gt;Node14 -->
<g id="edge22" class="edge"><title>Node9&#45;&gt;Node14</title>
<path fill="none" stroke="midnightblue" d="M274.322,-123.497C234.24,-114.54 169.398,-99.9634 113.5,-87 108.524,-85.8461 103.324,-84.6281 98.147,-83.4082"/>
<polygon fill="midnightblue" stroke="midnightblue" points="98.8252,-79.9721 88.2881,-81.0764 97.214,-86.7842 98.8252,-79.9721"/>
</g>
<!-- Node10&#45;&gt;Node3 -->
<g id="edge15" class="edge"><title>Node10&#45;&gt;Node3</title>
<path fill="none" stroke="midnightblue" d="M189.858,-86.6751C199.128,-103.021 216.649,-129.384 239.5,-143 287.054,-171.336 348.444,-182.517 397.493,-186.65"/>
<polygon fill="midnightblue" stroke="midnightblue" points="397.526,-190.162 407.762,-187.428 398.056,-183.182 397.526,-190.162"/>
</g>
<!-- Node11&#45;&gt;Node3 -->
<g id="edge17" class="edge"><title>Node11&#45;&gt;Node3</title>
<path fill="none" stroke="midnightblue" d="M339.2,-86.5453C370.056,-108.544 429.496,-150.923 460.898,-173.312"/>
<polygon fill="midnightblue" stroke="midnightblue" points="459.149,-176.363 469.324,-179.319 463.213,-170.664 459.149,-176.363"/>
</g>
<!-- Node12&#45;&gt;Node3 -->
<g id="edge19" class="edge"><title>Node12&#45;&gt;Node3</title>
<path fill="none" stroke="midnightblue" d="M457.751,-86.6845C459.193,-101.022 461.965,-123.748 466.5,-143 468.6,-151.918 471.708,-161.583 474.551,-169.662"/>
<polygon fill="midnightblue" stroke="midnightblue" points="471.307,-170.982 478.028,-179.172 477.881,-168.579 471.307,-170.982"/>
</g>
<!-- Node13&#45;&gt;Node3 -->
<g id="edge21" class="edge"><title>Node13&#45;&gt;Node3</title>
<path fill="none" stroke="midnightblue" d="M556.683,-86.5127C538.68,-94.7213 518.27,-106.722 504.5,-123 493.276,-136.269 487.385,-155.394 484.388,-169.465"/>
<polygon fill="midnightblue" stroke="midnightblue" points="480.917,-168.991 482.559,-179.458 487.803,-170.252 480.917,-168.991"/>
</g>
<!-- Node14&#45;&gt;Node3 -->
<g id="edge23" class="edge"><title>Node14&#45;&gt;Node3</title>
<path fill="none" stroke="midnightblue" d="M68.454,-81.0757C96.8149,-95.9543 158.23,-126.534 213.5,-143 273.924,-161.002 344.295,-172.472 397.761,-179.324"/>
<polygon fill="midnightblue" stroke="midnightblue" points="397.523,-182.821 407.881,-180.591 398.393,-175.875 397.523,-182.821"/>
</g>
<!-- Node15&#45;&gt;Node3 -->
<g id="edge38" class="edge"><title>Node15&#45;&gt;Node3</title>
<path fill="none" stroke="midnightblue" d="M348.624,-363.722C336.31,-340.246 306.968,-275.087 336.5,-235 351.134,-215.136 374.451,-203.782 398.146,-197.371"/>
<polygon fill="midnightblue" stroke="midnightblue" points="399.048,-200.754 407.94,-194.993 397.396,-193.951 399.048,-200.754"/>
</g>
<!-- Node15&#45;&gt;Node7 -->
<g id="edge39" class="edge"><title>Node15&#45;&gt;Node7</title>
<path fill="none" stroke="midnightblue" d="M422.111,-364.928C494.223,-356.172 602.272,-340.558 639.5,-322 722.801,-280.474 792.546,-189.048 819.054,-151.066"/>
<polygon fill="midnightblue" stroke="midnightblue" points="822.074,-152.85 824.844,-142.624 816.301,-148.891 822.074,-152.85"/>
</g>
<!-- Node16 -->
<g id="node16" class="node"><title>Node16</title>
<polygon fill="none" stroke="#bfbfbf" points="175,-302.5 175,-321.5 222,-321.5 222,-302.5 175,-302.5"/>
<text text-anchor="middle" x="198.5" y="-309.5" font-family="Helvetica,sans-Serif" font-size="10.00">math.h</text>
</g>
<!-- Node15&#45;&gt;Node16 -->
<g id="edge26" class="edge"><title>Node15&#45;&gt;Node16</title>
<path fill="none" stroke="midnightblue" d="M331.292,-363.975C304.819,-353.813 260.386,-336.756 230.28,-325.2"/>
<polygon fill="midnightblue" stroke="midnightblue" points="231.257,-321.825 220.667,-321.509 228.748,-328.36 231.257,-321.825"/>
</g>
<!-- Node17 -->
<g id="node17" class="node"><title>Node17</title>
<polygon fill="none" stroke="#bfbfbf" points="108,-302.5 108,-321.5 157,-321.5 157,-302.5 108,-302.5"/>
<text text-anchor="middle" x="132.5" y="-309.5" font-family="Helvetica,sans-Serif" font-size="10.00">string.h</text>
</g>
<!-- Node15&#45;&gt;Node17 -->
<g id="edge27" class="edge"><title>Node15&#45;&gt;Node17</title>
<path fill="none" stroke="midnightblue" d="M321.556,-363.959C286.116,-354.475 226.964,-338.619 167.02,-322.405"/>
<polygon fill="midnightblue" stroke="midnightblue" points="167.573,-318.928 157.005,-319.695 165.744,-325.685 167.573,-318.928"/>
</g>
<!-- Node18 -->
<g id="node18" class="node"><title>Node18</title>
<g id="a_node18"><a xlink:href="utils_8h.html" target="_top" xlink:title="General utility&#45; and helper&#45;functions used throughout the ViennaRNA Package. ">
<polygon fill="none" stroke="black" points="532.5,-302.5 532.5,-321.5 630.5,-321.5 630.5,-302.5 532.5,-302.5"/>
<text text-anchor="middle" x="581.5" y="-309.5" font-family="Helvetica,sans-Serif" font-size="10.00">ViennaRNA/utils.h</text>
</a>
</g>
</g>
<!-- Node15&#45;&gt;Node18 -->
<g id="edge28" class="edge"><title>Node15&#45;&gt;Node18</title>
<path fill="none" stroke="midnightblue" d="M386.167,-363.975C426.377,-353.482 494.758,-335.637 539.015,-324.087"/>
<polygon fill="midnightblue" stroke="midnightblue" points="540.102,-327.421 548.894,-321.509 538.334,-320.648 540.102,-327.421"/>
</g>
<!-- Node18&#45;&gt;Node3 -->
<g id="edge30" class="edge"><title>Node18&#45;&gt;Node3</title>
<path fill="none" stroke="midnightblue" d="M569.455,-302.228C558.298,-293.741 541.645,-280.12 529.5,-266 513.656,-247.581 499.33,-223.456 490.536,-207.378"/>
<polygon fill="midnightblue" stroke="midnightblue" points="493.609,-205.703 485.811,-198.53 487.434,-209 493.609,-205.703"/>
</g>
<!-- Node19 -->
<g id="node19" class="node"><title>Node19</title>
<polygon fill="none" stroke="#bfbfbf" points="576.5,-179.5 576.5,-198.5 622.5,-198.5 622.5,-179.5 576.5,-179.5"/>
<text text-anchor="middle" x="599.5" y="-186.5" font-family="Helvetica,sans-Serif" font-size="10.00">stdio.h</text>
</g>
<!-- Node18&#45;&gt;Node19 -->
<g id="edge29" class="edge"><title>Node18&#45;&gt;Node19</title>
<path fill="none" stroke="midnightblue" d="M609.515,-302.397C626.674,-295.515 647.248,-283.984 657.5,-266 664.323,-254.03 663.561,-247.373 657.5,-235 650.977,-221.684 638.404,-211.177 626.627,-203.676"/>
<polygon fill="midnightblue" stroke="midnightblue" points="628.282,-200.589 617.889,-198.529 624.729,-206.621 628.282,-200.589"/>
</g>
<!-- Node20 -->
<g id="node20" class="node"><title>Node20</title>
<g id="a_node20"><a xlink:href="string__utils_8h.html" target="_top" xlink:title="General utility&#45; and helper&#45;functions for RNA sequence and structure strings used throughout the Vien...">
<polygon fill="none" stroke="black" points="355,-241 355,-260 482,-260 482,-241 355,-241"/>
<text text-anchor="middle" x="418.5" y="-248" font-family="Helvetica,sans-Serif" font-size="10.00">ViennaRNA/string_utils.h</text>
</a>
</g>
</g>
<!-- Node18&#45;&gt;Node20 -->
<g id="edge31" class="edge"><title>Node18&#45;&gt;Node20</title>
<path fill="none" stroke="midnightblue" d="M558.146,-302.475C530.186,-292.269 483.174,-275.108 451.509,-263.549"/>
<polygon fill="midnightblue" stroke="midnightblue" points="452.405,-260.15 441.811,-260.009 450.004,-266.726 452.405,-260.15"/>
</g>
<!-- Node21 -->
<g id="node21" class="node"><title>Node21</title>
<g id="a_node21"><a xlink:href="structure__utils_8h.html" target="_top" xlink:title="Various utility&#45; and helper&#45;functions for secondary structure parsing, converting, etc. ">
<polygon fill="none" stroke="black" points="538.5,-235.5 538.5,-265.5 648.5,-265.5 648.5,-235.5 538.5,-235.5"/>
<text text-anchor="start" x="546.5" y="-253.5" font-family="Helvetica,sans-Serif" font-size="10.00">ViennaRNA/structure</text>
<text text-anchor="middle" x="593.5" y="-242.5" font-family="Helvetica,sans-Serif" font-size="10.00">_utils.h</text>
</a>
</g>
</g>
<!-- Node18&#45;&gt;Node21 -->
<g id="edge33" class="edge"><title>Node18&#45;&gt;Node21</title>
<path fill="none" stroke="midnightblue" d="M583.219,-302.475C584.647,-295.396 586.75,-284.97 588.682,-275.39"/>
<polygon fill="midnightblue" stroke="midnightblue" points="592.126,-276.018 590.672,-265.523 585.264,-274.634 592.126,-276.018"/>
</g>
<!-- Node22 -->
<g id="node22" class="node"><title>Node22</title>
<g id="a_node22"><a xlink:href="alphabet_8h.html" target="_top" xlink:title="Functions to process, convert, and generally handle different nucleotide and/or base pair alphabets...">
<polygon fill="none" stroke="black" points="646.5,-179.5 646.5,-198.5 762.5,-198.5 762.5,-179.5 646.5,-179.5"/>
<text text-anchor="middle" x="704.5" y="-186.5" font-family="Helvetica,sans-Serif" font-size="10.00">ViennaRNA/alphabet.h</text>
</a>
</g>
</g>
<!-- Node18&#45;&gt;Node22 -->
<g id="edge36" class="edge"><title>Node18&#45;&gt;Node22</title>
<path fill="none" stroke="midnightblue" d="M612.709,-302.393C632.697,-295.464 657.907,-283.881 674.5,-266 689.396,-249.948 697.235,-225.619 701.113,-208.832"/>
<polygon fill="midnightblue" stroke="midnightblue" points="704.628,-209.109 703.202,-198.61 697.77,-207.707 704.628,-209.109"/>
</g>
<!-- Node20&#45;&gt;Node3 -->
<g id="edge32" class="edge"><title>Node20&#45;&gt;Node3</title>
<path fill="none" stroke="midnightblue" d="M427.526,-240.975C437.257,-231.785 452.958,-216.956 464.923,-205.656"/>
<polygon fill="midnightblue" stroke="midnightblue" points="467.623,-207.92 472.49,-198.509 462.817,-202.831 467.623,-207.92"/>
</g>
<!-- Node21&#45;&gt;Node3 -->
<g id="edge35" class="edge"><title>Node21&#45;&gt;Node3</title>
<path fill="none" stroke="midnightblue" d="M566.958,-235.399C548.837,-225.773 524.964,-213.09 507.057,-203.577"/>
<polygon fill="midnightblue" stroke="midnightblue" points="508.27,-200.258 497.797,-198.658 504.986,-206.44 508.27,-200.258"/>
</g>
<!-- Node21&#45;&gt;Node19 -->
<g id="edge34" class="edge"><title>Node21&#45;&gt;Node19</title>
<path fill="none" stroke="midnightblue" d="M594.922,-235.399C595.722,-227.466 596.731,-217.458 597.598,-208.858"/>
<polygon fill="midnightblue" stroke="midnightblue" points="601.106,-208.959 598.627,-198.658 594.141,-208.256 601.106,-208.959"/>
</g>
<!-- Node22&#45;&gt;Node6 -->
<g id="edge37" class="edge"><title>Node22&#45;&gt;Node6</title>
<path fill="none" stroke="midnightblue" d="M706.68,-179.319C711.361,-160.673 722.467,-116.443 728.822,-91.1317"/>
<polygon fill="midnightblue" stroke="midnightblue" points="732.254,-91.8333 731.295,-81.282 725.465,-90.1286 732.254,-91.8333"/>
</g>
<!-- Node23&#45;&gt;Node3 -->
<g id="edge44" class="edge"><title>Node23&#45;&gt;Node3</title>
<path fill="none" stroke="midnightblue" d="M518.608,-364.36C465.038,-352.782 383.336,-325.883 345.5,-266 338.141,-254.352 337.432,-246.168 345.5,-235 358.073,-217.597 377.632,-206.813 398.035,-200.165"/>
<polygon fill="midnightblue" stroke="midnightblue" points="399.159,-203.482 407.768,-197.307 397.187,-196.766 399.159,-203.482"/>
</g>
<!-- Node23&#45;&gt;Node7 -->
<g id="edge45" class="edge"><title>Node23&#45;&gt;Node7</title>
<path fill="none" stroke="midnightblue" d="M620.211,-360.116C623.351,-359.389 626.467,-358.678 629.5,-358 706.993,-340.671 750.219,-379.956 804.5,-322 848.591,-274.925 840.455,-189.92 834.184,-152.516"/>
<polygon fill="midnightblue" stroke="midnightblue" points="837.6,-151.738 832.357,-142.531 830.714,-152.997 837.6,-151.738"/>
</g>
<!-- Node23&#45;&gt;Node9 -->
<g id="edge46" class="edge"><title>Node23&#45;&gt;Node9</title>
<path fill="none" stroke="midnightblue" d="M518.808,-368.752C477.406,-363.581 418.998,-351.277 376.5,-322 320.423,-283.369 312.779,-192.446 312.214,-152.911"/>
<polygon fill="midnightblue" stroke="midnightblue" points="315.714,-152.805 312.214,-142.805 308.714,-152.805 315.714,-152.805"/>
</g>
<!-- Node23&#45;&gt;Node18 -->
<g id="edge41" class="edge"><title>Node23&#45;&gt;Node18</title>
<path fill="none" stroke="midnightblue" d="M572.344,-358.399C573.962,-350.377 576.008,-340.233 577.755,-331.569"/>
<polygon fill="midnightblue" stroke="midnightblue" points="581.208,-332.152 579.754,-321.658 574.346,-330.768 581.208,-332.152"/>
</g>
<!-- Node24 -->
<g id="node24" class="node"><title>Node24</title>
<g id="a_node24"><a xlink:href="energy__par_8h_source.html" target="_top" xlink:title="ViennaRNA/energy_par.h">
<polygon fill="none" stroke="black" points="1016.5,-241 1016.5,-260 1144.5,-260 1144.5,-241 1016.5,-241"/>
<text text-anchor="middle" x="1080.5" y="-248" font-family="Helvetica,sans-Serif" font-size="10.00">ViennaRNA/energy_par.h</text>
</a>
</g>
</g>
<!-- Node23&#45;&gt;Node24 -->
<g id="edge42" class="edge"><title>Node23&#45;&gt;Node24</title>
<path fill="none" stroke="midnightblue" d="M620.183,-359.989C623.331,-359.293 626.456,-358.624 629.5,-358 723.552,-338.712 748.969,-343.674 842.5,-322 915.835,-305.006 999.903,-278.379 1045.91,-263.177"/>
<polygon fill="midnightblue" stroke="midnightblue" points="1047.02,-266.498 1055.41,-260.024 1044.81,-259.854 1047.02,-266.498"/>
</g>
<!-- Node24&#45;&gt;Node4 -->
<g id="edge43" class="edge"><title>Node24&#45;&gt;Node4</title>
<path fill="none" stroke="midnightblue" d="M1070.52,-240.963C1037.88,-213.054 934.005,-124.236 891.696,-88.0589"/>
<polygon fill="midnightblue" stroke="midnightblue" points="893.746,-85.2071 883.871,-81.3684 889.197,-90.5274 893.746,-85.2071"/>
</g>
<!-- Node25&#45;&gt;Node3 -->
<g id="edge49" class="edge"><title>Node25&#45;&gt;Node3</title>
<path fill="none" stroke="midnightblue" d="M699.465,-358.096C698.583,-330.162 692.521,-268.441 657.5,-235 641.768,-219.978 591.89,-208.079 549.231,-200.299"/>
<polygon fill="midnightblue" stroke="midnightblue" points="549.59,-196.808 539.132,-198.508 548.367,-203.701 549.59,-196.808"/>
</g>
<!-- Node25&#45;&gt;Node7 -->
<g id="edge50" class="edge"><title>Node25&#45;&gt;Node7</title>
<path fill="none" stroke="midnightblue" d="M760.586,-358.419C794.759,-349.17 832.465,-336.187 842.5,-322 879.301,-269.976 853.131,-188.238 838.528,-152.154"/>
<polygon fill="midnightblue" stroke="midnightblue" points="841.567,-150.353 834.45,-142.505 835.119,-153.078 841.567,-150.353"/>
</g>
<!-- Node25&#45;&gt;Node18 -->
<g id="edge48" class="edge"><title>Node25&#45;&gt;Node18</title>
<path fill="none" stroke="midnightblue" d="M671.536,-358.399C652.179,-348.639 626.592,-335.737 607.644,-326.183"/>
<polygon fill="midnightblue" stroke="midnightblue" points="609.175,-323.035 598.67,-321.658 606.023,-329.285 609.175,-323.035"/>
</g>
</g>
</svg>
        <g id="navigator" transform="translate(0 0)" fill="#404254">
                <rect fill="#f2f5e9" fill-opacity="0.5" stroke="#606060" stroke-width=".5" x="0" y="0" width="60" height="60"/>
                <use id="zoomplus" xlink:href="#zoomPlus" x="17" y="9" onmousedown="handleZoom(evt,'in')"/>
                <use id="zoomminus" xlink:href="#zoomMin" x="42" y="9" onmousedown="handleZoom(evt,'out')"/>
                <use id="reset" xlink:href="#resetDef" x="30" y="36" onmousedown="handleReset()"/>
                <g id="arrowUp" xlink:href="#dirArrow" transform="translate(30 24)" onmousedown="handlePan(0,-1)">
                  <use xlink:href="#rim" fill="#404040">
                        <set attributeName="fill" to="#808080" begin="arrowUp.mouseover" end="arrowUp.mouseout"/>
                  </use>
                  <path fill="none" stroke="white" stroke-width="1.5" d="M0,-3.0v7 M-2.5,-0.5L0,-3.0L2.5,-0.5"/>
                </g>
                <g id="arrowRight" xlink:href="#dirArrow" transform="rotate(90) translate(36 -43)" onmousedown="handlePan(1,0)">
                  <use xlink:href="#rim" fill="#404040">
                        <set attributeName="fill" to="#808080" begin="arrowRight.mouseover" end="arrowRight.mouseout"/>
                  </use>
                  <path fill="none" stroke="white" stroke-width="1.5" d="M0,-3.0v7 M-2.5,-0.5L0,-3.0L2.5,-0.5"/>
                </g>
                <g id="arrowDown" xlink:href="#dirArrow" transform="rotate(180) translate(-30 -48)" onmousedown="handlePan(0,1)">
                  <use xlink:href="#rim" fill="#404040">
                        <set attributeName="fill" to="#808080" begin="arrowDown.mouseover" end="arrowDown.mouseout"/>
                  </use>
                  <path fill="none" stroke="white" stroke-width="1.5" d="M0,-3.0v7 M-2.5,-0.5L0,-3.0L2.5,-0.5"/>
                </g>
                <g id="arrowLeft" xlink:href="#dirArrow" transform="rotate(270) translate(-36 17)" onmousedown="handlePan(-1,0)">
                  <use xlink:href="#rim" fill="#404040">
                        <set attributeName="fill" to="#808080" begin="arrowLeft.mouseover" end="arrowLeft.mouseout"/>
                  </use>
                  <path fill="none" stroke="white" stroke-width="1.5" d="M0,-3.0v7 M-2.5,-0.5L0,-3.0L2.5,-0.5"/>
                </g>
        </g>
        <svg viewBox="0 0 15 15" width="100%" height="30px" preserveAspectRatio="xMaxYMin meet">
         <g id="arrow_out" transform="scale(0.3 0.3)">
          <a xlink:href="loop__energies_8h__incl_org.svg" target="_base">
           <rect id="button" ry="5" rx="5" y="6" x="6" height="38" width="38"
                fill="#f2f5e9" fill-opacity="0.5" stroke="#606060" stroke-width="1.0"/>
           <path id="arrow"
             d="M 11.500037,31.436501 C 11.940474,20.09759 22.043105,11.32322 32.158766,21.979434 L 37.068811,17.246167 C 37.068811,17.246167 37.088388,32 37.088388,32 L 22.160133,31.978069 C 22.160133,31.978069 26.997745,27.140456 26.997745,27.140456 C 18.528582,18.264221 13.291696,25.230495 11.500037,31.436501 z"
             style="fill:#404040;"/>
          </a>
         </g>
        </svg>
</svg>
