<?xml version="1.0" encoding="UTF-8" standalone="no"?>
<!DOCTYPE svg PUBLIC "-//W3C//DTD SVG 1.1//EN"
 "http://www.w3.org/Graphics/SVG/1.1/DTD/svg11.dtd">
<!-- Generated by graphviz version 2.38.0 (20140413.2041)
 -->
<!-- Title: ViennaRNA/MEA.h Pages: 1 -->
<svg width="946pt" height="263pt"
 viewBox="0.00 0.00 945.50 263.00" xmlns="http://www.w3.org/2000/svg" xmlns:xlink="http://www.w3.org/1999/xlink">
<g id="graph0" class="graph" transform="scale(1 1) rotate(0) translate(4 259)">
<title>ViennaRNA/MEA.h</title>
<!-- Node1 -->
<g id="node1" class="node"><title>Node1</title>
<polygon fill="#bfbfbf" stroke="black" points="251.5,-235.5 251.5,-254.5 352.5,-254.5 352.5,-235.5 251.5,-235.5"/>
<text text-anchor="middle" x="302" y="-242.5" font-family="Helvetica,sans-Serif" font-size="10.00">ViennaRNA/MEA.h</text>
</g>
<!-- Node2 -->
<g id="node2" class="node"><title>Node2</title>
<g id="a_node2"><a xlink:href="data__structures_8h.html" target="_top" xlink:title="ViennaRNA/data_structures.h">
<polygon fill="none" stroke="black" points="322.5,-179.5 322.5,-198.5 469.5,-198.5 469.5,-179.5 322.5,-179.5"/>
<text text-anchor="middle" x="396" y="-186.5" font-family="Helvetica,sans-Serif" font-size="10.00">ViennaRNA/data_structures.h</text>
</a>
</g>
</g>
<!-- Node1&#45;&gt;Node2 -->
<g id="edge1" class="edge"><title>Node1&#45;&gt;Node2</title>
<path fill="none" stroke="midnightblue" d="M317.103,-235.324C331.903,-226.822 354.694,-213.729 371.982,-203.797"/>
<polygon fill="midnightblue" stroke="midnightblue" points="374.007,-206.671 380.935,-198.655 370.52,-200.601 374.007,-206.671"/>
</g>
<!-- Node6 -->
<g id="node6" class="node"><title>Node6</title>
<g id="a_node6"><a xlink:href="params_8h.html" target="_top" xlink:title="ViennaRNA/params.h">
<polygon fill="none" stroke="black" points="47,-123.5 47,-142.5 159,-142.5 159,-123.5 47,-123.5"/>
<text text-anchor="middle" x="103" y="-130.5" font-family="Helvetica,sans-Serif" font-size="10.00">ViennaRNA/params.h</text>
</a>
</g>
</g>
<!-- Node1&#45;&gt;Node6 -->
<g id="edge23" class="edge"><title>Node1&#45;&gt;Node6</title>
<path fill="none" stroke="midnightblue" d="M286.385,-235.368C251.873,-216.292 168.891,-170.422 127.433,-147.505"/>
<polygon fill="midnightblue" stroke="midnightblue" points="128.988,-144.366 118.543,-142.591 125.601,-150.492 128.988,-144.366"/>
</g>
<!-- Node3 -->
<g id="node3" class="node"><title>Node3</title>
<g id="a_node3"><a xlink:href="energy__const_8h.html" target="_top" xlink:title="ViennaRNA/energy_const.h">
<polygon fill="none" stroke="black" points="124,-62 124,-81 262,-81 262,-62 124,-62"/>
<text text-anchor="middle" x="193" y="-69" font-family="Helvetica,sans-Serif" font-size="10.00">ViennaRNA/energy_const.h</text>
</a>
</g>
</g>
<!-- Node2&#45;&gt;Node3 -->
<g id="edge2" class="edge"><title>Node2&#45;&gt;Node3</title>
<path fill="none" stroke="midnightblue" d="M393.169,-179.464C388.126,-165.568 376.269,-138.096 357,-123 338.909,-108.828 283.06,-93.3961 241.533,-83.3704"/>
<polygon fill="midnightblue" stroke="midnightblue" points="242.121,-79.9127 231.583,-81.0045 240.502,-86.7228 242.121,-79.9127"/>
</g>
<!-- Node5 -->
<g id="node5" class="node"><title>Node5</title>
<g id="a_node5"><a xlink:href="model_8h.html" target="_top" xlink:title="The model details data structure and its corresponding modifiers. ">
<polygon fill="none" stroke="black" points="0,-62 0,-81 106,-81 106,-62 0,-62"/>
<text text-anchor="middle" x="53" y="-69" font-family="Helvetica,sans-Serif" font-size="10.00">ViennaRNA/model.h</text>
</a>
</g>
</g>
<!-- Node2&#45;&gt;Node5 -->
<g id="edge4" class="edge"><title>Node2&#45;&gt;Node5</title>
<path fill="none" stroke="midnightblue" d="M344.562,-179.456C305.736,-172.141 251.552,-160.069 206,-143 188.128,-136.303 185.192,-131.286 168,-123 139.469,-109.248 106.292,-94.8446 82.9272,-84.9555"/>
<polygon fill="midnightblue" stroke="midnightblue" points="84.1309,-81.6648 73.5564,-81.0089 81.4138,-88.116 84.1309,-81.6648"/>
</g>
<!-- Node2&#45;&gt;Node6 -->
<g id="edge5" class="edge"><title>Node2&#45;&gt;Node6</title>
<path fill="none" stroke="midnightblue" d="M344.485,-179.444C290.859,-169.944 207.538,-154.611 154.078,-144.42"/>
<polygon fill="midnightblue" stroke="midnightblue" points="154.609,-140.958 144.13,-142.516 153.294,-147.833 154.609,-140.958"/>
</g>
<!-- Node7 -->
<g id="node7" class="node"><title>Node7</title>
<g id="a_node7"><a xlink:href="dp__matrices_8h.html" target="_top" xlink:title="ViennaRNA/dp_matrices.h">
<polygon fill="none" stroke="black" points="215.5,-123.5 215.5,-142.5 348.5,-142.5 348.5,-123.5 215.5,-123.5"/>
<text text-anchor="middle" x="282" y="-130.5" font-family="Helvetica,sans-Serif" font-size="10.00">ViennaRNA/dp_matrices.h</text>
</a>
</g>
</g>
<!-- Node2&#45;&gt;Node7 -->
<g id="edge9" class="edge"><title>Node2&#45;&gt;Node7</title>
<path fill="none" stroke="midnightblue" d="M372.848,-179.444C352.597,-170.754 323.68,-157.183 303.835,-147.131"/>
<polygon fill="midnightblue" stroke="midnightblue" points="305.39,-143.995 294.899,-142.516 302.178,-150.215 305.39,-143.995"/>
</g>
<!-- Node8 -->
<g id="node8" class="node"><title>Node8</title>
<g id="a_node8"><a xlink:href="constraints_8h.html" target="_top" xlink:title="Functions and data structures for constraining secondary structure predictions and evaluation...">
<polygon fill="none" stroke="black" points="481,-123.5 481,-142.5 609,-142.5 609,-123.5 481,-123.5"/>
<text text-anchor="middle" x="545" y="-130.5" font-family="Helvetica,sans-Serif" font-size="10.00">ViennaRNA/constraints.h</text>
</a>
</g>
</g>
<!-- Node2&#45;&gt;Node8 -->
<g id="edge11" class="edge"><title>Node2&#45;&gt;Node8</title>
<path fill="none" stroke="midnightblue" d="M414.521,-179.444C437.594,-170.359 477.184,-155.939 506.798,-145.783"/>
<polygon fill="midnightblue" stroke="midnightblue" points="508.077,-149.045 516.421,-142.516 505.827,-142.417 508.077,-149.045"/>
</g>
<!-- Node4 -->
<g id="node4" class="node"><title>Node4</title>
<polygon fill="none" stroke="#bfbfbf" points="169,-0.5 169,-19.5 217,-19.5 217,-0.5 169,-0.5"/>
<text text-anchor="middle" x="193" y="-7.5" font-family="Helvetica,sans-Serif" font-size="10.00">limits.h</text>
</g>
<!-- Node3&#45;&gt;Node4 -->
<g id="edge3" class="edge"><title>Node3&#45;&gt;Node4</title>
<path fill="none" stroke="midnightblue" d="M193,-61.9751C193,-53.5803 193,-40.4806 193,-29.6631"/>
<polygon fill="midnightblue" stroke="midnightblue" points="196.5,-29.5091 193,-19.5091 189.5,-29.5091 196.5,-29.5091"/>
</g>
<!-- Node6&#45;&gt;Node2 -->
<g id="edge7" class="edge"><title>Node6&#45;&gt;Node2</title>
<path fill="none" stroke="midnightblue" d="M154.289,-142.516C207.831,-151.999 291.153,-167.332 344.697,-177.537"/>
<polygon fill="midnightblue" stroke="midnightblue" points="344.182,-181.002 354.662,-179.444 345.498,-174.127 344.182,-181.002"/>
</g>
<!-- Node6&#45;&gt;Node3 -->
<g id="edge6" class="edge"><title>Node6&#45;&gt;Node3</title>
<path fill="none" stroke="midnightblue" d="M115.895,-123.475C130.464,-113.843 154.402,-98.0175 171.745,-86.5517"/>
<polygon fill="midnightblue" stroke="midnightblue" points="173.717,-89.4437 180.129,-81.0091 169.857,-83.6044 173.717,-89.4437"/>
</g>
<!-- Node6&#45;&gt;Node5 -->
<g id="edge8" class="edge"><title>Node6&#45;&gt;Node5</title>
<path fill="none" stroke="midnightblue" d="M95.8362,-123.475C88.2619,-114.462 76.1299,-100.025 66.7074,-88.8118"/>
<polygon fill="midnightblue" stroke="midnightblue" points="69.2635,-86.4132 60.1505,-81.0091 63.9044,-90.9166 69.2635,-86.4132"/>
</g>
<!-- Node7&#45;&gt;Node2 -->
<g id="edge10" class="edge"><title>Node7&#45;&gt;Node2</title>
<path fill="none" stroke="midnightblue" d="M305.381,-142.655C325.524,-151.307 354.121,-164.727 373.883,-174.726"/>
<polygon fill="midnightblue" stroke="midnightblue" points="372.307,-177.851 382.799,-179.324 375.515,-171.63 372.307,-177.851"/>
</g>
<!-- Node8&#45;&gt;Node2 -->
<g id="edge12" class="edge"><title>Node8&#45;&gt;Node2</title>
<path fill="none" stroke="midnightblue" d="M526.581,-142.516C503.556,-151.585 463.976,-166.004 434.332,-176.172"/>
<polygon fill="midnightblue" stroke="midnightblue" points="433.042,-172.914 424.698,-179.444 435.293,-179.542 433.042,-172.914"/>
</g>
<!-- Node9 -->
<g id="node9" class="node"><title>Node9</title>
<g id="a_node9"><a xlink:href="constraints__hard_8h.html" target="_top" xlink:title="Functions and data structures for handling of secondary structure hard constraints. ">
<polygon fill="none" stroke="black" points="280.5,-56.5 280.5,-86.5 399.5,-86.5 399.5,-56.5 280.5,-56.5"/>
<text text-anchor="start" x="288.5" y="-74.5" font-family="Helvetica,sans-Serif" font-size="10.00">ViennaRNA/constraints</text>
<text text-anchor="middle" x="340" y="-63.5" font-family="Helvetica,sans-Serif" font-size="10.00">_hard.h</text>
</a>
</g>
</g>
<!-- Node8&#45;&gt;Node9 -->
<g id="edge13" class="edge"><title>Node8&#45;&gt;Node9</title>
<path fill="none" stroke="midnightblue" d="M515.628,-123.475C485.14,-114.626 436.638,-100.549 398.322,-89.4277"/>
<polygon fill="midnightblue" stroke="midnightblue" points="398.894,-85.9492 388.314,-86.523 396.942,-92.6717 398.894,-85.9492"/>
</g>
<!-- Node10 -->
<g id="node10" class="node"><title>Node10</title>
<g id="a_node10"><a xlink:href="constraints__soft_8h.html" target="_top" xlink:title="Functions and data structures for secondary structure soft constraints. ">
<polygon fill="none" stroke="black" points="417.5,-56.5 417.5,-86.5 536.5,-86.5 536.5,-56.5 417.5,-56.5"/>
<text text-anchor="start" x="425.5" y="-74.5" font-family="Helvetica,sans-Serif" font-size="10.00">ViennaRNA/constraints</text>
<text text-anchor="middle" x="477" y="-63.5" font-family="Helvetica,sans-Serif" font-size="10.00">_soft.h</text>
</a>
</g>
</g>
<!-- Node8&#45;&gt;Node10 -->
<g id="edge15" class="edge"><title>Node8&#45;&gt;Node10</title>
<path fill="none" stroke="midnightblue" d="M535.257,-123.475C526.306,-115.643 512.674,-103.714 500.846,-93.3656"/>
<polygon fill="midnightblue" stroke="midnightblue" points="502.857,-90.474 493.026,-86.523 498.247,-95.7421 502.857,-90.474"/>
</g>
<!-- Node11 -->
<g id="node11" class="node"><title>Node11</title>
<g id="a_node11"><a xlink:href="constraints__SHAPE_8h.html" target="_top" xlink:title="This module provides function to incorporate SHAPE reactivity data into the folding recursions by mea...">
<polygon fill="none" stroke="black" points="554.5,-56.5 554.5,-86.5 673.5,-86.5 673.5,-56.5 554.5,-56.5"/>
<text text-anchor="start" x="562.5" y="-74.5" font-family="Helvetica,sans-Serif" font-size="10.00">ViennaRNA/constraints</text>
<text text-anchor="middle" x="614" y="-63.5" font-family="Helvetica,sans-Serif" font-size="10.00">_SHAPE.h</text>
</a>
</g>
</g>
<!-- Node8&#45;&gt;Node11 -->
<g id="edge17" class="edge"><title>Node8&#45;&gt;Node11</title>
<path fill="none" stroke="midnightblue" d="M554.886,-123.475C564.056,-115.567 578.068,-103.485 590.149,-93.0675"/>
<polygon fill="midnightblue" stroke="midnightblue" points="592.451,-95.7041 597.738,-86.523 587.879,-90.4029 592.451,-95.7041"/>
</g>
<!-- Node12 -->
<g id="node12" class="node"><title>Node12</title>
<g id="a_node12"><a xlink:href="perturbation__fold_8h.html" target="_top" xlink:title="Find a vector of perturbation energies that minimizes the discripancies between predicted and observe...">
<polygon fill="none" stroke="black" points="692,-56.5 692,-86.5 814,-86.5 814,-56.5 692,-56.5"/>
<text text-anchor="start" x="700" y="-74.5" font-family="Helvetica,sans-Serif" font-size="10.00">ViennaRNA/perturbation</text>
<text text-anchor="middle" x="753" y="-63.5" font-family="Helvetica,sans-Serif" font-size="10.00">_fold.h</text>
</a>
</g>
</g>
<!-- Node8&#45;&gt;Node12 -->
<g id="edge19" class="edge"><title>Node8&#45;&gt;Node12</title>
<path fill="none" stroke="midnightblue" d="M574.801,-123.475C605.868,-114.588 655.366,-100.429 694.32,-89.2859"/>
<polygon fill="midnightblue" stroke="midnightblue" points="695.327,-92.6383 703.979,-86.523 693.402,-85.9083 695.327,-92.6383"/>
</g>
<!-- Node13 -->
<g id="node13" class="node"><title>Node13</title>
<g id="a_node13"><a xlink:href="ligand_8h.html" target="_top" xlink:title="Functions for incorporation of ligands binding to haipirn and interior loop motifs. ">
<polygon fill="none" stroke="black" points="832.5,-62 832.5,-81 937.5,-81 937.5,-62 832.5,-62"/>
<text text-anchor="middle" x="885" y="-69" font-family="Helvetica,sans-Serif" font-size="10.00">ViennaRNA/ligand.h</text>
</a>
</g>
</g>
<!-- Node8&#45;&gt;Node13 -->
<g id="edge21" class="edge"><title>Node8&#45;&gt;Node13</title>
<path fill="none" stroke="midnightblue" d="M605.138,-123.494C661.59,-115.219 748.295,-101.763 823,-87 828.697,-85.8742 834.666,-84.5998 840.557,-83.2853"/>
<polygon fill="midnightblue" stroke="midnightblue" points="841.362,-86.6916 850.333,-81.0543 839.805,-79.867 841.362,-86.6916"/>
</g>
<!-- Node9&#45;&gt;Node2 -->
<g id="edge14" class="edge"><title>Node9&#45;&gt;Node2</title>
<path fill="none" stroke="midnightblue" d="M360.216,-86.6843C371.35,-95.7041 384.247,-108.413 391,-123 397.686,-137.443 398.535,-155.633 397.943,-169.094"/>
<polygon fill="midnightblue" stroke="midnightblue" points="394.45,-168.872 397.202,-179.103 401.431,-169.389 394.45,-168.872"/>
</g>
<!-- Node10&#45;&gt;Node2 -->
<g id="edge16" class="edge"><title>Node10&#45;&gt;Node2</title>
<path fill="none" stroke="midnightblue" d="M467.15,-86.5453C452.252,-107.789 424.026,-148.037 407.967,-170.936"/>
<polygon fill="midnightblue" stroke="midnightblue" points="404.964,-169.122 402.088,-179.319 410.696,-173.141 404.964,-169.122"/>
</g>
<!-- Node11&#45;&gt;Node2 -->
<g id="edge18" class="edge"><title>Node11&#45;&gt;Node2</title>
<path fill="none" stroke="midnightblue" d="M619.912,-86.6723C625.375,-102.279 630.881,-127.245 618,-143 600.483,-164.424 535.129,-175.892 479.83,-181.877"/>
<polygon fill="midnightblue" stroke="midnightblue" points="479.222,-178.421 469.635,-182.931 479.942,-185.384 479.222,-178.421"/>
</g>
<!-- Node12&#45;&gt;Node2 -->
<g id="edge20" class="edge"><title>Node12&#45;&gt;Node2</title>
<path fill="none" stroke="midnightblue" d="M734.228,-86.7386C711.986,-102.891 673.233,-128.822 636,-143 585.895,-162.079 526.722,-173.289 479.669,-179.75"/>
<polygon fill="midnightblue" stroke="midnightblue" points="478.969,-176.312 469.516,-181.096 479.889,-183.251 478.969,-176.312"/>
</g>
<!-- Node13&#45;&gt;Node2 -->
<g id="edge22" class="edge"><title>Node13&#45;&gt;Node2</title>
<path fill="none" stroke="midnightblue" d="M862.843,-81.0767C824.358,-95.6839 742.428,-125.504 671,-143 606.527,-158.793 532.166,-170.584 477.038,-178.126"/>
<polygon fill="midnightblue" stroke="midnightblue" points="476.417,-174.678 466.975,-179.484 477.354,-181.615 476.417,-174.678"/>
</g>
</g>
</svg>
