<?xml version="1.0" encoding="UTF-8" standalone="no"?>
<!DOCTYPE svg PUBLIC "-//W3C//DTD SVG 1.1//EN"
 "http://www.w3.org/Graphics/SVG/1.1/DTD/svg11.dtd">
<!-- Generated by graphviz version 2.38.0 (20140413.2041)
 -->
<!-- Title: ViennaRNA/multibranch_loops.h Pages: 1 -->
<!--zoomable 397 -->
<svg id="main" version="1.1" xmlns="http://www.w3.org/2000/svg" xmlns:xlink="http://www.w3.org/1999/xlink" xml:space="preserve" onload="init(evt)">
<style type="text/css"><![CDATA[
.edge:hover path { stroke: red; }
.edge:hover polygon { stroke: red; fill: red; }
]]></style>
<script type="text/javascript"><![CDATA[
var edges = document.getElementsByTagName('g');
if (edges && edges.length) {
  for (var i=0;i<edges.length;i++) {
    if (edges[i].id.substr(0,4)=='edge') {
      edges[i].setAttribute('class','edge');
    }
  }
}
]]></script>
        <defs>
                <circle id="rim" cx="0" cy="0" r="7"/>
                <circle id="rim2" cx="0" cy="0" r="3.5"/>
                <g id="zoomPlus">
                        <use xlink:href="#rim" fill="#404040">
                                <set attributeName="fill" to="#808080" begin="zoomplus.mouseover" end="zoomplus.mouseout"/>
                        </use>
                        <path d="M-4,0h8M0,-4v8" fill="none" stroke="white" stroke-width="1.5" pointer-events="none"/>
                </g>
                <g id="zoomMin">
                        <use xlink:href="#rim" fill="#404040">
                                <set attributeName="fill" to="#808080" begin="zoomminus.mouseover" end="zoomminus.mouseout"/>
                        </use>
                        <path d="M-4,0h8" fill="none" stroke="white" stroke-width="1.5" pointer-events="none"/>
                </g>
                <g id="dirArrow">
                        <path fill="none" stroke="white" stroke-width="1.5" d="M0,-3.0v7 M-2.5,-0.5L0,-3.0L2.5,-0.5"/>
                </g>
               <g id="resetDef">
                       <use xlink:href="#rim2" fill="#404040">
                               <set attributeName="fill" to="#808080" begin="reset.mouseover" end="reset.mouseout"/>
                       </use>
               </g>
        </defs>

<script type="text/javascript">
var viewWidth = 946;
var viewHeight = 397;
var sectionId = 'dynsection-0';
</script>
<script xlink:href="svgpan.js"/>
<svg id="graph" class="graph">
<g id="viewport">
<title>ViennaRNA/multibranch_loops.h</title>
<!-- Node1 -->
<g id="node1" class="node"><title>Node1</title>
<polygon fill="#bfbfbf" stroke="black" points="553.5,-358.5 553.5,-388.5 675.5,-388.5 675.5,-358.5 553.5,-358.5"/>
<text text-anchor="start" x="561.5" y="-376.5" font-family="Helvetica,sans-Serif" font-size="10.00">ViennaRNA/multibranch</text>
<text text-anchor="middle" x="614.5" y="-365.5" font-family="Helvetica,sans-Serif" font-size="10.00">_loops.h</text>
</g>
<!-- Node2 -->
<g id="node2" class="node"><title>Node2</title>
<g id="a_node2"><a xlink:href="utils_8h.html" target="_top" xlink:title="General utility&#45; and helper&#45;functions used throughout the ViennaRNA Package. ">
<polygon fill="none" stroke="black" points="565.5,-302.5 565.5,-321.5 663.5,-321.5 663.5,-302.5 565.5,-302.5"/>
<text text-anchor="middle" x="614.5" y="-309.5" font-family="Helvetica,sans-Serif" font-size="10.00">ViennaRNA/utils.h</text>
</a>
</g>
</g>
<!-- Node1&#45;&gt;Node2 -->
<g id="edge1" class="edge"><title>Node1&#45;&gt;Node2</title>
<path fill="none" stroke="midnightblue" d="M614.5,-358.399C614.5,-350.466 614.5,-340.458 614.5,-331.858"/>
<polygon fill="midnightblue" stroke="midnightblue" points="618,-331.658 614.5,-321.658 611,-331.658 618,-331.658"/>
</g>
<!-- Node4 -->
<g id="node4" class="node"><title>Node4</title>
<g id="a_node4"><a xlink:href="data__structures_8h.html" target="_top" xlink:title="ViennaRNA/data_structures.h">
<polygon fill="none" stroke="black" points="401,-179.5 401,-198.5 548,-198.5 548,-179.5 401,-179.5"/>
<text text-anchor="middle" x="474.5" y="-186.5" font-family="Helvetica,sans-Serif" font-size="10.00">ViennaRNA/data_structures.h</text>
</a>
</g>
</g>
<!-- Node1&#45;&gt;Node4 -->
<g id="edge32" class="edge"><title>Node1&#45;&gt;Node4</title>
<path fill="none" stroke="midnightblue" d="M553.433,-365.214C494.312,-354.555 407.749,-328.605 366.5,-266 358.92,-254.495 358.857,-246.464 366.5,-235 377.292,-218.811 395.128,-208.437 413.226,-201.793"/>
<polygon fill="midnightblue" stroke="midnightblue" points="414.581,-205.031 422.97,-198.56 412.376,-198.387 414.581,-205.031"/>
</g>
<!-- Node8 -->
<g id="node8" class="node"><title>Node8</title>
<g id="a_node8"><a xlink:href="params_8h.html" target="_top" xlink:title="ViennaRNA/params.h">
<polygon fill="none" stroke="black" points="708.5,-123.5 708.5,-142.5 820.5,-142.5 820.5,-123.5 708.5,-123.5"/>
<text text-anchor="middle" x="764.5" y="-130.5" font-family="Helvetica,sans-Serif" font-size="10.00">ViennaRNA/params.h</text>
</a>
</g>
</g>
<!-- Node1&#45;&gt;Node8 -->
<g id="edge33" class="edge"><title>Node1&#45;&gt;Node8</title>
<path fill="none" stroke="midnightblue" d="M639.522,-358.315C681.58,-332.817 764.94,-274.759 796.5,-199 803.563,-182.046 792.158,-163.286 781.055,-150.296"/>
<polygon fill="midnightblue" stroke="midnightblue" points="783.36,-147.633 774,-142.67 778.222,-152.387 783.36,-147.633"/>
</g>
<!-- Node3 -->
<g id="node3" class="node"><title>Node3</title>
<polygon fill="none" stroke="#bfbfbf" points="596.5,-179.5 596.5,-198.5 642.5,-198.5 642.5,-179.5 596.5,-179.5"/>
<text text-anchor="middle" x="619.5" y="-186.5" font-family="Helvetica,sans-Serif" font-size="10.00">stdio.h</text>
</g>
<!-- Node2&#45;&gt;Node3 -->
<g id="edge2" class="edge"><title>Node2&#45;&gt;Node3</title>
<path fill="none" stroke="midnightblue" d="M635.983,-302.36C650.892,-295.09 669.611,-283.117 678.5,-266 684.85,-253.773 684.612,-247.348 678.5,-235 671.897,-221.659 659.235,-211.194 647.329,-203.726"/>
<polygon fill="midnightblue" stroke="midnightblue" points="648.891,-200.587 638.484,-198.602 645.382,-206.643 648.891,-200.587"/>
</g>
<!-- Node2&#45;&gt;Node4 -->
<g id="edge3" class="edge"><title>Node2&#45;&gt;Node4</title>
<path fill="none" stroke="midnightblue" d="M600.766,-302.337C587.455,-293.715 566.926,-279.811 550.5,-266 527.878,-246.98 504.156,-222.403 489.355,-206.426"/>
<polygon fill="midnightblue" stroke="midnightblue" points="491.819,-203.935 482.481,-198.93 486.66,-208.666 491.819,-203.935"/>
</g>
<!-- Node16 -->
<g id="node16" class="node"><title>Node16</title>
<g id="a_node16"><a xlink:href="string__utils_8h.html" target="_top" xlink:title="General utility&#45; and helper&#45;functions for RNA sequence and structure strings used throughout the Vien...">
<polygon fill="none" stroke="black" points="376,-241 376,-260 503,-260 503,-241 376,-241"/>
<text text-anchor="middle" x="439.5" y="-248" font-family="Helvetica,sans-Serif" font-size="10.00">ViennaRNA/string_utils.h</text>
</a>
</g>
</g>
<!-- Node2&#45;&gt;Node16 -->
<g id="edge25" class="edge"><title>Node2&#45;&gt;Node16</title>
<path fill="none" stroke="midnightblue" d="M589.427,-302.475C559.148,-292.18 508.06,-274.81 474.059,-263.25"/>
<polygon fill="midnightblue" stroke="midnightblue" points="475.121,-259.914 464.527,-260.009 472.868,-266.542 475.121,-259.914"/>
</g>
<!-- Node17 -->
<g id="node17" class="node"><title>Node17</title>
<g id="a_node17"><a xlink:href="structure__utils_8h.html" target="_top" xlink:title="Various utility&#45; and helper&#45;functions for secondary structure parsing, converting, etc. ">
<polygon fill="none" stroke="black" points="559.5,-235.5 559.5,-265.5 669.5,-265.5 669.5,-235.5 559.5,-235.5"/>
<text text-anchor="start" x="567.5" y="-253.5" font-family="Helvetica,sans-Serif" font-size="10.00">ViennaRNA/structure</text>
<text text-anchor="middle" x="614.5" y="-242.5" font-family="Helvetica,sans-Serif" font-size="10.00">_utils.h</text>
</a>
</g>
</g>
<!-- Node2&#45;&gt;Node17 -->
<g id="edge27" class="edge"><title>Node2&#45;&gt;Node17</title>
<path fill="none" stroke="midnightblue" d="M614.5,-302.475C614.5,-295.471 614.5,-285.192 614.5,-275.696"/>
<polygon fill="midnightblue" stroke="midnightblue" points="618,-275.523 614.5,-265.523 611,-275.523 618,-275.523"/>
</g>
<!-- Node18 -->
<g id="node18" class="node"><title>Node18</title>
<g id="a_node18"><a xlink:href="alphabet_8h.html" target="_top" xlink:title="Functions to process, convert, and generally handle different nucleotide and/or base pair alphabets...">
<polygon fill="none" stroke="black" points="671.5,-179.5 671.5,-198.5 787.5,-198.5 787.5,-179.5 671.5,-179.5"/>
<text text-anchor="middle" x="729.5" y="-186.5" font-family="Helvetica,sans-Serif" font-size="10.00">ViennaRNA/alphabet.h</text>
</a>
</g>
</g>
<!-- Node2&#45;&gt;Node18 -->
<g id="edge30" class="edge"><title>Node2&#45;&gt;Node18</title>
<path fill="none" stroke="midnightblue" d="M638.825,-302.347C656.499,-295.008 679.951,-282.954 695.5,-266 710.727,-249.396 720.016,-224.839 724.953,-208.168"/>
<polygon fill="midnightblue" stroke="midnightblue" points="728.331,-209.083 727.587,-198.514 721.578,-207.24 728.331,-209.083"/>
</g>
<!-- Node5 -->
<g id="node5" class="node"><title>Node5</title>
<g id="a_node5"><a xlink:href="energy__const_8h.html" target="_top" xlink:title="ViennaRNA/energy_const.h">
<polygon fill="none" stroke="black" points="675.5,-62 675.5,-81 813.5,-81 813.5,-62 675.5,-62"/>
<text text-anchor="middle" x="744.5" y="-69" font-family="Helvetica,sans-Serif" font-size="10.00">ViennaRNA/energy_const.h</text>
</a>
</g>
</g>
<!-- Node4&#45;&gt;Node5 -->
<g id="edge4" class="edge"><title>Node4&#45;&gt;Node5</title>
<path fill="none" stroke="midnightblue" d="M496.28,-179.41C518.723,-170.503 554.68,-156.076 585.5,-143 631.601,-123.441 684.7,-99.6362 716.382,-85.2953"/>
<polygon fill="midnightblue" stroke="midnightblue" points="717.833,-88.4804 725.496,-81.1636 714.943,-82.105 717.833,-88.4804"/>
</g>
<!-- Node7 -->
<g id="node7" class="node"><title>Node7</title>
<g id="a_node7"><a xlink:href="model_8h.html" target="_top" xlink:title="The model details data structure and its corresponding modifiers. ">
<polygon fill="none" stroke="black" points="831.5,-62 831.5,-81 937.5,-81 937.5,-62 831.5,-62"/>
<text text-anchor="middle" x="884.5" y="-69" font-family="Helvetica,sans-Serif" font-size="10.00">ViennaRNA/model.h</text>
</a>
</g>
</g>
<!-- Node4&#45;&gt;Node7 -->
<g id="edge6" class="edge"><title>Node4&#45;&gt;Node7</title>
<path fill="none" stroke="midnightblue" d="M503.587,-179.449C546.428,-166.887 629.04,-142.793 699.5,-123 748.574,-109.214 805.121,-93.8551 842.649,-83.7354"/>
<polygon fill="midnightblue" stroke="midnightblue" points="843.962,-87.0065 852.707,-81.0257 842.141,-80.2475 843.962,-87.0065"/>
</g>
<!-- Node4&#45;&gt;Node8 -->
<g id="edge7" class="edge"><title>Node4&#45;&gt;Node8</title>
<path fill="none" stroke="midnightblue" d="M515.363,-179.444C564.496,-169.905 647.2,-154.483 703.786,-144.293"/>
<polygon fill="midnightblue" stroke="midnightblue" points="704.459,-147.728 713.684,-142.516 703.223,-140.838 704.459,-147.728"/>
</g>
<!-- Node9 -->
<g id="node9" class="node"><title>Node9</title>
<g id="a_node9"><a xlink:href="dp__matrices_8h.html" target="_top" xlink:title="ViennaRNA/dp_matrices.h">
<polygon fill="none" stroke="black" points="259,-123.5 259,-142.5 392,-142.5 392,-123.5 259,-123.5"/>
<text text-anchor="middle" x="325.5" y="-130.5" font-family="Helvetica,sans-Serif" font-size="10.00">ViennaRNA/dp_matrices.h</text>
</a>
</g>
</g>
<!-- Node4&#45;&gt;Node9 -->
<g id="edge11" class="edge"><title>Node4&#45;&gt;Node9</title>
<path fill="none" stroke="midnightblue" d="M445.802,-179.444C419.096,-170.478 379.794,-156.314 353.365,-146.183"/>
<polygon fill="midnightblue" stroke="midnightblue" points="354.508,-142.872 343.919,-142.516 351.975,-149.398 354.508,-142.872"/>
</g>
<!-- Node10 -->
<g id="node10" class="node"><title>Node10</title>
<g id="a_node10"><a xlink:href="constraints_8h.html" target="_top" xlink:title="Functions and data structures for constraining secondary structure predictions and evaluation...">
<polygon fill="none" stroke="black" points="410.5,-123.5 410.5,-142.5 538.5,-142.5 538.5,-123.5 410.5,-123.5"/>
<text text-anchor="middle" x="474.5" y="-130.5" font-family="Helvetica,sans-Serif" font-size="10.00">ViennaRNA/constraints.h</text>
</a>
</g>
</g>
<!-- Node4&#45;&gt;Node10 -->
<g id="edge13" class="edge"><title>Node4&#45;&gt;Node10</title>
<path fill="none" stroke="midnightblue" d="M469.334,-179.083C467.824,-171.927 467.394,-161.635 468.042,-152.691"/>
<polygon fill="midnightblue" stroke="midnightblue" points="471.515,-153.126 469.369,-142.751 464.577,-152.2 471.515,-153.126"/>
</g>
<!-- Node6 -->
<g id="node6" class="node"><title>Node6</title>
<polygon fill="none" stroke="#bfbfbf" points="720.5,-0.5 720.5,-19.5 768.5,-19.5 768.5,-0.5 720.5,-0.5"/>
<text text-anchor="middle" x="744.5" y="-7.5" font-family="Helvetica,sans-Serif" font-size="10.00">limits.h</text>
</g>
<!-- Node5&#45;&gt;Node6 -->
<g id="edge5" class="edge"><title>Node5&#45;&gt;Node6</title>
<path fill="none" stroke="midnightblue" d="M744.5,-61.9751C744.5,-53.5803 744.5,-40.4806 744.5,-29.6631"/>
<polygon fill="midnightblue" stroke="midnightblue" points="748,-29.5091 744.5,-19.5091 741,-29.5091 748,-29.5091"/>
</g>
<!-- Node8&#45;&gt;Node4 -->
<g id="edge9" class="edge"><title>Node8&#45;&gt;Node4</title>
<path fill="none" stroke="midnightblue" d="M723.844,-142.516C674.804,-152.039 592.111,-167.459 535.451,-177.664"/>
<polygon fill="midnightblue" stroke="midnightblue" points="534.764,-174.232 525.54,-179.444 536.001,-181.121 534.764,-174.232"/>
</g>
<!-- Node8&#45;&gt;Node5 -->
<g id="edge8" class="edge"><title>Node8&#45;&gt;Node5</title>
<path fill="none" stroke="midnightblue" d="M761.634,-123.475C758.783,-114.992 754.317,-101.704 750.659,-90.8222"/>
<polygon fill="midnightblue" stroke="midnightblue" points="753.864,-89.3727 747.36,-81.0091 747.229,-91.6031 753.864,-89.3727"/>
</g>
<!-- Node8&#45;&gt;Node7 -->
<g id="edge10" class="edge"><title>Node8&#45;&gt;Node7</title>
<path fill="none" stroke="midnightblue" d="M781.693,-123.475C801.743,-113.534 835.099,-96.9947 858.36,-85.461"/>
<polygon fill="midnightblue" stroke="midnightblue" points="859.934,-88.5871 867.339,-81.0091 856.825,-82.3157 859.934,-88.5871"/>
</g>
<!-- Node9&#45;&gt;Node4 -->
<g id="edge12" class="edge"><title>Node9&#45;&gt;Node4</title>
<path fill="none" stroke="midnightblue" d="M354.079,-142.516C380.747,-151.467 420.049,-165.629 446.517,-175.772"/>
<polygon fill="midnightblue" stroke="midnightblue" points="445.39,-179.089 455.979,-179.444 447.923,-172.563 445.39,-179.089"/>
</g>
<!-- Node10&#45;&gt;Node4 -->
<g id="edge14" class="edge"><title>Node10&#45;&gt;Node4</title>
<path fill="none" stroke="midnightblue" d="M479.631,-142.751C481.157,-149.858 481.604,-160.136 480.972,-169.101"/>
<polygon fill="midnightblue" stroke="midnightblue" points="477.493,-168.713 479.666,-179.083 484.434,-169.622 477.493,-168.713"/>
</g>
<!-- Node11 -->
<g id="node11" class="node"><title>Node11</title>
<g id="a_node11"><a xlink:href="constraints__hard_8h.html" target="_top" xlink:title="Functions and data structures for handling of secondary structure hard constraints. ">
<polygon fill="none" stroke="black" points="0,-56.5 0,-86.5 119,-86.5 119,-56.5 0,-56.5"/>
<text text-anchor="start" x="8" y="-74.5" font-family="Helvetica,sans-Serif" font-size="10.00">ViennaRNA/constraints</text>
<text text-anchor="middle" x="59.5" y="-63.5" font-family="Helvetica,sans-Serif" font-size="10.00">_hard.h</text>
</a>
</g>
</g>
<!-- Node10&#45;&gt;Node11 -->
<g id="edge15" class="edge"><title>Node10&#45;&gt;Node11</title>
<path fill="none" stroke="midnightblue" d="M410.345,-123.967C324.609,-113.19 178.486,-94.6698 129.086,-87.1045"/>
<polygon fill="midnightblue" stroke="midnightblue" points="129.58,-83.639 119.151,-85.5058 128.468,-90.5501 129.58,-83.639"/>
</g>
<!-- Node12 -->
<g id="node12" class="node"><title>Node12</title>
<g id="a_node12"><a xlink:href="constraints__soft_8h.html" target="_top" xlink:title="Functions and data structures for secondary structure soft constraints. ">
<polygon fill="none" stroke="black" points="137,-56.5 137,-86.5 256,-86.5 256,-56.5 137,-56.5"/>
<text text-anchor="start" x="145" y="-74.5" font-family="Helvetica,sans-Serif" font-size="10.00">ViennaRNA/constraints</text>
<text text-anchor="middle" x="196.5" y="-63.5" font-family="Helvetica,sans-Serif" font-size="10.00">_soft.h</text>
</a>
</g>
</g>
<!-- Node10&#45;&gt;Node12 -->
<g id="edge17" class="edge"><title>Node10&#45;&gt;Node12</title>
<path fill="none" stroke="midnightblue" d="M434.669,-123.475C390.804,-114.087 319.446,-98.8139 266.256,-87.4297"/>
<polygon fill="midnightblue" stroke="midnightblue" points="266.721,-83.9501 256.21,-85.2797 265.256,-90.7951 266.721,-83.9501"/>
</g>
<!-- Node13 -->
<g id="node13" class="node"><title>Node13</title>
<g id="a_node13"><a xlink:href="constraints__SHAPE_8h.html" target="_top" xlink:title="This module provides function to incorporate SHAPE reactivity data into the folding recursions by mea...">
<polygon fill="none" stroke="black" points="274,-56.5 274,-86.5 393,-86.5 393,-56.5 274,-56.5"/>
<text text-anchor="start" x="282" y="-74.5" font-family="Helvetica,sans-Serif" font-size="10.00">ViennaRNA/constraints</text>
<text text-anchor="middle" x="333.5" y="-63.5" font-family="Helvetica,sans-Serif" font-size="10.00">_SHAPE.h</text>
</a>
</g>
</g>
<!-- Node10&#45;&gt;Node13 -->
<g id="edge19" class="edge"><title>Node10&#45;&gt;Node13</title>
<path fill="none" stroke="midnightblue" d="M454.298,-123.475C433.952,-114.889 401.945,-101.383 375.988,-90.4291"/>
<polygon fill="midnightblue" stroke="midnightblue" points="377.305,-87.1863 366.731,-86.523 374.583,-93.6356 377.305,-87.1863"/>
</g>
<!-- Node14 -->
<g id="node14" class="node"><title>Node14</title>
<g id="a_node14"><a xlink:href="perturbation__fold_8h.html" target="_top" xlink:title="Find a vector of perturbation energies that minimizes the discripancies between predicted and observe...">
<polygon fill="none" stroke="black" points="411.5,-56.5 411.5,-86.5 533.5,-86.5 533.5,-56.5 411.5,-56.5"/>
<text text-anchor="start" x="419.5" y="-74.5" font-family="Helvetica,sans-Serif" font-size="10.00">ViennaRNA/perturbation</text>
<text text-anchor="middle" x="472.5" y="-63.5" font-family="Helvetica,sans-Serif" font-size="10.00">_fold.h</text>
</a>
</g>
</g>
<!-- Node10&#45;&gt;Node14 -->
<g id="edge21" class="edge"><title>Node10&#45;&gt;Node14</title>
<path fill="none" stroke="midnightblue" d="M474.213,-123.475C473.978,-116.471 473.633,-106.192 473.313,-96.6956"/>
<polygon fill="midnightblue" stroke="midnightblue" points="476.805,-96.3997 472.971,-86.523 469.809,-96.6349 476.805,-96.3997"/>
</g>
<!-- Node15 -->
<g id="node15" class="node"><title>Node15</title>
<g id="a_node15"><a xlink:href="ligand_8h.html" target="_top" xlink:title="Functions for incorporation of ligands binding to haipirn and interior loop motifs. ">
<polygon fill="none" stroke="black" points="552,-62 552,-81 657,-81 657,-62 552,-62"/>
<text text-anchor="middle" x="604.5" y="-69" font-family="Helvetica,sans-Serif" font-size="10.00">ViennaRNA/ligand.h</text>
</a>
</g>
</g>
<!-- Node10&#45;&gt;Node15 -->
<g id="edge23" class="edge"><title>Node10&#45;&gt;Node15</title>
<path fill="none" stroke="midnightblue" d="M493.126,-123.475C514.943,-113.49 551.304,-96.8476 576.517,-85.3075"/>
<polygon fill="midnightblue" stroke="midnightblue" points="578.272,-88.3534 585.909,-81.0091 575.359,-81.9884 578.272,-88.3534"/>
</g>
<!-- Node11&#45;&gt;Node4 -->
<g id="edge16" class="edge"><title>Node11&#45;&gt;Node4</title>
<path fill="none" stroke="midnightblue" d="M85.5662,-86.5376C116.276,-102.501 169.239,-128.255 217.5,-143 274.155,-160.309 339.996,-171.677 390.852,-178.657"/>
<polygon fill="midnightblue" stroke="midnightblue" points="390.439,-182.133 400.816,-179.995 391.371,-175.195 390.439,-182.133"/>
</g>
<!-- Node12&#45;&gt;Node4 -->
<g id="edge18" class="edge"><title>Node12&#45;&gt;Node4</title>
<path fill="none" stroke="midnightblue" d="M201.325,-86.6126C207.66,-102.899 220.395,-129.204 240.5,-143 264.674,-159.589 333.812,-171.603 390.713,-179.023"/>
<polygon fill="midnightblue" stroke="midnightblue" points="390.456,-182.518 400.818,-180.31 391.34,-175.574 390.456,-182.518"/>
</g>
<!-- Node13&#45;&gt;Node4 -->
<g id="edge20" class="edge"><title>Node13&#45;&gt;Node4</title>
<path fill="none" stroke="midnightblue" d="M294.679,-86.6141C264.643,-99.6906 231.032,-120.473 249.5,-143 267.399,-164.833 334.451,-176.284 390.741,-182.157"/>
<polygon fill="midnightblue" stroke="midnightblue" points="390.453,-185.645 400.751,-183.155 391.148,-178.68 390.453,-185.645"/>
</g>
<!-- Node14&#45;&gt;Node4 -->
<g id="edge22" class="edge"><title>Node14&#45;&gt;Node4</title>
<path fill="none" stroke="midnightblue" d="M507.19,-86.6576C522.464,-94.8457 538.871,-106.787 547.5,-123 559.448,-145.448 532.393,-163.888 507.904,-175.321"/>
<polygon fill="midnightblue" stroke="midnightblue" points="506.477,-172.125 498.731,-179.353 509.294,-178.533 506.477,-172.125"/>
</g>
<!-- Node15&#45;&gt;Node4 -->
<g id="edge24" class="edge"><title>Node15&#45;&gt;Node4</title>
<path fill="none" stroke="midnightblue" d="M601.278,-81.378C595.622,-95.9024 582.66,-124.932 563.5,-143 548.302,-157.333 527.659,-168.151 510.081,-175.584"/>
<polygon fill="midnightblue" stroke="midnightblue" points="508.655,-172.385 500.685,-179.366 511.268,-178.879 508.655,-172.385"/>
</g>
<!-- Node16&#45;&gt;Node4 -->
<g id="edge26" class="edge"><title>Node16&#45;&gt;Node4</title>
<path fill="none" stroke="midnightblue" d="M444.515,-240.975C449.661,-232.227 457.812,-218.369 464.318,-207.309"/>
<polygon fill="midnightblue" stroke="midnightblue" points="467.441,-208.903 469.495,-198.509 461.408,-205.354 467.441,-208.903"/>
</g>
<!-- Node17&#45;&gt;Node3 -->
<g id="edge28" class="edge"><title>Node17&#45;&gt;Node3</title>
<path fill="none" stroke="midnightblue" d="M615.685,-235.399C616.352,-227.466 617.193,-217.458 617.915,-208.858"/>
<polygon fill="midnightblue" stroke="midnightblue" points="621.423,-208.916 618.772,-198.658 614.447,-208.33 621.423,-208.916"/>
</g>
<!-- Node17&#45;&gt;Node4 -->
<g id="edge29" class="edge"><title>Node17&#45;&gt;Node4</title>
<path fill="none" stroke="midnightblue" d="M581.322,-235.399C557.937,-225.461 526.888,-212.265 504.294,-202.662"/>
<polygon fill="midnightblue" stroke="midnightblue" points="505.444,-199.348 494.871,-198.658 502.706,-205.79 505.444,-199.348"/>
</g>
<!-- Node18&#45;&gt;Node7 -->
<g id="edge31" class="edge"><title>Node18&#45;&gt;Node7</title>
<path fill="none" stroke="midnightblue" d="M757.792,-179.418C778.991,-172.051 807.937,-159.929 829.5,-143 848.308,-128.235 864.394,-105.715 874.225,-90.1173"/>
<polygon fill="midnightblue" stroke="midnightblue" points="877.302,-91.7944 879.506,-81.4315 871.32,-88.1577 877.302,-91.7944"/>
</g>
</g>
</svg>
        <g id="navigator" transform="translate(0 0)" fill="#404254">
                <rect fill="#f2f5e9" fill-opacity="0.5" stroke="#606060" stroke-width=".5" x="0" y="0" width="60" height="60"/>
                <use id="zoomplus" xlink:href="#zoomPlus" x="17" y="9" onmousedown="handleZoom(evt,'in')"/>
                <use id="zoomminus" xlink:href="#zoomMin" x="42" y="9" onmousedown="handleZoom(evt,'out')"/>
                <use id="reset" xlink:href="#resetDef" x="30" y="36" onmousedown="handleReset()"/>
                <g id="arrowUp" xlink:href="#dirArrow" transform="translate(30 24)" onmousedown="handlePan(0,-1)">
                  <use xlink:href="#rim" fill="#404040">
                        <set attributeName="fill" to="#808080" begin="arrowUp.mouseover" end="arrowUp.mouseout"/>
                  </use>
                  <path fill="none" stroke="white" stroke-width="1.5" d="M0,-3.0v7 M-2.5,-0.5L0,-3.0L2.5,-0.5"/>
                </g>
                <g id="arrowRight" xlink:href="#dirArrow" transform="rotate(90) translate(36 -43)" onmousedown="handlePan(1,0)">
                  <use xlink:href="#rim" fill="#404040">
                        <set attributeName="fill" to="#808080" begin="arrowRight.mouseover" end="arrowRight.mouseout"/>
                  </use>
                  <path fill="none" stroke="white" stroke-width="1.5" d="M0,-3.0v7 M-2.5,-0.5L0,-3.0L2.5,-0.5"/>
                </g>
                <g id="arrowDown" xlink:href="#dirArrow" transform="rotate(180) translate(-30 -48)" onmousedown="handlePan(0,1)">
                  <use xlink:href="#rim" fill="#404040">
                        <set attributeName="fill" to="#808080" begin="arrowDown.mouseover" end="arrowDown.mouseout"/>
                  </use>
                  <path fill="none" stroke="white" stroke-width="1.5" d="M0,-3.0v7 M-2.5,-0.5L0,-3.0L2.5,-0.5"/>
                </g>
                <g id="arrowLeft" xlink:href="#dirArrow" transform="rotate(270) translate(-36 17)" onmousedown="handlePan(-1,0)">
                  <use xlink:href="#rim" fill="#404040">
                        <set attributeName="fill" to="#808080" begin="arrowLeft.mouseover" end="arrowLeft.mouseout"/>
                  </use>
                  <path fill="none" stroke="white" stroke-width="1.5" d="M0,-3.0v7 M-2.5,-0.5L0,-3.0L2.5,-0.5"/>
                </g>
        </g>
        <svg viewBox="0 0 15 15" width="100%" height="30px" preserveAspectRatio="xMaxYMin meet">
         <g id="arrow_out" transform="scale(0.3 0.3)">
          <a xlink:href="multibranch__loops_8h__incl_org.svg" target="_base">
           <rect id="button" ry="5" rx="5" y="6" x="6" height="38" width="38"
                fill="#f2f5e9" fill-opacity="0.5" stroke="#606060" stroke-width="1.0"/>
           <path id="arrow"
             d="M 11.500037,31.436501 C 11.940474,20.09759 22.043105,11.32322 32.158766,21.979434 L 37.068811,17.246167 C 37.068811,17.246167 37.088388,32 37.088388,32 L 22.160133,31.978069 C 22.160133,31.978069 26.997745,27.140456 26.997745,27.140456 C 18.528582,18.264221 13.291696,25.230495 11.500037,31.436501 z"
             style="fill:#404040;"/>
          </a>
         </g>
        </svg>
</svg>
