<?xml version="1.0" encoding="UTF-8" standalone="no"?>
<!DOCTYPE svg PUBLIC "-//W3C//DTD SVG 1.1//EN"
 "http://www.w3.org/Graphics/SVG/1.1/DTD/svg11.dtd">
<!-- Generated by graphviz version 2.38.0 (20140413.2041)
 -->
<!-- Title: ViennaRNA/params.h Pages: 1 -->
<svg width="895pt" height="207pt"
 viewBox="0.00 0.00 894.50 207.00" xmlns="http://www.w3.org/2000/svg" xmlns:xlink="http://www.w3.org/1999/xlink">
<g id="graph0" class="graph" transform="scale(1 1) rotate(0) translate(4 203)">
<title>ViennaRNA/params.h</title>
<!-- Node1 -->
<g id="node1" class="node"><title>Node1</title>
<polygon fill="#bfbfbf" stroke="black" points="278,-179.5 278,-198.5 390,-198.5 390,-179.5 278,-179.5"/>
<text text-anchor="middle" x="334" y="-186.5" font-family="Helvetica,sans-Serif" font-size="10.00">ViennaRNA/params.h</text>
</g>
<!-- Node2 -->
<g id="node2" class="node"><title>Node2</title>
<g id="a_node2"><a xlink:href="energy__const_8h.html" target="_top" xlink:title="ViennaRNA/energy_const.h">
<polygon fill="none" stroke="black" points="0,-67.5 0,-86.5 138,-86.5 138,-67.5 0,-67.5"/>
<text text-anchor="middle" x="69" y="-74.5" font-family="Helvetica,sans-Serif" font-size="10.00">ViennaRNA/energy_const.h</text>
</a>
</g>
</g>
<!-- Node1&#45;&gt;Node2 -->
<g id="edge1" class="edge"><title>Node1&#45;&gt;Node2</title>
<path fill="none" stroke="midnightblue" d="M313.206,-179.368C266.571,-160.01 153.474,-113.065 99.1314,-90.5074"/>
<polygon fill="midnightblue" stroke="midnightblue" points="100.275,-87.1927 89.6975,-86.5914 97.5916,-93.6578 100.275,-87.1927"/>
</g>
<!-- Node4 -->
<g id="node4" class="node"><title>Node4</title>
<g id="a_node4"><a xlink:href="data__structures_8h.html" target="_top" xlink:title="ViennaRNA/data_structures.h">
<polygon fill="none" stroke="black" points="311.5,-123.5 311.5,-142.5 458.5,-142.5 458.5,-123.5 311.5,-123.5"/>
<text text-anchor="middle" x="385" y="-130.5" font-family="Helvetica,sans-Serif" font-size="10.00">ViennaRNA/data_structures.h</text>
</a>
</g>
</g>
<!-- Node1&#45;&gt;Node4 -->
<g id="edge3" class="edge"><title>Node1&#45;&gt;Node4</title>
<path fill="none" stroke="midnightblue" d="M337.255,-179.083C343.138,-171.062 354.099,-159.101 364.172,-149.515"/>
<polygon fill="midnightblue" stroke="midnightblue" points="366.564,-152.07 371.604,-142.751 361.853,-146.893 366.564,-152.07"/>
</g>
<!-- Node5 -->
<g id="node5" class="node"><title>Node5</title>
<g id="a_node5"><a xlink:href="model_8h.html" target="_top" xlink:title="The model details data structure and its corresponding modifiers. ">
<polygon fill="none" stroke="black" points="156,-67.5 156,-86.5 262,-86.5 262,-67.5 156,-67.5"/>
<text text-anchor="middle" x="209" y="-74.5" font-family="Helvetica,sans-Serif" font-size="10.00">ViennaRNA/model.h</text>
</a>
</g>
</g>
<!-- Node1&#45;&gt;Node5 -->
<g id="edge21" class="edge"><title>Node1&#45;&gt;Node5</title>
<path fill="none" stroke="midnightblue" d="M324.191,-179.368C303.107,-160.814 253.219,-116.913 226.543,-93.4376"/>
<polygon fill="midnightblue" stroke="midnightblue" points="228.582,-90.5702 218.763,-86.5914 223.958,-95.8252 228.582,-90.5702"/>
</g>
<!-- Node3 -->
<g id="node3" class="node"><title>Node3</title>
<polygon fill="none" stroke="#bfbfbf" points="45,-6 45,-25 93,-25 93,-6 45,-6"/>
<text text-anchor="middle" x="69" y="-13" font-family="Helvetica,sans-Serif" font-size="10.00">limits.h</text>
</g>
<!-- Node2&#45;&gt;Node3 -->
<g id="edge2" class="edge"><title>Node2&#45;&gt;Node3</title>
<path fill="none" stroke="midnightblue" d="M69,-67.4751C69,-59.0803 69,-45.9806 69,-35.1631"/>
<polygon fill="midnightblue" stroke="midnightblue" points="72.5001,-35.0091 69,-25.0091 65.5001,-35.0091 72.5001,-35.0091"/>
</g>
<!-- Node4&#45;&gt;Node1 -->
<g id="edge6" class="edge"><title>Node4&#45;&gt;Node1</title>
<path fill="none" stroke="midnightblue" d="M381.806,-142.834C375.927,-150.869 364.897,-162.909 354.773,-172.537"/>
<polygon fill="midnightblue" stroke="midnightblue" points="352.353,-170.007 347.309,-179.324 357.062,-175.186 352.353,-170.007"/>
</g>
<!-- Node4&#45;&gt;Node2 -->
<g id="edge4" class="edge"><title>Node4&#45;&gt;Node2</title>
<path fill="none" stroke="midnightblue" d="M334.929,-123.444C278.994,-113.885 188.492,-98.4195 128.863,-88.2298"/>
<polygon fill="midnightblue" stroke="midnightblue" points="129.284,-84.751 118.837,-86.5164 128.104,-91.6509 129.284,-84.751"/>
</g>
<!-- Node4&#45;&gt;Node5 -->
<g id="edge5" class="edge"><title>Node4&#45;&gt;Node5</title>
<path fill="none" stroke="midnightblue" d="M357.112,-123.444C327.246,-114.28 279.685,-99.6876 246.544,-89.5192"/>
<polygon fill="midnightblue" stroke="midnightblue" points="247.344,-86.1037 236.757,-86.5164 245.291,-92.7958 247.344,-86.1037"/>
</g>
<!-- Node6 -->
<g id="node6" class="node"><title>Node6</title>
<g id="a_node6"><a xlink:href="dp__matrices_8h.html" target="_top" xlink:title="ViennaRNA/dp_matrices.h">
<polygon fill="none" stroke="black" points="318.5,-67.5 318.5,-86.5 451.5,-86.5 451.5,-67.5 318.5,-67.5"/>
<text text-anchor="middle" x="385" y="-74.5" font-family="Helvetica,sans-Serif" font-size="10.00">ViennaRNA/dp_matrices.h</text>
</a>
</g>
</g>
<!-- Node4&#45;&gt;Node6 -->
<g id="edge7" class="edge"><title>Node4&#45;&gt;Node6</title>
<path fill="none" stroke="midnightblue" d="M379.834,-123.083C378.324,-115.927 377.894,-105.635 378.542,-96.6911"/>
<polygon fill="midnightblue" stroke="midnightblue" points="382.015,-97.1262 379.869,-86.7511 375.077,-96.2002 382.015,-97.1262"/>
</g>
<!-- Node7 -->
<g id="node7" class="node"><title>Node7</title>
<g id="a_node7"><a xlink:href="constraints_8h.html" target="_top" xlink:title="Functions and data structures for constraining secondary structure predictions and evaluation...">
<polygon fill="none" stroke="black" points="546,-67.5 546,-86.5 674,-86.5 674,-67.5 546,-67.5"/>
<text text-anchor="middle" x="610" y="-74.5" font-family="Helvetica,sans-Serif" font-size="10.00">ViennaRNA/constraints.h</text>
</a>
</g>
</g>
<!-- Node4&#45;&gt;Node7 -->
<g id="edge9" class="edge"><title>Node4&#45;&gt;Node7</title>
<path fill="none" stroke="midnightblue" d="M415.563,-123.444C452.592,-114.063 515.238,-98.9926 559.458,-88.8036"/>
<polygon fill="midnightblue" stroke="midnightblue" points="560.47,-92.1625 569.435,-86.5164 558.906,-85.3394 560.47,-92.1625"/>
</g>
<!-- Node6&#45;&gt;Node4 -->
<g id="edge8" class="edge"><title>Node6&#45;&gt;Node4</title>
<path fill="none" stroke="midnightblue" d="M390.131,-86.7511C391.657,-93.8579 392.104,-104.136 391.472,-113.101"/>
<polygon fill="midnightblue" stroke="midnightblue" points="387.993,-112.713 390.166,-123.083 394.934,-113.622 387.993,-112.713"/>
</g>
<!-- Node7&#45;&gt;Node4 -->
<g id="edge10" class="edge"><title>Node7&#45;&gt;Node4</title>
<path fill="none" stroke="midnightblue" d="M579.595,-86.5164C542.639,-95.8809 480.003,-110.95 435.731,-121.153"/>
<polygon fill="midnightblue" stroke="midnightblue" points="434.706,-117.797 425.741,-123.444 436.27,-124.62 434.706,-117.797"/>
</g>
<!-- Node8 -->
<g id="node8" class="node"><title>Node8</title>
<g id="a_node8"><a xlink:href="constraints__hard_8h.html" target="_top" xlink:title="Functions and data structures for handling of secondary structure hard constraints. ">
<polygon fill="none" stroke="black" points="229.5,-0.5 229.5,-30.5 348.5,-30.5 348.5,-0.5 229.5,-0.5"/>
<text text-anchor="start" x="237.5" y="-18.5" font-family="Helvetica,sans-Serif" font-size="10.00">ViennaRNA/constraints</text>
<text text-anchor="middle" x="289" y="-7.5" font-family="Helvetica,sans-Serif" font-size="10.00">_hard.h</text>
</a>
</g>
</g>
<!-- Node7&#45;&gt;Node8 -->
<g id="edge11" class="edge"><title>Node7&#45;&gt;Node8</title>
<path fill="none" stroke="midnightblue" d="M559.023,-67.4577C510.059,-59.1347 433.744,-45.8548 358.769,-31.3122"/>
<polygon fill="midnightblue" stroke="midnightblue" points="359.165,-27.8238 348.681,-29.3462 357.826,-34.6945 359.165,-27.8238"/>
</g>
<!-- Node9 -->
<g id="node9" class="node"><title>Node9</title>
<g id="a_node9"><a xlink:href="constraints__soft_8h.html" target="_top" xlink:title="Functions and data structures for secondary structure soft constraints. ">
<polygon fill="none" stroke="black" points="366.5,-0.5 366.5,-30.5 485.5,-30.5 485.5,-0.5 366.5,-0.5"/>
<text text-anchor="start" x="374.5" y="-18.5" font-family="Helvetica,sans-Serif" font-size="10.00">ViennaRNA/constraints</text>
<text text-anchor="middle" x="426" y="-7.5" font-family="Helvetica,sans-Serif" font-size="10.00">_soft.h</text>
</a>
</g>
</g>
<!-- Node7&#45;&gt;Node9 -->
<g id="edge13" class="edge"><title>Node7&#45;&gt;Node9</title>
<path fill="none" stroke="midnightblue" d="M583.637,-67.4751C556.505,-58.7012 513.479,-44.788 479.228,-33.7123"/>
<polygon fill="midnightblue" stroke="midnightblue" points="479.957,-30.2697 469.365,-30.523 477.803,-36.9301 479.957,-30.2697"/>
</g>
<!-- Node10 -->
<g id="node10" class="node"><title>Node10</title>
<g id="a_node10"><a xlink:href="constraints__SHAPE_8h.html" target="_top" xlink:title="This module provides function to incorporate SHAPE reactivity data into the folding recursions by mea...">
<polygon fill="none" stroke="black" points="503.5,-0.5 503.5,-30.5 622.5,-30.5 622.5,-0.5 503.5,-0.5"/>
<text text-anchor="start" x="511.5" y="-18.5" font-family="Helvetica,sans-Serif" font-size="10.00">ViennaRNA/constraints</text>
<text text-anchor="middle" x="563" y="-7.5" font-family="Helvetica,sans-Serif" font-size="10.00">_SHAPE.h</text>
</a>
</g>
</g>
<!-- Node7&#45;&gt;Node10 -->
<g id="edge15" class="edge"><title>Node7&#45;&gt;Node10</title>
<path fill="none" stroke="midnightblue" d="M603.266,-67.4751C597.317,-59.9438 588.377,-48.6259 580.431,-38.5663"/>
<polygon fill="midnightblue" stroke="midnightblue" points="583.022,-36.2006 574.077,-30.523 577.529,-40.5396 583.022,-36.2006"/>
</g>
<!-- Node11 -->
<g id="node11" class="node"><title>Node11</title>
<g id="a_node11"><a xlink:href="perturbation__fold_8h.html" target="_top" xlink:title="Find a vector of perturbation energies that minimizes the discripancies between predicted and observe...">
<polygon fill="none" stroke="black" points="641,-0.5 641,-30.5 763,-30.5 763,-0.5 641,-0.5"/>
<text text-anchor="start" x="649" y="-18.5" font-family="Helvetica,sans-Serif" font-size="10.00">ViennaRNA/perturbation</text>
<text text-anchor="middle" x="702" y="-7.5" font-family="Helvetica,sans-Serif" font-size="10.00">_fold.h</text>
</a>
</g>
</g>
<!-- Node7&#45;&gt;Node11 -->
<g id="edge17" class="edge"><title>Node7&#45;&gt;Node11</title>
<path fill="none" stroke="midnightblue" d="M623.181,-67.4751C635.758,-59.3413 655.164,-46.7909 671.572,-36.1788"/>
<polygon fill="midnightblue" stroke="midnightblue" points="673.821,-38.8926 680.317,-30.523 670.02,-33.0147 673.821,-38.8926"/>
</g>
<!-- Node12 -->
<g id="node12" class="node"><title>Node12</title>
<g id="a_node12"><a xlink:href="ligand_8h.html" target="_top" xlink:title="Functions for incorporation of ligands binding to haipirn and interior loop motifs. ">
<polygon fill="none" stroke="black" points="781.5,-6 781.5,-25 886.5,-25 886.5,-6 781.5,-6"/>
<text text-anchor="middle" x="834" y="-13" font-family="Helvetica,sans-Serif" font-size="10.00">ViennaRNA/ligand.h</text>
</a>
</g>
</g>
<!-- Node7&#45;&gt;Node12 -->
<g id="edge19" class="edge"><title>Node7&#45;&gt;Node12</title>
<path fill="none" stroke="midnightblue" d="M642.094,-67.4751C681.599,-56.9815 748.779,-39.1367 792.261,-27.587"/>
<polygon fill="midnightblue" stroke="midnightblue" points="793.199,-30.9591 801.966,-25.0091 791.402,-24.1937 793.199,-30.9591"/>
</g>
<!-- Node8&#45;&gt;Node4 -->
<g id="edge12" class="edge"><title>Node8&#45;&gt;Node4</title>
<path fill="none" stroke="midnightblue" d="M289.929,-30.5871C291.585,-45.8892 296.191,-70.369 309,-87 319.899,-101.151 336.615,-111.741 351.597,-119.08"/>
<polygon fill="midnightblue" stroke="midnightblue" points="350.565,-122.457 361.114,-123.439 353.479,-116.093 350.565,-122.457"/>
</g>
<!-- Node9&#45;&gt;Node4 -->
<g id="edge14" class="edge"><title>Node9&#45;&gt;Node4</title>
<path fill="none" stroke="midnightblue" d="M441.025,-30.555C454.552,-44.9859 470.779,-67.9621 460,-87 451.653,-101.742 436.338,-112.181 421.713,-119.268"/>
<polygon fill="midnightblue" stroke="midnightblue" points="420.003,-116.197 412.282,-123.453 422.842,-122.596 420.003,-116.197"/>
</g>
<!-- Node10&#45;&gt;Node4 -->
<g id="edge16" class="edge"><title>Node10&#45;&gt;Node4</title>
<path fill="none" stroke="midnightblue" d="M547.767,-30.6036C530.996,-45.6982 502.84,-69.7915 476,-87 456.506,-99.4986 433.052,-111.021 414.838,-119.277"/>
<polygon fill="midnightblue" stroke="midnightblue" points="413.291,-116.135 405.578,-123.399 416.137,-122.53 413.291,-116.135"/>
</g>
<!-- Node11&#45;&gt;Node4 -->
<g id="edge18" class="edge"><title>Node11&#45;&gt;Node4</title>
<path fill="none" stroke="midnightblue" d="M702.44,-30.7373C702.105,-46.8885 698.888,-72.8187 683,-87 652.134,-114.551 545.675,-125.236 468.801,-129.378"/>
<polygon fill="midnightblue" stroke="midnightblue" points="468.444,-125.892 458.635,-129.898 468.801,-132.883 468.444,-125.892"/>
</g>
<!-- Node12&#45;&gt;Node4 -->
<g id="edge20" class="edge"><title>Node12&#45;&gt;Node4</title>
<path fill="none" stroke="midnightblue" d="M821.771,-25.0954C799.497,-40.2884 750.328,-71.723 704,-87 626.732,-112.48 534.275,-123.533 468.84,-128.327"/>
<polygon fill="midnightblue" stroke="midnightblue" points="468.308,-124.856 458.576,-129.044 468.796,-131.839 468.308,-124.856"/>
</g>
</g>
</svg>
