<?xml version="1.0" encoding="UTF-8" standalone="no"?>
<!DOCTYPE svg PUBLIC "-//W3C//DTD SVG 1.1//EN"
 "http://www.w3.org/Graphics/SVG/1.1/DTD/svg11.dtd">
<!-- Generated by graphviz version 2.38.0 (20140413.2041)
 -->
<!-- Title: ViennaRNA/PS_dot.h Pages: 1 -->
<svg width="946pt" height="375pt"
 viewBox="0.00 0.00 945.50 375.00" xmlns="http://www.w3.org/2000/svg" xmlns:xlink="http://www.w3.org/1999/xlink">
<g id="graph0" class="graph" transform="scale(1 1) rotate(0) translate(4 371)">
<title>ViennaRNA/PS_dot.h</title>
<!-- Node1 -->
<g id="node1" class="node"><title>Node1</title>
<polygon fill="#bfbfbf" stroke="black" points="351,-347.5 351,-366.5 463,-366.5 463,-347.5 351,-347.5"/>
<text text-anchor="middle" x="407" y="-354.5" font-family="Helvetica,sans-Serif" font-size="10.00">ViennaRNA/PS_dot.h</text>
</g>
<!-- Node2 -->
<g id="node2" class="node"><title>Node2</title>
<g id="a_node2"><a xlink:href="data__structures_8h.html" target="_top" xlink:title="ViennaRNA/data_structures.h">
<polygon fill="none" stroke="black" points="346.5,-179.5 346.5,-198.5 493.5,-198.5 493.5,-179.5 346.5,-179.5"/>
<text text-anchor="middle" x="420" y="-186.5" font-family="Helvetica,sans-Serif" font-size="10.00">ViennaRNA/data_structures.h</text>
</a>
</g>
</g>
<!-- Node1&#45;&gt;Node2 -->
<g id="edge1" class="edge"><title>Node1&#45;&gt;Node2</title>
<path fill="none" stroke="midnightblue" d="M407.699,-347.075C409.745,-320.945 415.755,-244.211 418.545,-208.577"/>
<polygon fill="midnightblue" stroke="midnightblue" points="422.037,-208.811 419.329,-198.568 415.059,-208.264 422.037,-208.811"/>
</g>
<!-- Node14 -->
<g id="node14" class="node"><title>Node14</title>
<g id="a_node14"><a xlink:href="plot__structure_8h.html" target="_top" xlink:title="Various functions for plotting RNA secondary structures. ">
<polygon fill="none" stroke="black" points="227.5,-291.5 227.5,-310.5 366.5,-310.5 366.5,-291.5 227.5,-291.5"/>
<text text-anchor="middle" x="297" y="-298.5" font-family="Helvetica,sans-Serif" font-size="10.00">ViennaRNA/plot_structure.h</text>
</a>
</g>
</g>
<!-- Node1&#45;&gt;Node14 -->
<g id="edge23" class="edge"><title>Node1&#45;&gt;Node14</title>
<path fill="none" stroke="midnightblue" d="M389.327,-347.324C371.606,-338.625 344.097,-325.12 323.712,-315.113"/>
<polygon fill="midnightblue" stroke="midnightblue" points="325.149,-311.919 314.63,-310.655 322.064,-318.203 325.149,-311.919"/>
</g>
<!-- Node17 -->
<g id="node17" class="node"><title>Node17</title>
<g id="a_node17"><a xlink:href="plot__aln_8h.html" target="_top" xlink:title="Various functions for plotting Sequence / Structure Alignments. ">
<polygon fill="none" stroke="black" points="435.5,-291.5 435.5,-310.5 548.5,-310.5 548.5,-291.5 435.5,-291.5"/>
<text text-anchor="middle" x="492" y="-298.5" font-family="Helvetica,sans-Serif" font-size="10.00">ViennaRNA/plot_aln.h</text>
</a>
</g>
</g>
<!-- Node1&#45;&gt;Node17 -->
<g id="edge28" class="edge"><title>Node1&#45;&gt;Node17</title>
<path fill="none" stroke="midnightblue" d="M420.657,-347.324C433.916,-338.9 454.268,-325.971 469.846,-316.074"/>
<polygon fill="midnightblue" stroke="midnightblue" points="471.813,-318.971 478.377,-310.655 468.06,-313.063 471.813,-318.971"/>
</g>
<!-- Node3 -->
<g id="node3" class="node"><title>Node3</title>
<g id="a_node3"><a xlink:href="energy__const_8h.html" target="_top" xlink:title="ViennaRNA/energy_const.h">
<polygon fill="none" stroke="black" points="124,-62 124,-81 262,-81 262,-62 124,-62"/>
<text text-anchor="middle" x="193" y="-69" font-family="Helvetica,sans-Serif" font-size="10.00">ViennaRNA/energy_const.h</text>
</a>
</g>
</g>
<!-- Node2&#45;&gt;Node3 -->
<g id="edge2" class="edge"><title>Node2&#45;&gt;Node3</title>
<path fill="none" stroke="midnightblue" d="M417.367,-179.385C412.633,-165.375 401.334,-137.742 382,-123 361.45,-107.331 298.547,-92.4462 250.905,-82.9498"/>
<polygon fill="midnightblue" stroke="midnightblue" points="251.478,-79.4955 240.991,-81.0068 250.131,-86.3648 251.478,-79.4955"/>
</g>
<!-- Node5 -->
<g id="node5" class="node"><title>Node5</title>
<g id="a_node5"><a xlink:href="model_8h.html" target="_top" xlink:title="The model details data structure and its corresponding modifiers. ">
<polygon fill="none" stroke="black" points="0,-62 0,-81 106,-81 106,-62 0,-62"/>
<text text-anchor="middle" x="53" y="-69" font-family="Helvetica,sans-Serif" font-size="10.00">ViennaRNA/model.h</text>
</a>
</g>
</g>
<!-- Node2&#45;&gt;Node5 -->
<g id="edge4" class="edge"><title>Node2&#45;&gt;Node5</title>
<path fill="none" stroke="midnightblue" d="M378.489,-179.465C344.006,-171.766 293.982,-159.176 252,-143 233.823,-135.996 231.018,-130.402 213,-123 173.932,-106.95 127.79,-92.8808 95.1213,-83.6972"/>
<polygon fill="midnightblue" stroke="midnightblue" points="96.0101,-80.3116 85.4381,-81.0072 94.1364,-87.0562 96.0101,-80.3116"/>
</g>
<!-- Node6 -->
<g id="node6" class="node"><title>Node6</title>
<g id="a_node6"><a xlink:href="params_8h.html" target="_top" xlink:title="ViennaRNA/params.h">
<polygon fill="none" stroke="black" points="261,-123.5 261,-142.5 373,-142.5 373,-123.5 261,-123.5"/>
<text text-anchor="middle" x="317" y="-130.5" font-family="Helvetica,sans-Serif" font-size="10.00">ViennaRNA/params.h</text>
</a>
</g>
</g>
<!-- Node2&#45;&gt;Node6 -->
<g id="edge5" class="edge"><title>Node2&#45;&gt;Node6</title>
<path fill="none" stroke="midnightblue" d="M398.591,-179.444C380.446,-170.912 354.906,-157.675 337.139,-147.683"/>
<polygon fill="midnightblue" stroke="midnightblue" points="338.577,-144.472 328.164,-142.516 335.085,-150.539 338.577,-144.472"/>
</g>
<!-- Node7 -->
<g id="node7" class="node"><title>Node7</title>
<g id="a_node7"><a xlink:href="dp__matrices_8h.html" target="_top" xlink:title="ViennaRNA/dp_matrices.h">
<polygon fill="none" stroke="black" points="71.5,-123.5 71.5,-142.5 204.5,-142.5 204.5,-123.5 71.5,-123.5"/>
<text text-anchor="middle" x="138" y="-130.5" font-family="Helvetica,sans-Serif" font-size="10.00">ViennaRNA/dp_matrices.h</text>
</a>
</g>
</g>
<!-- Node2&#45;&gt;Node7 -->
<g id="edge9" class="edge"><title>Node2&#45;&gt;Node7</title>
<path fill="none" stroke="midnightblue" d="M370.227,-179.444C318.645,-169.964 238.673,-154.675 187.276,-144.483"/>
<polygon fill="midnightblue" stroke="midnightblue" points="187.886,-141.036 177.395,-142.516 186.519,-147.902 187.886,-141.036"/>
</g>
<!-- Node8 -->
<g id="node8" class="node"><title>Node8</title>
<g id="a_node8"><a xlink:href="constraints_8h.html" target="_top" xlink:title="Functions and data structures for constraining secondary structure predictions and evaluation...">
<polygon fill="none" stroke="black" points="543,-123.5 543,-142.5 671,-142.5 671,-123.5 543,-123.5"/>
<text text-anchor="middle" x="607" y="-130.5" font-family="Helvetica,sans-Serif" font-size="10.00">ViennaRNA/constraints.h</text>
</a>
</g>
</g>
<!-- Node2&#45;&gt;Node8 -->
<g id="edge11" class="edge"><title>Node2&#45;&gt;Node8</title>
<path fill="none" stroke="midnightblue" d="M444.542,-179.444C474.521,-170.201 525.482,-155.436 562.413,-145.257"/>
<polygon fill="midnightblue" stroke="midnightblue" points="563.706,-148.532 572.428,-142.516 561.859,-141.78 563.706,-148.532"/>
</g>
<!-- Node4 -->
<g id="node4" class="node"><title>Node4</title>
<polygon fill="none" stroke="#bfbfbf" points="169,-0.5 169,-19.5 217,-19.5 217,-0.5 169,-0.5"/>
<text text-anchor="middle" x="193" y="-7.5" font-family="Helvetica,sans-Serif" font-size="10.00">limits.h</text>
</g>
<!-- Node3&#45;&gt;Node4 -->
<g id="edge3" class="edge"><title>Node3&#45;&gt;Node4</title>
<path fill="none" stroke="midnightblue" d="M193,-61.9751C193,-53.5803 193,-40.4806 193,-29.6631"/>
<polygon fill="midnightblue" stroke="midnightblue" points="196.5,-29.5091 193,-19.5091 189.5,-29.5091 196.5,-29.5091"/>
</g>
<!-- Node6&#45;&gt;Node2 -->
<g id="edge7" class="edge"><title>Node6&#45;&gt;Node2</title>
<path fill="none" stroke="midnightblue" d="M338.618,-142.655C356.664,-151.149 381.924,-164.241 399.612,-174.177"/>
<polygon fill="midnightblue" stroke="midnightblue" points="398.152,-177.375 408.566,-179.324 401.64,-171.306 398.152,-177.375"/>
</g>
<!-- Node6&#45;&gt;Node3 -->
<g id="edge6" class="edge"><title>Node6&#45;&gt;Node3</title>
<path fill="none" stroke="midnightblue" d="M299.234,-123.475C278.516,-113.534 244.048,-96.9947 220.011,-85.461"/>
<polygon fill="midnightblue" stroke="midnightblue" points="221.263,-82.1797 210.733,-81.0091 218.235,-88.4908 221.263,-82.1797"/>
</g>
<!-- Node6&#45;&gt;Node5 -->
<g id="edge8" class="edge"><title>Node6&#45;&gt;Node5</title>
<path fill="none" stroke="midnightblue" d="M278.248,-123.494C237.563,-114.535 171.745,-99.9557 115,-87 109.943,-85.8455 104.657,-84.627 99.396,-83.4069"/>
<polygon fill="midnightblue" stroke="midnightblue" points="99.9087,-79.9328 89.3756,-81.0748 98.322,-86.7506 99.9087,-79.9328"/>
</g>
<!-- Node7&#45;&gt;Node2 -->
<g id="edge10" class="edge"><title>Node7&#45;&gt;Node2</title>
<path fill="none" stroke="midnightblue" d="M187.555,-142.516C239.057,-151.979 319.03,-167.268 370.506,-177.473"/>
<polygon fill="midnightblue" stroke="midnightblue" points="369.914,-180.924 380.405,-179.444 371.281,-174.059 369.914,-180.924"/>
</g>
<!-- Node8&#45;&gt;Node2 -->
<g id="edge12" class="edge"><title>Node8&#45;&gt;Node2</title>
<path fill="none" stroke="midnightblue" d="M582.588,-142.516C552.67,-151.743 501.719,-166.507 464.748,-176.699"/>
<polygon fill="midnightblue" stroke="midnightblue" points="463.441,-173.428 454.719,-179.444 465.289,-180.179 463.441,-173.428"/>
</g>
<!-- Node9 -->
<g id="node9" class="node"><title>Node9</title>
<g id="a_node9"><a xlink:href="constraints__hard_8h.html" target="_top" xlink:title="Functions and data structures for handling of secondary structure hard constraints. ">
<polygon fill="none" stroke="black" points="280.5,-56.5 280.5,-86.5 399.5,-86.5 399.5,-56.5 280.5,-56.5"/>
<text text-anchor="start" x="288.5" y="-74.5" font-family="Helvetica,sans-Serif" font-size="10.00">ViennaRNA/constraints</text>
<text text-anchor="middle" x="340" y="-63.5" font-family="Helvetica,sans-Serif" font-size="10.00">_hard.h</text>
</a>
</g>
</g>
<!-- Node8&#45;&gt;Node9 -->
<g id="edge13" class="edge"><title>Node8&#45;&gt;Node9</title>
<path fill="none" stroke="midnightblue" d="M568.745,-123.475C527.312,-114.242 460.338,-99.3169 409.541,-87.997"/>
<polygon fill="midnightblue" stroke="midnightblue" points="410.132,-84.5428 399.61,-85.7838 408.609,-91.3752 410.132,-84.5428"/>
</g>
<!-- Node10 -->
<g id="node10" class="node"><title>Node10</title>
<g id="a_node10"><a xlink:href="constraints__soft_8h.html" target="_top" xlink:title="Functions and data structures for secondary structure soft constraints. ">
<polygon fill="none" stroke="black" points="417.5,-56.5 417.5,-86.5 536.5,-86.5 536.5,-56.5 417.5,-56.5"/>
<text text-anchor="start" x="425.5" y="-74.5" font-family="Helvetica,sans-Serif" font-size="10.00">ViennaRNA/constraints</text>
<text text-anchor="middle" x="477" y="-63.5" font-family="Helvetica,sans-Serif" font-size="10.00">_soft.h</text>
</a>
</g>
</g>
<!-- Node8&#45;&gt;Node10 -->
<g id="edge15" class="edge"><title>Node8&#45;&gt;Node10</title>
<path fill="none" stroke="midnightblue" d="M588.374,-123.475C569.78,-114.965 540.622,-101.619 516.804,-90.718"/>
<polygon fill="midnightblue" stroke="midnightblue" points="518.188,-87.5023 507.638,-86.523 515.275,-93.8673 518.188,-87.5023"/>
</g>
<!-- Node11 -->
<g id="node11" class="node"><title>Node11</title>
<g id="a_node11"><a xlink:href="constraints__SHAPE_8h.html" target="_top" xlink:title="This module provides function to incorporate SHAPE reactivity data into the folding recursions by mea...">
<polygon fill="none" stroke="black" points="554.5,-56.5 554.5,-86.5 673.5,-86.5 673.5,-56.5 554.5,-56.5"/>
<text text-anchor="start" x="562.5" y="-74.5" font-family="Helvetica,sans-Serif" font-size="10.00">ViennaRNA/constraints</text>
<text text-anchor="middle" x="614" y="-63.5" font-family="Helvetica,sans-Serif" font-size="10.00">_SHAPE.h</text>
</a>
</g>
</g>
<!-- Node8&#45;&gt;Node11 -->
<g id="edge17" class="edge"><title>Node8&#45;&gt;Node11</title>
<path fill="none" stroke="midnightblue" d="M608.003,-123.475C608.827,-116.471 610.036,-106.192 611.153,-96.6956"/>
<polygon fill="midnightblue" stroke="midnightblue" points="614.658,-96.8635 612.35,-86.523 607.706,-96.0455 614.658,-96.8635"/>
</g>
<!-- Node12 -->
<g id="node12" class="node"><title>Node12</title>
<g id="a_node12"><a xlink:href="perturbation__fold_8h.html" target="_top" xlink:title="Find a vector of perturbation energies that minimizes the discripancies between predicted and observe...">
<polygon fill="none" stroke="black" points="692,-56.5 692,-86.5 814,-86.5 814,-56.5 692,-56.5"/>
<text text-anchor="start" x="700" y="-74.5" font-family="Helvetica,sans-Serif" font-size="10.00">ViennaRNA/perturbation</text>
<text text-anchor="middle" x="753" y="-63.5" font-family="Helvetica,sans-Serif" font-size="10.00">_fold.h</text>
</a>
</g>
</g>
<!-- Node8&#45;&gt;Node12 -->
<g id="edge19" class="edge"><title>Node8&#45;&gt;Node12</title>
<path fill="none" stroke="midnightblue" d="M627.918,-123.475C648.986,-114.889 682.128,-101.383 709.006,-90.4291"/>
<polygon fill="midnightblue" stroke="midnightblue" points="710.651,-93.5382 718.591,-86.523 708.009,-87.0558 710.651,-93.5382"/>
</g>
<!-- Node13 -->
<g id="node13" class="node"><title>Node13</title>
<g id="a_node13"><a xlink:href="ligand_8h.html" target="_top" xlink:title="Functions for incorporation of ligands binding to haipirn and interior loop motifs. ">
<polygon fill="none" stroke="black" points="832.5,-62 832.5,-81 937.5,-81 937.5,-62 832.5,-62"/>
<text text-anchor="middle" x="885" y="-69" font-family="Helvetica,sans-Serif" font-size="10.00">ViennaRNA/ligand.h</text>
</a>
</g>
</g>
<!-- Node8&#45;&gt;Node13 -->
<g id="edge21" class="edge"><title>Node8&#45;&gt;Node13</title>
<path fill="none" stroke="midnightblue" d="M649.689,-123.426C693.309,-114.589 762.97,-100.271 823,-87 828.329,-85.8218 833.909,-84.5588 839.445,-83.2873"/>
<polygon fill="midnightblue" stroke="midnightblue" points="840.345,-86.6717 849.298,-81.0063 838.766,-79.8521 840.345,-86.6717"/>
</g>
<!-- Node9&#45;&gt;Node2 -->
<g id="edge14" class="edge"><title>Node9&#45;&gt;Node2</title>
<path fill="none" stroke="midnightblue" d="M373.37,-86.5408C388.73,-94.8122 405.597,-106.859 415,-123 423.1,-136.905 423.745,-155.416 422.717,-169.127"/>
<polygon fill="midnightblue" stroke="midnightblue" points="419.212,-168.983 421.587,-179.308 426.169,-169.755 419.212,-168.983"/>
</g>
<!-- Node10&#45;&gt;Node2 -->
<g id="edge16" class="edge"><title>Node10&#45;&gt;Node2</title>
<path fill="none" stroke="midnightblue" d="M473.584,-86.5224C469.72,-101.128 462.68,-124.426 453,-143 447.805,-152.969 440.54,-163.145 434.148,-171.293"/>
<polygon fill="midnightblue" stroke="midnightblue" points="431.286,-169.265 427.695,-179.233 436.719,-173.68 431.286,-169.265"/>
</g>
<!-- Node11&#45;&gt;Node2 -->
<g id="edge18" class="edge"><title>Node11&#45;&gt;Node2</title>
<path fill="none" stroke="midnightblue" d="M590.409,-86.5453C552.982,-108.828 480.438,-152.017 443.236,-174.166"/>
<polygon fill="midnightblue" stroke="midnightblue" points="441.384,-171.196 434.582,-179.319 444.964,-177.21 441.384,-171.196"/>
</g>
<!-- Node12&#45;&gt;Node2 -->
<g id="edge20" class="edge"><title>Node12&#45;&gt;Node2</title>
<path fill="none" stroke="midnightblue" d="M742.637,-86.7233C729.861,-103.116 706.552,-129.523 680,-143 625.314,-170.756 556.722,-181.789 503.723,-185.998"/>
<polygon fill="midnightblue" stroke="midnightblue" points="503.397,-182.513 493.678,-186.73 503.906,-189.494 503.397,-182.513"/>
</g>
<!-- Node13&#45;&gt;Node2 -->
<g id="edge22" class="edge"><title>Node13&#45;&gt;Node2</title>
<path fill="none" stroke="midnightblue" d="M867.365,-81.0697C836.039,-95.9391 768.3,-126.505 708,-143 640.539,-161.454 561.981,-173.098 503.969,-179.907"/>
<polygon fill="midnightblue" stroke="midnightblue" points="503.283,-176.462 493.748,-181.081 504.082,-183.416 503.283,-176.462"/>
</g>
<!-- Node14&#45;&gt;Node5 -->
<g id="edge24" class="edge"><title>Node14&#45;&gt;Node5</title>
<path fill="none" stroke="midnightblue" d="M271.758,-291.454C221.931,-273.12 111.481,-224.891 62,-143 52.542,-127.347 51.019,-106.187 51.4131,-91.1435"/>
<polygon fill="midnightblue" stroke="midnightblue" points="54.915,-91.2074 51.9885,-81.0248 47.9263,-90.8099 54.915,-91.2074"/>
</g>
<!-- Node15 -->
<g id="node15" class="node"><title>Node15</title>
<g id="a_node15"><a xlink:href="plot__layouts_8h.html" target="_top" xlink:title="Secondary structure plot layout algorithms. ">
<polygon fill="none" stroke="black" points="231,-235.5 231,-254.5 363,-254.5 363,-235.5 231,-235.5"/>
<text text-anchor="middle" x="297" y="-242.5" font-family="Helvetica,sans-Serif" font-size="10.00">ViennaRNA/plot_layouts.h</text>
</a>
</g>
</g>
<!-- Node14&#45;&gt;Node15 -->
<g id="edge25" class="edge"><title>Node14&#45;&gt;Node15</title>
<path fill="none" stroke="midnightblue" d="M297,-291.083C297,-284.006 297,-273.861 297,-264.986"/>
<polygon fill="midnightblue" stroke="midnightblue" points="300.5,-264.751 297,-254.751 293.5,-264.751 300.5,-264.751"/>
</g>
<!-- Node15&#45;&gt;Node2 -->
<g id="edge26" class="edge"><title>Node15&#45;&gt;Node2</title>
<path fill="none" stroke="midnightblue" d="M316.49,-235.444C336.642,-226.596 368.323,-212.687 391.331,-202.586"/>
<polygon fill="midnightblue" stroke="midnightblue" points="392.852,-205.741 400.601,-198.516 390.038,-199.332 392.852,-205.741"/>
</g>
<!-- Node16 -->
<g id="node16" class="node"><title>Node16</title>
<g id="a_node16"><a xlink:href="naview_8h.html" target="_top" xlink:title="ViennaRNA/naview.h">
<polygon fill="none" stroke="black" points="218,-179.5 218,-198.5 328,-198.5 328,-179.5 218,-179.5"/>
<text text-anchor="middle" x="273" y="-186.5" font-family="Helvetica,sans-Serif" font-size="10.00">ViennaRNA/naview.h</text>
</a>
</g>
</g>
<!-- Node15&#45;&gt;Node16 -->
<g id="edge27" class="edge"><title>Node15&#45;&gt;Node16</title>
<path fill="none" stroke="midnightblue" d="M293.037,-235.083C289.787,-227.77 285.081,-217.181 281.046,-208.103"/>
<polygon fill="midnightblue" stroke="midnightblue" points="284.149,-206.468 276.889,-198.751 277.752,-209.311 284.149,-206.468"/>
</g>
</g>
</svg>
