<?xml version="1.0" encoding="UTF-8" standalone="no"?>
<!DOCTYPE svg PUBLIC "-//W3C//DTD SVG 1.1//EN"
 "http://www.w3.org/Graphics/SVG/1.1/DTD/svg11.dtd">
<!-- Generated by graphviz version 2.38.0 (20140413.2041)
 -->
<!-- Title: ViennaRNA/utils.h Pages: 1 -->
<!--zoomable 330 -->
<svg id="main" version="1.1" xmlns="http://www.w3.org/2000/svg" xmlns:xlink="http://www.w3.org/1999/xlink" xml:space="preserve" onload="init(evt)">
<style type="text/css"><![CDATA[
.edge:hover path { stroke: red; }
.edge:hover polygon { stroke: red; fill: red; }
]]></style>
<script type="text/javascript"><![CDATA[
var edges = document.getElementsByTagName('g');
if (edges && edges.length) {
  for (var i=0;i<edges.length;i++) {
    if (edges[i].id.substr(0,4)=='edge') {
      edges[i].setAttribute('class','edge');
    }
  }
}
]]></script>
        <defs>
                <circle id="rim" cx="0" cy="0" r="7"/>
                <circle id="rim2" cx="0" cy="0" r="3.5"/>
                <g id="zoomPlus">
                        <use xlink:href="#rim" fill="#404040">
                                <set attributeName="fill" to="#808080" begin="zoomplus.mouseover" end="zoomplus.mouseout"/>
                        </use>
                        <path d="M-4,0h8M0,-4v8" fill="none" stroke="white" stroke-width="1.5" pointer-events="none"/>
                </g>
                <g id="zoomMin">
                        <use xlink:href="#rim" fill="#404040">
                                <set attributeName="fill" to="#808080" begin="zoomminus.mouseover" end="zoomminus.mouseout"/>
                        </use>
                        <path d="M-4,0h8" fill="none" stroke="white" stroke-width="1.5" pointer-events="none"/>
                </g>
                <g id="dirArrow">
                        <path fill="none" stroke="white" stroke-width="1.5" d="M0,-3.0v7 M-2.5,-0.5L0,-3.0L2.5,-0.5"/>
                </g>
               <g id="resetDef">
                       <use xlink:href="#rim2" fill="#404040">
                               <set attributeName="fill" to="#808080" begin="reset.mouseover" end="reset.mouseout"/>
                       </use>
               </g>
        </defs>

<script type="text/javascript">
var viewWidth = 955;
var viewHeight = 330;
var sectionId = 'dynsection-0';
</script>
<script xlink:href="svgpan.js"/>
<svg id="graph" class="graph">
<g id="viewport">
<title>ViennaRNA/utils.h</title>
<!-- Node1 -->
<g id="node1" class="node"><title>Node1</title>
<polygon fill="#bfbfbf" stroke="black" points="214,-302.5 214,-321.5 312,-321.5 312,-302.5 214,-302.5"/>
<text text-anchor="middle" x="263" y="-309.5" font-family="Helvetica,sans-Serif" font-size="10.00">ViennaRNA/utils.h</text>
</g>
<!-- Node2 -->
<g id="node2" class="node"><title>Node2</title>
<polygon fill="none" stroke="#bfbfbf" points="183,-179.5 183,-198.5 229,-198.5 229,-179.5 183,-179.5"/>
<text text-anchor="middle" x="206" y="-186.5" font-family="Helvetica,sans-Serif" font-size="10.00">stdio.h</text>
</g>
<!-- Node1&#45;&gt;Node2 -->
<g id="edge1" class="edge"><title>Node1&#45;&gt;Node2</title>
<path fill="none" stroke="midnightblue" d="M241.517,-302.36C226.608,-295.09 207.889,-283.117 199,-266 189.672,-248.038 193.968,-224.453 198.95,-208.35"/>
<polygon fill="midnightblue" stroke="midnightblue" points="202.376,-209.154 202.351,-198.559 195.764,-206.857 202.376,-209.154"/>
</g>
<!-- Node3 -->
<g id="node3" class="node"><title>Node3</title>
<g id="a_node3"><a xlink:href="data__structures_8h.html" target="_top" xlink:title="ViennaRNA/data_structures.h">
<polygon fill="none" stroke="black" points="318.5,-179.5 318.5,-198.5 465.5,-198.5 465.5,-179.5 318.5,-179.5"/>
<text text-anchor="middle" x="392" y="-186.5" font-family="Helvetica,sans-Serif" font-size="10.00">ViennaRNA/data_structures.h</text>
</a>
</g>
</g>
<!-- Node1&#45;&gt;Node3 -->
<g id="edge2" class="edge"><title>Node1&#45;&gt;Node3</title>
<path fill="none" stroke="midnightblue" d="M277.233,-302.453C290.727,-294.023 311.224,-280.348 327,-266 347.186,-247.641 367.084,-223.182 379.44,-207.03"/>
<polygon fill="midnightblue" stroke="midnightblue" points="382.575,-208.685 385.789,-198.59 376.981,-204.477 382.575,-208.685"/>
</g>
<!-- Node15 -->
<g id="node15" class="node"><title>Node15</title>
<g id="a_node15"><a xlink:href="string__utils_8h.html" target="_top" xlink:title="General utility&#45; and helper&#45;functions for RNA sequence and structure strings used throughout the Vien...">
<polygon fill="none" stroke="black" points="374.5,-241 374.5,-260 501.5,-260 501.5,-241 374.5,-241"/>
<text text-anchor="middle" x="438" y="-248" font-family="Helvetica,sans-Serif" font-size="10.00">ViennaRNA/string_utils.h</text>
</a>
</g>
</g>
<!-- Node1&#45;&gt;Node15 -->
<g id="edge24" class="edge"><title>Node1&#45;&gt;Node15</title>
<path fill="none" stroke="midnightblue" d="M288.073,-302.475C318.352,-292.18 369.44,-274.81 403.441,-263.25"/>
<polygon fill="midnightblue" stroke="midnightblue" points="404.632,-266.542 412.973,-260.009 402.379,-259.914 404.632,-266.542"/>
</g>
<!-- Node16 -->
<g id="node16" class="node"><title>Node16</title>
<g id="a_node16"><a xlink:href="structure__utils_8h.html" target="_top" xlink:title="Various utility&#45; and helper&#45;functions for secondary structure parsing, converting, etc. ">
<polygon fill="none" stroke="black" points="208,-235.5 208,-265.5 318,-265.5 318,-235.5 208,-235.5"/>
<text text-anchor="start" x="216" y="-253.5" font-family="Helvetica,sans-Serif" font-size="10.00">ViennaRNA/structure</text>
<text text-anchor="middle" x="263" y="-242.5" font-family="Helvetica,sans-Serif" font-size="10.00">_utils.h</text>
</a>
</g>
</g>
<!-- Node1&#45;&gt;Node16 -->
<g id="edge26" class="edge"><title>Node1&#45;&gt;Node16</title>
<path fill="none" stroke="midnightblue" d="M263,-302.475C263,-295.471 263,-285.192 263,-275.696"/>
<polygon fill="midnightblue" stroke="midnightblue" points="266.5,-275.523 263,-265.523 259.5,-275.523 266.5,-275.523"/>
</g>
<!-- Node17 -->
<g id="node17" class="node"><title>Node17</title>
<g id="a_node17"><a xlink:href="alphabet_8h.html" target="_top" xlink:title="Functions to process, convert, and generally handle different nucleotide and/or base pair alphabets...">
<polygon fill="none" stroke="black" points="38,-179.5 38,-198.5 154,-198.5 154,-179.5 38,-179.5"/>
<text text-anchor="middle" x="96" y="-186.5" font-family="Helvetica,sans-Serif" font-size="10.00">ViennaRNA/alphabet.h</text>
</a>
</g>
</g>
<!-- Node1&#45;&gt;Node17 -->
<g id="edge29" class="edge"><title>Node1&#45;&gt;Node17</title>
<path fill="none" stroke="midnightblue" d="M247.821,-302.406C232.8,-293.726 209.319,-279.68 190,-266 162.226,-246.333 131.921,-221.086 113.435,-205.22"/>
<polygon fill="midnightblue" stroke="midnightblue" points="115.68,-202.534 105.825,-198.644 111.103,-207.831 115.68,-202.534"/>
</g>
<!-- Node4 -->
<g id="node4" class="node"><title>Node4</title>
<g id="a_node4"><a xlink:href="energy__const_8h.html" target="_top" xlink:title="ViennaRNA/energy_const.h">
<polygon fill="none" stroke="black" points="133,-62 133,-81 271,-81 271,-62 133,-62"/>
<text text-anchor="middle" x="202" y="-69" font-family="Helvetica,sans-Serif" font-size="10.00">ViennaRNA/energy_const.h</text>
</a>
</g>
</g>
<!-- Node3&#45;&gt;Node4 -->
<g id="edge3" class="edge"><title>Node3&#45;&gt;Node4</title>
<path fill="none" stroke="midnightblue" d="M389.107,-179.062C384.14,-165.099 372.683,-138.147 354,-123 337.344,-109.496 285.594,-93.9356 247.077,-83.6968"/>
<polygon fill="midnightblue" stroke="midnightblue" points="247.663,-80.2323 237.103,-81.0846 245.89,-87.0039 247.663,-80.2323"/>
</g>
<!-- Node6 -->
<g id="node6" class="node"><title>Node6</title>
<g id="a_node6"><a xlink:href="model_8h.html" target="_top" xlink:title="The model details data structure and its corresponding modifiers. ">
<polygon fill="none" stroke="black" points="0,-62 0,-81 106,-81 106,-62 0,-62"/>
<text text-anchor="middle" x="53" y="-69" font-family="Helvetica,sans-Serif" font-size="10.00">ViennaRNA/model.h</text>
</a>
</g>
</g>
<!-- Node3&#45;&gt;Node6 -->
<g id="edge5" class="edge"><title>Node3&#45;&gt;Node6</title>
<path fill="none" stroke="midnightblue" d="M318.248,-181.908C229.525,-173.925 90.1575,-159.042 72,-143 57.6287,-130.303 53.6076,-107.993 52.7226,-91.8651"/>
<polygon fill="midnightblue" stroke="midnightblue" points="56.2141,-91.3736 52.5292,-81.4402 49.2153,-91.5034 56.2141,-91.3736"/>
</g>
<!-- Node7 -->
<g id="node7" class="node"><title>Node7</title>
<g id="a_node7"><a xlink:href="params_8h.html" target="_top" xlink:title="ViennaRNA/params.h">
<polygon fill="none" stroke="black" points="233,-123.5 233,-142.5 345,-142.5 345,-123.5 233,-123.5"/>
<text text-anchor="middle" x="289" y="-130.5" font-family="Helvetica,sans-Serif" font-size="10.00">ViennaRNA/params.h</text>
</a>
</g>
</g>
<!-- Node3&#45;&gt;Node7 -->
<g id="edge6" class="edge"><title>Node3&#45;&gt;Node7</title>
<path fill="none" stroke="midnightblue" d="M370.591,-179.444C352.446,-170.912 326.906,-157.675 309.139,-147.683"/>
<polygon fill="midnightblue" stroke="midnightblue" points="310.577,-144.472 300.164,-142.516 307.085,-150.539 310.577,-144.472"/>
</g>
<!-- Node8 -->
<g id="node8" class="node"><title>Node8</title>
<g id="a_node8"><a xlink:href="dp__matrices_8h.html" target="_top" xlink:title="ViennaRNA/dp_matrices.h">
<polygon fill="none" stroke="black" points="81.5,-123.5 81.5,-142.5 214.5,-142.5 214.5,-123.5 81.5,-123.5"/>
<text text-anchor="middle" x="148" y="-130.5" font-family="Helvetica,sans-Serif" font-size="10.00">ViennaRNA/dp_matrices.h</text>
</a>
</g>
</g>
<!-- Node3&#45;&gt;Node8 -->
<g id="edge10" class="edge"><title>Node3&#45;&gt;Node8</title>
<path fill="none" stroke="midnightblue" d="M348.249,-179.444C303.804,-170.063 235.563,-154.993 191.289,-144.804"/>
<polygon fill="midnightblue" stroke="midnightblue" points="191.933,-141.36 181.402,-142.516 190.356,-148.18 191.933,-141.36"/>
</g>
<!-- Node9 -->
<g id="node9" class="node"><title>Node9</title>
<g id="a_node9"><a xlink:href="constraints_8h.html" target="_top" xlink:title="Functions and data structures for constraining secondary structure predictions and evaluation...">
<polygon fill="none" stroke="black" points="477,-123.5 477,-142.5 605,-142.5 605,-123.5 477,-123.5"/>
<text text-anchor="middle" x="541" y="-130.5" font-family="Helvetica,sans-Serif" font-size="10.00">ViennaRNA/constraints.h</text>
</a>
</g>
</g>
<!-- Node3&#45;&gt;Node9 -->
<g id="edge12" class="edge"><title>Node3&#45;&gt;Node9</title>
<path fill="none" stroke="midnightblue" d="M410.521,-179.444C433.594,-170.359 473.184,-155.939 502.798,-145.783"/>
<polygon fill="midnightblue" stroke="midnightblue" points="504.077,-149.045 512.421,-142.516 501.827,-142.417 504.077,-149.045"/>
</g>
<!-- Node5 -->
<g id="node5" class="node"><title>Node5</title>
<polygon fill="none" stroke="#bfbfbf" points="178,-0.5 178,-19.5 226,-19.5 226,-0.5 178,-0.5"/>
<text text-anchor="middle" x="202" y="-7.5" font-family="Helvetica,sans-Serif" font-size="10.00">limits.h</text>
</g>
<!-- Node4&#45;&gt;Node5 -->
<g id="edge4" class="edge"><title>Node4&#45;&gt;Node5</title>
<path fill="none" stroke="midnightblue" d="M202,-61.9751C202,-53.5803 202,-40.4806 202,-29.6631"/>
<polygon fill="midnightblue" stroke="midnightblue" points="205.5,-29.5091 202,-19.5091 198.5,-29.5091 205.5,-29.5091"/>
</g>
<!-- Node7&#45;&gt;Node3 -->
<g id="edge8" class="edge"><title>Node7&#45;&gt;Node3</title>
<path fill="none" stroke="midnightblue" d="M310.618,-142.655C328.664,-151.149 353.924,-164.241 371.612,-174.177"/>
<polygon fill="midnightblue" stroke="midnightblue" points="370.152,-177.375 380.566,-179.324 373.64,-171.306 370.152,-177.375"/>
</g>
<!-- Node7&#45;&gt;Node4 -->
<g id="edge7" class="edge"><title>Node7&#45;&gt;Node4</title>
<path fill="none" stroke="midnightblue" d="M276.535,-123.475C262.581,-113.931 239.735,-98.3073 223.009,-86.8683"/>
<polygon fill="midnightblue" stroke="midnightblue" points="224.672,-83.7653 214.442,-81.0091 220.72,-89.5433 224.672,-83.7653"/>
</g>
<!-- Node7&#45;&gt;Node6 -->
<g id="edge9" class="edge"><title>Node7&#45;&gt;Node6</title>
<path fill="none" stroke="midnightblue" d="M255.187,-123.475C213.478,-112.959 142.488,-95.0615 96.6864,-83.5142"/>
<polygon fill="midnightblue" stroke="midnightblue" points="97.3026,-80.06 86.7503,-81.0091 95.5912,-86.8476 97.3026,-80.06"/>
</g>
<!-- Node8&#45;&gt;Node3 -->
<g id="edge11" class="edge"><title>Node8&#45;&gt;Node3</title>
<path fill="none" stroke="midnightblue" d="M191.562,-142.516C235.938,-151.881 304.18,-166.95 348.522,-177.153"/>
<polygon fill="midnightblue" stroke="midnightblue" points="347.895,-180.6 358.426,-179.444 349.472,-173.78 347.895,-180.6"/>
</g>
<!-- Node9&#45;&gt;Node3 -->
<g id="edge13" class="edge"><title>Node9&#45;&gt;Node3</title>
<path fill="none" stroke="midnightblue" d="M522.581,-142.516C499.556,-151.585 459.976,-166.004 430.332,-176.172"/>
<polygon fill="midnightblue" stroke="midnightblue" points="429.042,-172.914 420.698,-179.444 431.293,-179.542 429.042,-172.914"/>
</g>
<!-- Node10 -->
<g id="node10" class="node"><title>Node10</title>
<g id="a_node10"><a xlink:href="constraints__hard_8h.html" target="_top" xlink:title="Functions and data structures for handling of secondary structure hard constraints. ">
<polygon fill="none" stroke="black" points="289.5,-56.5 289.5,-86.5 408.5,-86.5 408.5,-56.5 289.5,-56.5"/>
<text text-anchor="start" x="297.5" y="-74.5" font-family="Helvetica,sans-Serif" font-size="10.00">ViennaRNA/constraints</text>
<text text-anchor="middle" x="349" y="-63.5" font-family="Helvetica,sans-Serif" font-size="10.00">_hard.h</text>
</a>
</g>
</g>
<!-- Node9&#45;&gt;Node10 -->
<g id="edge14" class="edge"><title>Node9&#45;&gt;Node10</title>
<path fill="none" stroke="midnightblue" d="M513.491,-123.475C485.057,-114.664 439.896,-100.668 404.082,-89.5698"/>
<polygon fill="midnightblue" stroke="midnightblue" points="404.839,-86.14 394.251,-86.523 402.766,-92.8263 404.839,-86.14"/>
</g>
<!-- Node11 -->
<g id="node11" class="node"><title>Node11</title>
<g id="a_node11"><a xlink:href="constraints__soft_8h.html" target="_top" xlink:title="Functions and data structures for secondary structure soft constraints. ">
<polygon fill="none" stroke="black" points="426.5,-56.5 426.5,-86.5 545.5,-86.5 545.5,-56.5 426.5,-56.5"/>
<text text-anchor="start" x="434.5" y="-74.5" font-family="Helvetica,sans-Serif" font-size="10.00">ViennaRNA/constraints</text>
<text text-anchor="middle" x="486" y="-63.5" font-family="Helvetica,sans-Serif" font-size="10.00">_soft.h</text>
</a>
</g>
</g>
<!-- Node9&#45;&gt;Node11 -->
<g id="edge16" class="edge"><title>Node9&#45;&gt;Node11</title>
<path fill="none" stroke="midnightblue" d="M533.12,-123.475C526.019,-115.793 515.276,-104.172 505.841,-93.9643"/>
<polygon fill="midnightblue" stroke="midnightblue" points="508.321,-91.4905 498.962,-86.523 503.18,-96.2421 508.321,-91.4905"/>
</g>
<!-- Node12 -->
<g id="node12" class="node"><title>Node12</title>
<g id="a_node12"><a xlink:href="constraints__SHAPE_8h.html" target="_top" xlink:title="This module provides function to incorporate SHAPE reactivity data into the folding recursions by mea...">
<polygon fill="none" stroke="black" points="563.5,-56.5 563.5,-86.5 682.5,-86.5 682.5,-56.5 563.5,-56.5"/>
<text text-anchor="start" x="571.5" y="-74.5" font-family="Helvetica,sans-Serif" font-size="10.00">ViennaRNA/constraints</text>
<text text-anchor="middle" x="623" y="-63.5" font-family="Helvetica,sans-Serif" font-size="10.00">_SHAPE.h</text>
</a>
</g>
</g>
<!-- Node9&#45;&gt;Node12 -->
<g id="edge18" class="edge"><title>Node9&#45;&gt;Node12</title>
<path fill="none" stroke="midnightblue" d="M552.749,-123.475C563.854,-115.417 580.935,-103.023 595.473,-92.4741"/>
<polygon fill="midnightblue" stroke="midnightblue" points="597.636,-95.2287 603.674,-86.523 593.525,-89.5631 597.636,-95.2287"/>
</g>
<!-- Node13 -->
<g id="node13" class="node"><title>Node13</title>
<g id="a_node13"><a xlink:href="perturbation__fold_8h.html" target="_top" xlink:title="Find a vector of perturbation energies that minimizes the discripancies between predicted and observe...">
<polygon fill="none" stroke="black" points="701,-56.5 701,-86.5 823,-86.5 823,-56.5 701,-56.5"/>
<text text-anchor="start" x="709" y="-74.5" font-family="Helvetica,sans-Serif" font-size="10.00">ViennaRNA/perturbation</text>
<text text-anchor="middle" x="762" y="-63.5" font-family="Helvetica,sans-Serif" font-size="10.00">_fold.h</text>
</a>
</g>
</g>
<!-- Node9&#45;&gt;Node13 -->
<g id="edge20" class="edge"><title>Node9&#45;&gt;Node13</title>
<path fill="none" stroke="midnightblue" d="M572.664,-123.475C605.812,-114.551 658.71,-100.309 700.178,-89.1444"/>
<polygon fill="midnightblue" stroke="midnightblue" points="701.168,-92.5024 709.915,-86.523 699.349,-85.7431 701.168,-92.5024"/>
</g>
<!-- Node14 -->
<g id="node14" class="node"><title>Node14</title>
<g id="a_node14"><a xlink:href="ligand_8h.html" target="_top" xlink:title="Functions for incorporation of ligands binding to haipirn and interior loop motifs. ">
<polygon fill="none" stroke="black" points="841.5,-62 841.5,-81 946.5,-81 946.5,-62 841.5,-62"/>
<text text-anchor="middle" x="894" y="-69" font-family="Helvetica,sans-Serif" font-size="10.00">ViennaRNA/ligand.h</text>
</a>
</g>
</g>
<!-- Node9&#45;&gt;Node14 -->
<g id="edge22" class="edge"><title>Node9&#45;&gt;Node14</title>
<path fill="none" stroke="midnightblue" d="M605.108,-123.52C664.233,-115.359 754.337,-102.064 832,-87 837.77,-85.8808 843.818,-84.601 849.78,-83.2755"/>
<polygon fill="midnightblue" stroke="midnightblue" points="850.694,-86.657 859.666,-81.0222 849.138,-79.832 850.694,-86.657"/>
</g>
<!-- Node10&#45;&gt;Node3 -->
<g id="edge15" class="edge"><title>Node10&#45;&gt;Node3</title>
<path fill="none" stroke="midnightblue" d="M363.127,-86.6038C371.64,-96.053 381.808,-109.245 387,-123 392.564,-137.742 393.555,-155.673 393.302,-168.965"/>
<polygon fill="midnightblue" stroke="midnightblue" points="389.792,-169.108 392.842,-179.255 396.785,-169.421 389.792,-169.108"/>
</g>
<!-- Node11&#45;&gt;Node3 -->
<g id="edge17" class="edge"><title>Node11&#45;&gt;Node3</title>
<path fill="none" stroke="midnightblue" d="M474.569,-86.5453C457.126,-107.978 423.941,-148.754 405.394,-171.543"/>
<polygon fill="midnightblue" stroke="midnightblue" points="402.663,-169.353 399.065,-179.319 408.092,-173.772 402.663,-169.353"/>
</g>
<!-- Node12&#45;&gt;Node3 -->
<g id="edge19" class="edge"><title>Node12&#45;&gt;Node3</title>
<path fill="none" stroke="midnightblue" d="M625.58,-86.6656C627.585,-102.504 628.029,-127.907 614,-143 595.254,-163.168 530.59,-174.736 475.852,-181.079"/>
<polygon fill="midnightblue" stroke="midnightblue" points="475.311,-177.618 465.76,-182.203 476.086,-184.574 475.311,-177.618"/>
</g>
<!-- Node13&#45;&gt;Node3 -->
<g id="edge21" class="edge"><title>Node13&#45;&gt;Node3</title>
<path fill="none" stroke="midnightblue" d="M741.249,-86.6739C716.714,-102.766 674.13,-128.64 634,-143 582.913,-161.281 522.973,-172.498 475.527,-179.161"/>
<polygon fill="midnightblue" stroke="midnightblue" points="475.036,-175.695 465.601,-180.514 475.982,-182.631 475.036,-175.695"/>
</g>
<!-- Node14&#45;&gt;Node3 -->
<g id="edge23" class="edge"><title>Node14&#45;&gt;Node3</title>
<path fill="none" stroke="midnightblue" d="M870.877,-81.0484C830.722,-95.613 745.272,-125.37 671,-143 605.051,-158.654 529.029,-170.518 473.012,-178.123"/>
<polygon fill="midnightblue" stroke="midnightblue" points="472.238,-174.696 462.792,-179.494 473.169,-181.634 472.238,-174.696"/>
</g>
<!-- Node15&#45;&gt;Node3 -->
<g id="edge25" class="edge"><title>Node15&#45;&gt;Node3</title>
<path fill="none" stroke="midnightblue" d="M431.409,-240.975C424.509,-232.05 413.498,-217.807 404.866,-206.643"/>
<polygon fill="midnightblue" stroke="midnightblue" points="407.464,-204.28 398.578,-198.509 401.926,-208.561 407.464,-204.28"/>
</g>
<!-- Node16&#45;&gt;Node2 -->
<g id="edge27" class="edge"><title>Node16&#45;&gt;Node2</title>
<path fill="none" stroke="midnightblue" d="M249.492,-235.399C241.038,-226.575 230.125,-215.183 221.345,-206.018"/>
<polygon fill="midnightblue" stroke="midnightblue" points="223.739,-203.458 214.294,-198.658 218.684,-208.3 223.739,-203.458"/>
</g>
<!-- Node16&#45;&gt;Node3 -->
<g id="edge28" class="edge"><title>Node16&#45;&gt;Node3</title>
<path fill="none" stroke="midnightblue" d="M293.571,-235.399C314.925,-225.55 343.215,-212.501 363.985,-202.922"/>
<polygon fill="midnightblue" stroke="midnightblue" points="365.615,-206.024 373.229,-198.658 362.683,-199.668 365.615,-206.024"/>
</g>
<!-- Node17&#45;&gt;Node6 -->
<g id="edge30" class="edge"><title>Node17&#45;&gt;Node6</title>
<path fill="none" stroke="midnightblue" d="M77.9185,-179.39C64.4382,-171.872 47.0275,-159.565 39,-143 30.8645,-126.212 37.0055,-104.989 43.5231,-90.2357"/>
<polygon fill="midnightblue" stroke="midnightblue" points="46.6964,-91.7133 47.9245,-81.1899 40.402,-88.6505 46.6964,-91.7133"/>
</g>
</g>
</svg>
        <g id="navigator" transform="translate(0 0)" fill="#404254">
                <rect fill="#f2f5e9" fill-opacity="0.5" stroke="#606060" stroke-width=".5" x="0" y="0" width="60" height="60"/>
                <use id="zoomplus" xlink:href="#zoomPlus" x="17" y="9" onmousedown="handleZoom(evt,'in')"/>
                <use id="zoomminus" xlink:href="#zoomMin" x="42" y="9" onmousedown="handleZoom(evt,'out')"/>
                <use id="reset" xlink:href="#resetDef" x="30" y="36" onmousedown="handleReset()"/>
                <g id="arrowUp" xlink:href="#dirArrow" transform="translate(30 24)" onmousedown="handlePan(0,-1)">
                  <use xlink:href="#rim" fill="#404040">
                        <set attributeName="fill" to="#808080" begin="arrowUp.mouseover" end="arrowUp.mouseout"/>
                  </use>
                  <path fill="none" stroke="white" stroke-width="1.5" d="M0,-3.0v7 M-2.5,-0.5L0,-3.0L2.5,-0.5"/>
                </g>
                <g id="arrowRight" xlink:href="#dirArrow" transform="rotate(90) translate(36 -43)" onmousedown="handlePan(1,0)">
                  <use xlink:href="#rim" fill="#404040">
                        <set attributeName="fill" to="#808080" begin="arrowRight.mouseover" end="arrowRight.mouseout"/>
                  </use>
                  <path fill="none" stroke="white" stroke-width="1.5" d="M0,-3.0v7 M-2.5,-0.5L0,-3.0L2.5,-0.5"/>
                </g>
                <g id="arrowDown" xlink:href="#dirArrow" transform="rotate(180) translate(-30 -48)" onmousedown="handlePan(0,1)">
                  <use xlink:href="#rim" fill="#404040">
                        <set attributeName="fill" to="#808080" begin="arrowDown.mouseover" end="arrowDown.mouseout"/>
                  </use>
                  <path fill="none" stroke="white" stroke-width="1.5" d="M0,-3.0v7 M-2.5,-0.5L0,-3.0L2.5,-0.5"/>
                </g>
                <g id="arrowLeft" xlink:href="#dirArrow" transform="rotate(270) translate(-36 17)" onmousedown="handlePan(-1,0)">
                  <use xlink:href="#rim" fill="#404040">
                        <set attributeName="fill" to="#808080" begin="arrowLeft.mouseover" end="arrowLeft.mouseout"/>
                  </use>
                  <path fill="none" stroke="white" stroke-width="1.5" d="M0,-3.0v7 M-2.5,-0.5L0,-3.0L2.5,-0.5"/>
                </g>
        </g>
        <svg viewBox="0 0 15 15" width="100%" height="30px" preserveAspectRatio="xMaxYMin meet">
         <g id="arrow_out" transform="scale(0.3 0.3)">
          <a xlink:href="utils_8h__incl_org.svg" target="_base">
           <rect id="button" ry="5" rx="5" y="6" x="6" height="38" width="38"
                fill="#f2f5e9" fill-opacity="0.5" stroke="#606060" stroke-width="1.0"/>
           <path id="arrow"
             d="M 11.500037,31.436501 C 11.940474,20.09759 22.043105,11.32322 32.158766,21.979434 L 37.068811,17.246167 C 37.068811,17.246167 37.088388,32 37.088388,32 L 22.160133,31.978069 C 22.160133,31.978069 26.997745,27.140456 26.997745,27.140456 C 18.528582,18.264221 13.291696,25.230495 11.500037,31.436501 z"
             style="fill:#404040;"/>
          </a>
         </g>
        </svg>
</svg>
